<?xml version="1.0" encoding="UTF-8"?><svg id="a" xmlns="http://www.w3.org/2000/svg" viewBox="0 0 250 250"><defs><style>.b{fill:#fff;}</style></defs><path class="b" d="M217.78,189.96H32.22c-13.97,0-25.33-11.36-25.33-25.33v-100.24c0-13.97,11.36-25.33,25.33-25.33h185.55c13.97,0,25.33,11.36,25.33,25.33v100.24c0,13.97-11.36,25.33-25.33,25.33ZM32.22,45.39c-10.48,0-19,8.52-19,19v100.24c0,10.48,8.52,19,19,19h185.55c10.48,0,19-8.52,19-19v-100.24c0-10.48-8.52-19-19-19H32.22Z"/><path class="b" d="M239.91,161.39H10.06c-1.75,0-3.17-1.42-3.17-3.17s1.42-3.17,3.17-3.17h229.85c1.75,0,3.17,1.42,3.17,3.17s-1.42,3.17-3.17,3.17Z"/><path class="b" d="M92.64,210.49c-.35,0-.7-.06-1.04-.18-1.65-.58-2.52-2.38-1.95-4.03l7.11-20.38c.58-1.65,2.38-2.52,4.03-1.95,1.65.58,2.52,2.38,1.95,4.03l-7.11,20.38c-.46,1.31-1.68,2.12-2.99,2.12Z"/><path class="b" d="M157.21,210.49c-1.31,0-2.53-.82-2.99-2.12l-7.11-20.38c-.58-1.65.3-3.46,1.95-4.03s3.46.29,4.03,1.95l7.11,20.38c.58,1.65-.3,3.46-1.95,4.03-.35.12-.7.18-1.04.18Z"/><path class="b" d="M175.95,210.94h-104.57c-1.75,0-3.17-1.42-3.17-3.17s1.42-3.17,3.17-3.17h104.57c1.75,0,3.17,1.42,3.17,3.17s-1.42,3.17-3.17,3.17Z"/><path class="b" d="M148.54,81.19h-82.82c-1.75,0-3.17-1.42-3.17-3.17s1.42-3.17,3.17-3.17h82.82c1.75,0,3.17,1.42,3.17,3.17s-1.42,3.17-3.17,3.17Z"/><path class="b" d="M174.42,85.32l-6.75-9.01c-1.05-1.4-.77-3.38.63-4.43,1.4-1.05,3.39-.77,4.43.63l2.99,3.99,10.74-7.89c1.41-1.04,3.39-.73,4.43.68,1.04,1.41.73,3.39-.68,4.42l-15.79,11.6Z"/><path class="b" d="M148.54,107.89h-82.82c-1.75,0-3.17-1.42-3.17-3.17s1.42-3.17,3.17-3.17h82.82c1.75,0,3.17,1.42,3.17,3.17s-1.42,3.17-3.17,3.17Z"/><path class="b" d="M174.42,112.03l-6.75-9.01c-1.05-1.4-.77-3.38.63-4.43,1.4-1.05,3.39-.77,4.43.63l2.99,3.99,10.74-7.89c1.41-1.03,3.39-.73,4.43.68s.73,3.39-.68,4.42l-15.79,11.6Z"/><path class="b" d="M148.54,134.96h-82.82c-1.75,0-3.17-1.42-3.17-3.17s1.42-3.17,3.17-3.17h82.82c1.75,0,3.17,1.42,3.17,3.17s-1.42,3.17-3.17,3.17Z"/><path class="b" d="M174.42,139.09l-6.75-9.01c-1.05-1.4-.77-3.38.63-4.43,1.4-1.05,3.39-.77,4.43.63l2.99,3.99,10.74-7.88c1.41-1.03,3.39-.73,4.43.68,1.03,1.41.73,3.39-.68,4.42l-15.79,11.6Z"/></svg>