<?xml version="1.0" encoding="UTF-8"?><svg id="a" xmlns="http://www.w3.org/2000/svg" viewBox="0 0 250 250"><defs><style>.b{fill:#fff;}</style></defs><path class="b" d="M134.89,217.29H5.38V45.33h129.51s0,171.96,0,171.96ZM11.35,211.32h117.58V51.29H11.35v160.03Z"/><rect class="b" x="24.74" y="71.21" width="42.98" height="5.97"/><rect class="b" x="24.74" y="83.61" width="42.98" height="5.97"/><rect class="b" x="24.74" y="122.12" width="42.98" height="5.97"/><rect class="b" x="24.74" y="134.52" width="42.98" height="5.97"/><rect class="b" x="24.74" y="173.62" width="42.98" height="5.97"/><rect class="b" x="24.74" y="186.03" width="42.98" height="5.97"/><path class="b" d="M97.29,101.02c-11.7,0-21.22-9.52-21.22-21.22s9.52-21.22,21.22-21.22,21.22,9.52,21.22,21.22-9.52,21.22-21.22,21.22ZM97.29,64.54c-8.41,0-15.26,6.84-15.26,15.26s6.84,15.26,15.26,15.26,15.25-6.84,15.25-15.26-6.84-15.26-15.25-15.26Z"/><polygon class="b" points="93.3 90.21 86.01 82.28 90.4 78.24 93.58 81.7 104.31 71.48 108.43 75.8 93.3 90.21"/><path class="b" d="M97.29,152.53c-11.7,0-21.22-9.52-21.22-21.22s9.52-21.22,21.22-21.22,21.22,9.52,21.22,21.22-9.52,21.22-21.22,21.22ZM97.29,116.05c-8.41,0-15.26,6.84-15.26,15.26s6.84,15.26,15.26,15.26,15.25-6.84,15.25-15.26-6.84-15.26-15.25-15.26Z"/><polygon class="b" points="93.3 141.71 86.01 133.79 90.4 129.75 93.58 133.21 104.31 122.99 108.43 127.3 93.3 141.71"/><path class="b" d="M97.29,203.25c-11.7,0-21.22-9.52-21.22-21.22s9.52-21.22,21.22-21.22,21.22,9.52,21.22,21.22-9.52,21.22-21.22,21.22ZM97.29,166.77c-8.41,0-15.26,6.84-15.26,15.26s6.84,15.26,15.26,15.26,15.25-6.84,15.25-15.26-6.84-15.26-15.25-15.26Z"/><polygon class="b" points="93.3 192.44 86.01 184.51 90.4 180.47 93.58 183.93 104.31 173.71 108.43 178.03 93.3 192.44"/><path class="b" d="M119.93,234.98H20.34c-8.25,0-14.96-6.71-14.96-14.96v-5.72h5.97v5.72c0,4.96,4.03,8.99,8.99,8.99h99.6c4.96,0,8.99-4.03,8.99-8.99v-5.72h5.97v5.72c0,8.25-6.71,14.96-14.96,14.96Z"/><path class="b" d="M134.89,48.31h-5.97v-3.43c0-5.56-4.53-10.08-10.09-10.08H21.43c-5.56,0-10.09,4.53-10.09,10.08v3.43h-5.97v-3.43c0-8.85,7.2-16.05,16.06-16.05h97.4c8.85,0,16.06,7.2,16.06,16.05v3.43Z"/><path class="b" d="M200.31,103.71c-4.91,0-9.84-.83-14.62-2.49-4.43-1.54-8.55-3.75-12.26-6.58l-28.33,2.39,12.59-25.33c-2.58-8.87-2.34-18.15.71-26.93,8.04-23.08,33.34-35.33,56.45-27.28h0c11.18,3.9,20.18,11.91,25.33,22.57,5.15,10.66,5.85,22.69,1.95,33.87-3.89,11.18-11.91,20.18-22.57,25.33-6.11,2.95-12.67,4.44-19.25,4.44ZM175.29,88.5l.93.75c3.42,2.75,7.27,4.89,11.43,6.34,9.68,3.37,20.09,2.78,29.31-1.69,9.23-4.46,16.16-12.25,19.53-21.92,3.37-9.67,2.77-20.09-1.69-29.31-4.46-9.23-12.24-16.16-21.92-19.53-19.96-6.94-41.89,3.63-48.85,23.61-2.76,7.93-2.87,16.34-.31,24.32l.37,1.15-8.94,17.99,20.12-1.7Z"/><path class="b" d="M219.43,51.63h-35.34c-1.65,0-2.98-1.33-2.98-2.98s1.33-2.98,2.98-2.98h35.34c1.65,0,2.98,1.33,2.98,2.98s-1.33,2.98-2.98,2.98Z"/><path class="b" d="M219.43,63.68h-35.34c-1.65,0-2.98-1.33-2.98-2.98s1.33-2.98,2.98-2.98h35.34c1.65,0,2.98,1.33,2.98,2.98s-1.33,2.98-2.98,2.98Z"/><path class="b" d="M204.49,75.74h-20.39c-1.65,0-2.98-1.33-2.98-2.98s1.33-2.98,2.98-2.98h20.39c1.65,0,2.98,1.33,2.98,2.98s-1.33,2.98-2.98,2.98Z"/></svg>