<?xml version="1.0" encoding="UTF-8"?><svg id="a" xmlns="http://www.w3.org/2000/svg" viewBox="0 0 250 250"><defs><style>.b{fill:#fff;}</style></defs><path class="b" d="M181.13,114.8c-36.57,0-66.33,29.76-66.33,66.33s29.76,66.33,66.33,66.33,66.33-29.76,66.33-66.33-29.76-66.33-66.33-66.33ZM181.13,237.25c-30.94,0-56.13-25.17-56.13-56.13s25.19-56.13,56.13-56.13,56.13,25.17,56.13,56.13-25.19,56.13-56.13,56.13ZM186.23,179.01l18.92,18.92-7.21,7.21-21.9-21.9v-32.73h10.2v28.5h-.01ZM221.94,22.95h-35.72V2.54h-10.2v20.41h-102.05V2.54h-10.2v20.41H28.06c-14.06,0-25.51,11.45-25.51,25.51v198.99h122.74c-3.69-3.11-7.1-6.53-10.24-10.2H12.75V94.39h224.5v20.67c3.67,3.12,7.09,6.54,10.2,10.24V48.47c0-14.06-11.44-25.51-25.51-25.51h0ZM12.75,84.18v-35.72c0-8.44,6.87-15.31,15.31-15.31h193.89c8.44,0,15.31,6.87,15.31,15.31v35.72H12.75Z"/></svg>