<?xml version="1.0" encoding="UTF-8"?><svg id="a" xmlns="http://www.w3.org/2000/svg" viewBox="0 0 250 250"><defs><style>.c{fill:#fff;}</style></defs><g id="b"><path class="c" d="M173.84,247.42q-.5,0,0,0l-83.03-14.42c-.99,0-1.49-.99-1.49-1.99l-.5-94.96c-14.42-13.92-22.87-33.81-22.87-53.7,0-41.27,33.31-74.58,74.58-74.58s74.58,33.31,74.58,74.58c0,4.47-.5,8.95-1.49,13.92l13.92,29.34c.5.5.5,1.49,0,1.99-.5.5-.99.99-1.49.99h-14.42c0,17.9-1,28.34-4.48,35.3-3.98,7.46-10.94,10.44-24.36,10.44h-6.46v71.1c0,.5-.5,1-.5,1.49-1,.5-1.49.5-1.99.5ZM92.8,229.52l79.06,13.42v-70.6c0-.5,0-1,.5-1.49.5-.5,1-.5,1.49-.5,2.99,0,5.47.5,7.96.5h0c11.93,0,17.9-2.49,20.88-8.45,3.48-6.46,3.98-17.4,3.98-35.8,0-.99.99-1.99,1.99-1.99h13.43l-12.43-27.35v-1c1-4.47,1.49-8.95,1.49-13.42,0-38.78-31.82-70.6-70.6-70.6s-70.6,31.82-70.6,70.6c0,19.39,7.95,38.28,22.37,51.71.5.5.5,1,.5,1.49v93.47Z"/><path class="c" d="M173.84,247.42c-.5,0-1,0-1.49-.5l-63.14-56.68c-1-.5-1-1.99,0-2.98.5-1,1.99-1,2.99,0l63.14,57.18c1,.5,1,1.99,0,2.98h-1.49Z"/><path class="c" d="M133.07,197.7c-.5,0-.99,0-1.49-.5l-29.83-26.85c-1-.5-1-1.99,0-2.98.5-1,1.99-1,2.99,0l29.83,26.85c.99.5.99,1.99,0,2.98-.5.5-1,.5-1.5.5Z"/><path class="c" d="M147.49,62.46H53.03c-8.95,0-15.91-7.46-15.91-16.41s7.46-15.91,15.91-15.91c1,0,1.99,1,1.99,1.99s-1,1.99-1.99,1.99c-6.96,0-12.43,5.47-12.43,12.43s5.47,12.43,12.43,12.43h94.96c1,0,1.99,1,1.99,1.99-.5.5-1,1.49-2.49,1.49Z"/><path class="c" d="M140.03,71.91c-.5,0-1,0-1-.5-1-.5-1-1.99-.5-2.98l7.46-9.45c.5-.99,1.99-.99,2.98-.5,1,.5,1,1.99.5,2.98l-7.46,9.45c-.5.99-1,.99-1.99.99Z"/><path class="c" d="M147.49,62.46c-.5,0-1-.5-1.49-1l-7.46-9.45c-.5-.99-.5-1.99.5-2.98,1-.5,1.99-.5,2.99.5l7.46,9.45c.5,1,.5,1.99-.5,2.98-.5.5-1,.5-1.49.5Z"/><path class="c" d="M179.31,113.67c-6.47,0-11.93-5.47-11.93-11.93s5.47-11.93,11.93-11.93,11.43,5.47,11.43,11.93c0,6.96-4.97,11.93-11.43,11.93ZM179.31,94.28c-4.48,0-7.96,3.48-7.96,7.96s3.48,7.96,7.96,7.96,7.95-3.48,7.95-7.96c-.5-4.47-3.98-7.96-7.95-7.96Z"/><path class="c" d="M173.84,82.35h-65.13c-7.46,0-13.92-5.97-13.92-13.92,0-3.48.99-6.46,3.48-8.95v-2.49c0-8.45,6.96-15.91,15.91-15.91,1,0,1.99,0,2.99.5.5-8.45,6.96-15.41,15.91-15.41,4.97,0,9.45,1.99,12.43,5.96,1.99-.99,3.48-.99,5.47-.99,5.97,0,11.43,3.98,12.93,9.94,6.96.5,12.43,6.46,12.43,13.42h0c6.46,1,11.93,6.46,11.93,13.43-.5,8.45-6.96,14.42-14.42,14.42ZM113.68,45.56c-6.46,0-11.93,5.47-11.93,11.93,0,1,0,1.49.5,2.49,0,.5,0,1.49-.5,1.99-1.99,1.99-2.98,4.47-2.98,6.96,0,5.47,4.47,9.94,9.94,9.94h65.13c5.47,0,9.94-4.47,9.94-9.94s-4.47-9.94-9.94-9.94h0c-.5,0-1-.5-1.49-.5-.5-.5-.5-1-.5-1.49v-1.49c0-5.47-4.48-9.94-9.94-9.94h0c-1,0-1.99-.5-1.99-1.49-1-4.97-4.97-7.95-9.45-7.95-1.99,0-3.48.5-4.97,1.49-.99.5-1.99.5-2.49-.5-1.99-3.48-5.96-5.47-9.94-5.47-6.46,0-11.93,5.47-11.93,11.93v1.99c0,.5,0,1.49-1,1.99-1,.5-1.49.5-1.99.5-1.49-1.99-2.98-2.49-4.47-2.49Z"/><path class="c" d="M53.03,34.12c-1,0-1.99-.99-1.99-1.99s1-1.99,1.99-1.99c6.96,0,12.43-5.47,12.43-12.43s-5.47-12.43-12.43-12.43H10.76c-1,0-1.99-1-1.99-1.99s1-1.99,1.99-1.99h42.26c8.95,0,16.41,7.46,16.41,16.41-.5,8.95-7.46,16.41-16.41,16.41Z"/></g></svg>