<?xml version="1.0" encoding="UTF-8"?><svg id="a" xmlns="http://www.w3.org/2000/svg" viewBox="0 0 250 250"><defs><style>.c{fill:#2ca5bc;}</style></defs><g id="b"><path class="c" d="M143.44,216.23h-39.07c-10.61,0-19.29-8.68-19.29-19.29v-27.01c-17.84-12.54-28.45-33.28-28.45-54.98,0-37.14,30.38-67.52,67.52-67.52s67.52,30.38,67.52,67.52c0,21.7-10.61,42.44-28.46,54.98v27.01c-.48,10.61-9.16,19.29-19.77,19.29ZM123.66,50.8c-35.21,0-63.66,28.46-63.66,63.66,0,20.74,10.13,40.51,27.49,52.57.49.48.97.97.97,1.45v27.97c0,8.68,6.75,15.43,15.43,15.43h39.06c8.69,0,15.43-6.75,15.43-15.43v-27.97c0-.48.49-1.45.97-1.45,17.36-12.06,27.49-31.35,27.49-52.57.48-35.21-27.97-63.66-63.18-63.66Z"/><path class="c" d="M149.71,229.73h-45.34c-.96,0-1.93-.96-1.93-1.93v-13.99c0-.97.97-1.93,1.93-1.93h45.34c.97,0,1.93.96,1.93,1.93v13.99c0,1.45-.97,1.93-1.93,1.93ZM105.82,225.88h41.96v-10.13h-41.96v10.13Z"/><path class="c" d="M142.95,243.72h-32.31c-.97,0-1.93-.97-1.93-1.93v-13.99c0-.96.97-1.93,1.93-1.93h32.31c.97,0,1.93.97,1.93,1.93v13.99c0,.97-.97,1.93-1.93,1.93ZM112.57,239.86h28.46v-10.13h-28.46v10.13h0Z"/><path class="c" d="M141.99,46.94h-.49c-.97-.48-1.45-1.45-1.45-2.41l3.38-12.54c.48-.96,1.45-1.45,2.41-1.45.97.48,1.45,1.45,1.45,2.41l-3.38,12.54c0,.96-.97,1.45-1.93,1.45Z"/><path class="c" d="M159.35,54.18q-.48,0-.97-.48c-.97-.48-1.45-1.93-.48-2.41l6.27-11.09c.48-.97,1.93-1.45,2.41-.48.97.48,1.45,1.93.48,2.41l-6.27,11.09c0,.48-.48.96-1.45.96Z"/><path class="c" d="M174.3,65.75c-.48,0-.96,0-1.45-.48-.97-.97-.97-1.93,0-2.89l9.17-9.16c.97-.97,1.93-.97,2.89,0,.97.96.97,1.93,0,2.89l-9.16,9.17c-.49,0-.97.48-1.45.48Z"/><path class="c" d="M185.88,80.22c-.48,0-1.45-.48-1.45-.96-.49-.97,0-1.93.48-2.41l11.09-6.27c.97-.48,1.93,0,2.41.48.49.97,0,1.93-.48,2.41l-11.09,6.27c-.49.48-.97.48-.97.48Z"/><path class="c" d="M192.63,97.58c-.97,0-1.45-.48-1.93-1.45-.48-.97.48-1.93,1.45-2.41l12.54-3.38c.96-.48,1.93.48,2.41,1.45.48.96-.49,1.93-1.45,2.41l-12.06,3.37h-.96Z"/><path class="c" d="M208.06,116.39h-13.02c-.97,0-1.93-.96-1.93-1.93s.97-1.93,1.93-1.93h13.02c.97,0,1.93.97,1.93,1.93s-.97,1.93-1.93,1.93Z"/><path class="c" d="M205.17,138.1h-.48l-12.54-3.37c-.97-.48-1.45-1.45-1.45-2.41.48-.97,1.45-1.45,2.41-1.45l12.54,3.38c.97.48,1.45,1.45,1.45,2.41-.49.97-.97,1.45-1.93,1.45Z"/><path class="c" d="M196.97,158.35q-.48,0-.97-.48l-11.09-6.27c-.97-.48-1.45-1.45-.97-2.41.49-.97,1.93-1.45,2.41-.48l11.1,6.27c.96.48,1.45,1.93.48,2.41,0,.48-.48.97-.97.97Z"/><path class="c" d="M183.47,175.72c-.48,0-.97,0-1.45-.48l-9.17-9.16c-.97-.97-.97-1.93,0-2.89.97-.97,1.93-.97,2.9,0l9.16,9.16c.97.97.97,1.93,0,2.89-.48.48-.97.48-1.45.48Z"/><path class="c" d="M63.86,175.72c-.49,0-.97,0-1.45-.48-.97-.97-.97-1.93,0-2.89l9.16-9.16c.97-.97,1.93-.97,2.9,0,.96.97.96,1.93,0,2.89l-9.17,9.16c-.48.48-.97.48-1.45.48Z"/><path class="c" d="M50.36,158.35c-.49,0-1.45-.48-1.45-.97-.48-.96,0-1.93.49-2.41l11.09-6.27c.97-.48,1.93,0,2.41.48.48.96,0,1.93-.48,2.41l-11.1,6.27c0,.48-.48.48-.96.48Z"/><path class="c" d="M42.16,138.1c-.97,0-1.45-.48-1.93-1.45-.48-.97.49-1.93,1.45-2.41l12.54-3.38c.97-.48,1.93.48,2.41,1.45.48.96-.49,1.93-1.45,2.41l-12.54,3.37h-.48Z"/><path class="c" d="M52.28,116.39h-13.02c-.96,0-1.93-.96-1.93-1.93s.97-1.93,1.93-1.93h13.02c.97,0,1.93.97,1.93,1.93s-.97,1.93-1.93,1.93Z"/><path class="c" d="M54.69,97.58h-.48l-12.54-3.37c-.96-.48-1.45-1.45-1.45-2.41s1.45-1.45,2.41-1.45l12.54,3.38c.96.48,1.45,1.45,1.45,2.41-.49.96-1.45,1.45-1.93,1.45Z"/><path class="c" d="M61.45,80.22q-.49,0-.97-.48l-11.09-6.27c-.97-.48-1.45-1.93-.49-2.41.49-.96,1.93-1.45,2.41-.48l11.1,6.27c.96.48,1.45,1.93.48,2.41,0,.96-.48.96-1.45.96Z"/><path class="c" d="M73.02,65.75c-.48,0-.96,0-1.45-.48l-9.16-9.17c-.97-.96-.97-1.93,0-2.89.96-.97,1.93-.97,2.89,0l9.17,9.16c.96.96.96,1.93,0,2.89-.49,0-.97.48-1.45.48Z"/><path class="c" d="M87.97,54.18c-.49,0-1.45-.48-1.45-.96l-6.27-11.09c-.48-.96,0-1.93.49-2.41.97-.48,1.93,0,2.41.48l6.27,11.09c.48.97,0,1.93-.48,2.41-.49.48-.97.48-.97.48Z"/><path class="c" d="M105.34,46.94c-.97,0-1.45-.48-1.93-1.45l-3.38-12.54c-.49-.97.48-1.93,1.45-2.41.97-.48,1.93.48,2.41,1.45l3.38,12.54c.48.97-.49,1.93-1.45,2.41h-.49Z"/><path class="c" d="M110.64,165.59h0c-9.17,0-16.4-2.41-21.7-7.72-7.23-7.23-9.65-18.81-6.75-33.76,0-.96.97-1.45,1.45-1.45,4.34-.97,8.2-1.45,11.58-1.45,9.16,0,16.88,2.41,22.18,7.72,7.23,7.23,9.65,18.81,6.75,33.76,0,.97-.97,1.45-1.45,1.45-4.34.96-8.2,1.45-12.06,1.45ZM85.56,126.04c-2.41,13.02-.49,22.67,5.79,28.94,4.34,4.34,11.09,6.75,19.29,6.75h0c2.89,0,6.27-.48,9.65-.97,2.41-13.02.48-22.67-5.79-28.94-4.34-4.34-11.09-6.75-19.29-6.75-2.9,0-6.27.48-9.65.96Z"/><path class="c" d="M123.66,216.23c-.96,0-1.93-.97-1.93-1.93V7.4c0-.97.97-1.93,1.93-1.93s1.93.97,1.93,1.93v206.9c0,.96-.97,1.93-1.93,1.93Z"/><path class="c" d="M122.22,164.14c-.48,0-.97,0-1.45-.48l-25.56-26.53c-.97-.97-.49-1.93,0-2.89.97-.97,1.93-.48,2.89,0l25.56,26.53c.97.97.49,1.93,0,2.89-.48.48-.96.48-1.45.48Z"/><path class="c" d="M93.76,149.19c-.97,0-1.45-.48-1.93-1.45-.48-.96,0-1.93.97-2.41l9.65-3.37c.97-.48,1.93,0,2.41.96.48.97,0,1.93-.97,2.41l-9.65,3.38-.48.48Z"/><path class="c" d="M113.54,155.46h0c-.97,0-1.93-.96-1.93-1.93l.97-13.99c0-.97.97-1.93,1.93-1.93s1.93.96,1.93,1.93l-.96,13.99c0,.97-.97,1.93-1.93,1.93Z"/><path class="c" d="M86.04,103.86c-3.86,0-6.75-2.89-6.75-6.75s2.89-6.75,6.75-6.75,6.75,2.89,6.75,6.75-2.9,6.75-6.75,6.75ZM86.04,94.21c-1.45,0-2.89,1.45-2.89,2.89s1.45,2.89,2.89,2.89,2.9-1.45,2.9-2.89c0-1.93-1.45-2.89-2.9-2.89Z"/><path class="c" d="M160.8,83.12c-3.86,0-6.75-2.89-6.75-6.75s2.89-6.75,6.75-6.75,6.75,2.89,6.75,6.75c.48,3.86-2.9,6.75-6.75,6.75ZM160.8,73.47c-1.45,0-2.89,1.45-2.89,2.89s1.45,2.89,2.89,2.89,2.9-1.45,2.9-2.89c.48-1.45-.97-2.89-2.9-2.89Z"/><path class="c" d="M135.72,165.59c-3.86,0-7.71-.48-11.57-1.45-.97,0-1.45-.97-1.45-1.45-2.9-14.47-.49-26.53,6.75-33.76,5.31-5.31,12.54-7.72,22.19-7.72,3.86,0,7.71.48,11.57,1.45.97,0,1.45.96,1.45,1.45,2.9,14.95.49,26.53-6.75,33.76-5.31,4.82-12.54,7.72-22.19,7.72ZM126.07,160.77c3.38.48,6.75.97,9.65.97,8.2,0,14.47-2.41,19.29-6.75,6.27-6.27,8.2-15.91,5.79-28.94-3.38-.48-6.75-.96-9.65-.96-8.2,0-14.95,2.41-19.29,6.75-6.27,6.27-8.2,16.4-5.79,28.94Z"/><path class="c" d="M124.63,164.14c-.48,0-.97,0-1.45-.48-.97-.97-.97-1.93,0-2.89l25.56-26.53c.97-.97,1.93-.97,2.9,0,.96.97.96,1.93,0,2.89l-25.57,26.53c-.48.48-.96.48-1.45.48Z"/><path class="c" d="M153.08,149.19h-.49l-9.65-3.38c-.96-.48-1.45-1.45-.96-2.41.48-.96,1.45-1.45,2.41-.96l9.65,3.37c.96.48,1.45,1.45.96,2.41-.48.48-1.45.97-1.93.97Z"/><path class="c" d="M132.83,155.46c-.97,0-1.93-.96-1.93-1.93l-.96-13.99c0-.97.96-1.93,1.93-1.93s1.93.96,1.93,1.93l.97,13.99c0,.97-.49,1.93-1.93,1.93h0Z"/><path class="c" d="M111.6,22.35c-.48,0-.96,0-1.45-.48-.97-.48-.97-1.93,0-2.89l12.06-13.51c.49-.96,1.93-.96,2.9,0,.96.48.96,1.93,0,2.89l-12.06,13.51c-.49.48-.97.48-1.45.48Z"/><path class="c" d="M135.72,22.35c-.48,0-.96,0-1.45-.48l-12.06-13.51c-.48-.96-.48-1.93,0-2.89.97-.48,1.93-.48,2.9,0l12.06,13.51c.48.96.48,1.93,0,2.89-.49.48-.97.48-1.45.48Z"/></g></svg>