<?xml version="1.0" encoding="UTF-8"?><svg id="a" xmlns="http://www.w3.org/2000/svg" viewBox="0 0 250 250"><defs><style>.b{fill:#fff;}</style></defs><path class="b" d="M198.74,233.45H27.22c-.07,0-.14,0-.2,0-12.71-.11-23.02-10.49-23.02-23.23v-23.23h40.39V16.55h177.61l-.03,193.73c-.08,12.79-10.5,23.18-23.23,23.18ZM42.73,227.45h156.01c9.44,0,17.17-7.71,17.23-17.19l.03-187.71H50.39v187.73c-.02,6.81-2.97,12.93-7.65,17.18ZM10,192.99v17.23c0,9.5,7.73,17.23,17.23,17.23s17.14-7.71,17.16-17.18v-17.28H10Z"/><path class="b" d="M198.13,86.74h-122.04c-1.66,0-3-1.34-3-3s1.34-3,3-3h122.04c1.66,0,3,1.34,3,3s-1.34,3-3,3Z"/><path class="b" d="M198.13,112.72h-122.04c-1.66,0-3-1.34-3-3s1.34-3,3-3h122.04c1.66,0,3,1.34,3,3s-1.34,3-3,3Z"/><path class="b" d="M198.13,140.23h-122.04c-1.66,0-3-1.34-3-3s1.34-3,3-3h122.04c1.66,0,3,1.34,3,3s-1.34,3-3,3Z"/><path class="b" d="M198.13,166.21h-122.04c-1.66,0-3-1.34-3-3s1.34-3,3-3h122.04c1.66,0,3,1.34,3,3s-1.34,3-3,3Z"/><path class="b" d="M222.75,233.45H51.23c-.07,0-.14,0-.2,0-12.71-.11-23.02-10.49-23.02-23.23v-23.23h40.39V16.55h177.61l-.03,193.73c-.08,12.79-10.5,23.18-23.23,23.18ZM66.74,227.45h156.01c9.44,0,17.17-7.71,17.23-17.19l.03-187.71H74.39v187.73c-.02,6.81-2.97,12.93-7.65,17.18ZM34,192.99v17.23c0,9.5,7.73,17.23,17.23,17.23s17.14-7.71,17.16-17.18v-17.28h-34.39Z"/><path class="b" d="M222.13,86.74h-122.04c-1.66,0-3-1.34-3-3s1.34-3,3-3h122.04c1.66,0,3,1.34,3,3s-1.34,3-3,3Z"/><path class="b" d="M222.13,112.72h-122.04c-1.66,0-3-1.34-3-3s1.34-3,3-3h122.04c1.66,0,3,1.34,3,3s-1.34,3-3,3Z"/><path class="b" d="M222.13,140.23h-122.04c-1.66,0-3-1.34-3-3s1.34-3,3-3h122.04c1.66,0,3,1.34,3,3s-1.34,3-3,3Z"/><path class="b" d="M222.13,166.21h-122.04c-1.66,0-3-1.34-3-3s1.34-3,3-3h122.04c1.66,0,3,1.34,3,3s-1.34,3-3,3Z"/></svg>