<?xml version="1.0" encoding="UTF-8"?><svg id="a" xmlns="http://www.w3.org/2000/svg" viewBox="0 0 250 250"><defs><style>.c{fill:#fff;}</style></defs><g id="b"><path class="c" d="M222.68,158.14h-.48l-19.62-5.26c-.96-.48-1.43-1.43-1.43-2.39l12.92-48.33c.48-.96,1.43-1.44,2.39-1.44l19.62,5.26c.48,0,.96.48.96.96.48.48.48.96,0,1.43l-12.92,48.33c0,.48-.48.96-.96.96,0,.48-.48.48-.48.48ZM204.97,149.52l16.27,4.31,11.96-44.5-16.27-4.31-11.96,44.5Z"/><path class="c" d="M103.05,150.48c-.48,0-1.43-.48-1.43-.96-.48-.48-.48-1.44,0-1.91,8.14-11.49,15.31-27.28,20.1-44.5,4.3-16.75,6.22-33.98,4.79-48.33,0-.48.48-1.43.95-1.91.48-.48,1.44-.48,1.92,0l86.13,52.64c.48.48.96,1.44.96,1.91l-10.53,39.24c0,.96-.96,1.43-1.92,1.43l-100.97,2.39h0ZM130.32,58.13c.96,13.88-.96,30.15-5.27,45.94-4.3,15.79-11,31.1-18.66,42.59l95.7-2.39,9.57-35.89-81.35-50.24Z"/><path class="c" d="M74.34,170.1c-1.43,0-2.87,0-4.31-.48-9.57-2.39-16.27-12.92-18.66-29.19-2.39-15.79-.96-35.41,4.3-55.03,4.79-18.19,12.44-34.93,21.53-46.9,9.09-12.44,19.14-19.14,28.23-19.14,1.43,0,2.87,0,4.31.48,5.26,1.43,9.57,4.79,12.44,10.53,8.61,15.31,9.57,44.02,1.43,73.21-4.79,18.18-12.44,34.93-21.53,46.89-8.61,12.92-18.66,19.62-27.75,19.62ZM105.44,23.2c-7.65,0-16.75,6.22-25.36,17.7-8.61,11.96-16.27,28.23-21.06,45.94-5.26,19.14-6.7,38.28-4.3,53.59,2.39,14.83,8.13,23.93,15.79,25.84,8.61,2.39,19.14-3.83,28.71-17.23,8.61-11.96,16.27-28.23,21.05-45.94,7.66-28.23,7.18-55.98-1.43-70.34-2.87-4.79-6.22-7.66-10.53-9.09-.48-.48-1.43-.48-2.87-.48Z"/><path class="c" d="M61.42,163.88c-.48,0-.96-.48-1.43-.48-11.49-13.88-13.4-44.98-4.31-77.52,8.62-32.54,25.84-58.86,42.59-65.08.96-.48,1.43,0,1.92.48,11.48,13.88,13.4,44.98,4.3,77.52-8.61,32.54-25.84,58.86-42.59,65.08h-.48ZM98.26,24.63c-14.83,6.7-31.1,31.58-39.24,61.73-8.14,30.15-6.7,59.81,2.87,73.21,14.83-6.7,31.1-31.58,39.23-61.73,8.14-30.15,6.7-59.81-2.87-73.21Z"/><path class="c" d="M100.65,108.85q-.48,0,0,0c-2.39,0-4.79-.48-7.65-1.44-12.44-3.35-20.58-10.53-19.14-16.75.95-4.31,6.22-6.7,13.87-6.7,3.35,0,7.18.48,11,1.44,2.39.48,4.79,1.43,7.18,2.39.96.48,1.44,1.43.96,1.91-.48,2.87-1.43,5.74-1.91,8.61-.96,3.35-1.92,6.22-2.39,8.61-.48,1.43-1.44,1.91-1.92,1.91ZM87.73,87.8c-5.74,0-9.57,1.43-10.53,3.83-.95,3.35,5.74,9.57,16.27,12.44,1.92.48,3.83.96,5.26.96.48-1.91,1.44-4.31,1.92-7.18.48-2.39,1.43-4.79,1.92-7.18-1.44-.48-3.35-1.43-5.27-1.91-2.87-.48-6.22-.96-9.57-.96Z"/><path class="c" d="M155.68,215.08h-.96l-17.71-8.13c-.48,0-.95-.48-.95-.96v-1.43l32.06-57.9c.48-.48.96-.96,1.44-.96l22.49-.96c.48,0,1.44.48,1.92.96.48.48.48,1.44,0,1.92l-36.85,66.51c0,.48-.96.96-1.43.96ZM140.37,204.55l14.36,6.22,33.98-62.21-18.19.96-30.15,55.03Z"/><path class="c" d="M33.19,77.27h-.48l-19.62-5.26c-.96-.48-1.43-1.43-1.43-2.39s1.43-1.43,2.39-1.43l19.62,5.26c.96.48,1.43,1.43,1.43,2.39-.48.48-1.43,1.43-1.91,1.43Z"/><path class="c" d="M28.88,101.19H8.78c-.96,0-1.91-.96-1.91-1.91s.95-1.91,1.91-1.91h20.1c.96,0,1.92.96,1.92,1.91s-.96,1.91-1.92,1.91Z"/><path class="c" d="M11.65,130.86c-.96,0-1.44-.48-1.92-1.44-.48-.96.48-1.91,1.43-2.39l19.62-5.26c.95-.48,1.91.48,2.39,1.44.48.96-.48,1.91-1.44,2.39l-19.62,5.26h-.48Z"/><path class="c" d="M58.55,36.12c-.48,0-.96,0-1.43-.48l-14.36-14.36c-.96-.96-.96-1.91,0-2.87.95-.96,1.91-.96,2.87,0l14.36,14.36c.96.96.96,1.91,0,2.87-.48,0-.96.48-1.43.48Z"/><path class="c" d="M43.23,54.78q-.48,0-.96-.48l-17.71-10.05c-.95-.48-1.43-1.91-.48-2.39.48-.96,1.92-1.44,2.39-.48l17.71,10.05c.96.48,1.43,1.91.48,2.39,0,.48-.96.96-1.43.96Z"/><path class="c" d="M226.03,222.26H63.33c-.96,0-1.92-.96-1.92-1.91s.96-1.91,1.92-1.91h162.21c.96,0,1.92.96,1.92,1.91s-.48,1.91-1.43,1.91Z"/><path class="c" d="M146.59,232.31H34.62c-.96,0-1.92-.96-1.92-1.91s.96-1.91,1.92-1.91h111.97c.96,0,1.92.96,1.92,1.91s-.96,1.91-1.92,1.91Z"/><path class="c" d="M213.58,232.31h-29.66c-.96,0-1.92-.96-1.92-1.91s.96-1.91,1.92-1.91h29.66c.96,0,1.92.96,1.92,1.91s-.96,1.91-1.92,1.91Z"/><path class="c" d="M147.07,190.68h-.96c-4.79-2.39-7.18-7.18-6.22-11.96.96-5.74,6.7-10.05,13.4-10.05h1.92c.48,0,1.43,0,1.91.48.48,0,.96.48,1.43.96v1.44l-10.05,18.18c-.48.48-.96.96-1.43.96ZM153.29,172.01c-4.79,0-9.09,2.87-9.57,7.18-.48,2.39.48,5.26,2.87,7.18l7.66-13.88q-.48-.48-.96-.48Z"/><path class="c" d="M209.76,127.03q-.48,0-.96-.48l-64.12-37.32c-.96-.48-1.43-1.91-.48-2.39.48-.96,1.92-1.43,2.39-.48l64.12,37.33c.96.48,1.43,1.91.48,2.39-.48.48-.95.96-1.43.96Z"/><path class="c" d="M235.12,149.05h-.48l-9.57-2.39c-.96-.48-1.43-1.43-1.43-2.39l6.22-22.97c.48-.96,1.43-1.44,2.39-1.44l9.57,2.39c.48,0,.96.48.96.96.48.48.48.96,0,1.43l-6.22,22.97c.48.48-.48,1.43-1.44,1.43ZM227.94,143.3l5.74,1.44,5.27-19.62-5.74-1.43-5.27,19.62Z"/><path class="c" d="M200.19,100.71q-.48,0-.96-.48l-57.9-35.41c-.48-.48-.96-.48-.96-1.43,0-.48,0-.96.48-1.44,3.35-5.26,9.57-8.13,18.18-8.13,7.65,0,16.27,2.39,23.93,7.18,8.14,4.79,14.83,11,18.66,18.18,3.83,7.18,4.31,14.36,1.44,19.62,0,.48-.48.48-.48.96-.96.48-1.91.96-2.39.96ZM145.16,62.91l54.55,33.5c4.3-9.09-3.83-22.97-18.66-31.58-7.18-4.31-15.31-6.7-22.01-6.7-6.22,0-11,1.43-13.88,4.79Z"/></g></svg>