<?xml version="1.0" encoding="UTF-8"?><svg id="a" xmlns="http://www.w3.org/2000/svg" viewBox="0 0 250 250"><defs><style>.b{fill:#fff;}</style></defs><path class="b" d="M124.15,83.44c-7.84,0-14.22-6.38-14.22-14.22s6.38-14.22,14.22-14.22,14.22,6.38,14.22,14.22-6.38,14.22-14.22,14.22ZM124.15,61.34c-4.35,0-7.88,3.54-7.88,7.88s3.54,7.88,7.88,7.88,7.88-3.54,7.88-7.88-3.54-7.88-7.88-7.88Z"/><path class="b" d="M148.39,112.42c-1.75,0-3.17-1.42-3.17-3.17,0-7.59-3.96-14.43-10.44-18.21-6.65,3.06-14.65,3.05-21.26,0-6.48,3.77-10.45,10.61-10.45,18.21,0,1.75-1.42,3.17-3.17,3.17s-3.17-1.42-3.17-3.17c0-10.56,5.88-19.99,15.36-24.63l1.48-.72,1.44.8c5.58,3.08,12.65,3.1,18.28,0l1.44-.79,1.48.73c9.46,4.66,15.34,14.09,15.34,24.62,0,1.75-1.42,3.17-3.17,3.17Z"/><path class="b" d="M68.58,215.51c-7.84,0-14.22-6.38-14.22-14.22s6.38-14.22,14.22-14.22,14.22,6.38,14.22,14.22-6.38,14.22-14.22,14.22ZM68.58,193.41c-4.35,0-7.88,3.54-7.88,7.88s3.54,7.88,7.88,7.88,7.88-3.54,7.88-7.88-3.54-7.88-7.88-7.88Z"/><path class="b" d="M92.83,244.49c-1.75,0-3.17-1.42-3.17-3.17,0-7.59-3.96-14.44-10.44-18.21-6.66,3.07-14.65,3.06-21.26,0-6.48,3.76-10.45,10.61-10.45,18.21,0,1.75-1.42,3.17-3.17,3.17s-3.17-1.42-3.17-3.17c0-10.56,5.88-20,15.36-24.63l1.48-.72,1.44.8c5.58,3.08,12.65,3.09,18.29,0l1.44-.79,1.48.73c9.46,4.65,15.34,14.09,15.34,24.62,0,1.75-1.42,3.17-3.17,3.17Z"/><path class="b" d="M124.92,215.51c-7.84,0-14.22-6.38-14.22-14.22s6.38-14.22,14.22-14.22,14.22,6.38,14.22,14.22-6.38,14.22-14.22,14.22ZM124.92,193.41c-4.35,0-7.88,3.54-7.88,7.88s3.54,7.88,7.88,7.88,7.88-3.54,7.88-7.88-3.54-7.88-7.88-7.88Z"/><path class="b" d="M149.16,244.49c-1.75,0-3.17-1.42-3.17-3.17,0-7.59-3.96-14.44-10.44-18.21-6.65,3.07-14.65,3.06-21.26,0-6.48,3.76-10.45,10.61-10.45,18.21,0,1.75-1.42,3.17-3.17,3.17s-3.17-1.42-3.17-3.17c0-10.56,5.88-20,15.36-24.63l1.48-.72,1.44.8c5.58,3.08,12.65,3.09,18.29,0l1.44-.79,1.48.73c9.46,4.65,15.34,14.09,15.34,24.62,0,1.75-1.42,3.17-3.17,3.17Z"/><path class="b" d="M181.42,215.51c-7.84,0-14.22-6.38-14.22-14.22s6.38-14.22,14.22-14.22,14.22,6.38,14.22,14.22-6.38,14.22-14.22,14.22ZM181.42,193.41c-4.35,0-7.88,3.54-7.88,7.88s3.54,7.88,7.88,7.88,7.88-3.54,7.88-7.88-3.54-7.88-7.88-7.88Z"/><path class="b" d="M205.66,244.49c-1.75,0-3.17-1.42-3.17-3.17,0-7.59-3.96-14.44-10.44-18.21-6.66,3.07-14.65,3.06-21.26,0-6.48,3.76-10.45,10.61-10.45,18.21,0,1.75-1.42,3.17-3.17,3.17s-3.17-1.42-3.17-3.17c0-10.56,5.88-20,15.36-24.63l1.48-.72,1.44.8c5.58,3.08,12.65,3.09,18.29,0l1.44-.79,1.48.73c9.46,4.65,15.34,14.09,15.34,24.62,0,1.75-1.42,3.17-3.17,3.17Z"/><path class="b" d="M165.6,126.33h-81.35v-20.19h81.35v20.19ZM90.58,119.99h68.68v-7.51h-68.68v7.51Z"/><path class="b" d="M160.8,173.02h-71.77v-49.86c0-1.75,1.42-3.17,3.17-3.17s3.17,1.42,3.17,3.17v43.53h59.09v-43.53c0-1.75,1.42-3.17,3.17-3.17s3.17,1.42,3.17,3.17v49.86Z"/><path class="b" d="M145.42,77.78l2.7-21.34c-3.77-5.44-5.76-11.79-5.76-18.46,0-17.9,14.57-32.47,32.47-32.47s32.47,14.57,32.47,32.47-14.57,32.47-32.47,32.47c-3.3,0-6.55-.5-9.68-1.47l-19.74,8.8ZM174.84,11.85c-14.41,0-26.13,11.72-26.13,26.13,0,5.72,1.82,11.16,5.25,15.71l.77,1.03-1.61,12.69,11.75-5.23,1.2.43c2.81,1,5.77,1.51,8.77,1.51,14.41,0,26.13-11.72,26.13-26.13s-11.72-26.13-26.13-26.13Z"/><path class="b" d="M187.36,33.71h-25.04c-1.75,0-3.17-1.42-3.17-3.17s1.42-3.17,3.17-3.17h25.04c1.75,0,3.17,1.42,3.17,3.17s-1.42,3.17-3.17,3.17Z"/><path class="b" d="M187.36,42.25h-25.04c-1.75,0-3.17-1.42-3.17-3.17s1.42-3.17,3.17-3.17h25.04c1.75,0,3.17,1.42,3.17,3.17s-1.42,3.17-3.17,3.17Z"/><path class="b" d="M176.77,50.79h-14.45c-1.75,0-3.17-1.42-3.17-3.17s1.42-3.17,3.17-3.17h14.45c1.75,0,3.17,1.42,3.17,3.17s-1.42,3.17-3.17,3.17Z"/></svg>