<?xml version="1.0" encoding="UTF-8"?><svg id="a" xmlns="http://www.w3.org/2000/svg" viewBox="0 0 250 250"><defs><style>.b{fill:#2ca5bc;}</style></defs><path class="b" d="M202.41,240.21H4.03V65.06L59.3,9.79h143.11v230.42ZM10.21,234.03h186.03V15.97H61.86L10.21,67.62v166.41Z"/><polygon class="b" points="63.67 69.43 7.12 69.43 7.12 63.25 57.49 63.25 57.49 12.88 63.67 12.88 63.67 69.43"/><path class="b" d="M176.59,139.7h-53.63V63.25h53.63v76.45ZM129.14,133.52h41.27v-64.1h-41.27v64.1Z"/><rect class="b" x="31.15" y="133.52" width="65.47" height="6.18"/><rect class="b" x="31.15" y="161.75" width="142.35" height="6.18"/><rect class="b" x="31.15" y="189.98" width="142.35" height="6.18"/><rect class="b" x="31.15" y="105.29" width="65.47" height="6.18"/><path class="b" d="M217.2,240l.33-107.46,13.97-27.8,14.47,26.73-.33,108.07-28.44.47ZM223.7,134.02l-.3,99.7,16.08-.26.31-100.44-8.08-14.93-8,15.93Z"/></svg>