<?xml version="1.0" encoding="UTF-8"?><svg id="a" xmlns="http://www.w3.org/2000/svg" viewBox="0 0 250 250"><defs><style>.b{fill:#fff;}</style></defs><path class="b" d="M144.76,131.8l7.9-25.35c-8.36-10.9-12.08-24.34-10.49-38.04,3.35-28.81,29.51-49.52,58.32-46.17h0c13.95,1.62,26.44,8.58,35.16,19.6,8.72,11.02,12.63,24.77,11.01,38.72-1.62,13.95-8.58,26.44-19.6,35.16-11.02,8.72-24.76,12.64-38.72,11.01-7.27-.85-14.12-3.12-20.38-6.78l-23.19,11.85ZM168.25,112.87l1.49.93c5.88,3.7,12.38,5.98,19.32,6.79,12.31,1.43,24.45-2.02,34.17-9.71,9.72-7.7,15.86-18.72,17.3-31.03,2.96-25.42-15.32-48.51-40.74-51.46-25.4-2.95-48.51,15.32-51.46,40.74-1.46,12.57,2.15,24.91,10.18,34.73l1.05,1.29-4.51,14.47,13.21-6.74Z"/><path class="b" d="M87.22,140.27l-19.72-10.07c-5.05,2.9-10.57,4.71-16.42,5.39-23.64,2.75-45.06-14.23-47.8-37.84-1.33-11.44,1.87-22.71,9.02-31.74s17.38-14.73,28.82-16.06c11.43-1.33,22.71,1.87,31.74,9.02,9.03,7.15,14.73,17.38,16.06,28.82,1.29,11.12-1.69,22.04-8.41,30.94l6.71,21.55ZM46.17,55.84c-1.44,0-2.89.08-4.34.25-9.8,1.14-18.57,6.03-24.69,13.76-6.12,7.73-8.87,17.39-7.73,27.19,2.35,20.23,20.71,34.77,40.95,32.42,5.52-.64,10.7-2.46,15.37-5.4l1.49-.93,9.72,4.96-3.32-10.66,1.05-1.29c6.39-7.81,9.26-17.63,8.1-27.63-1.14-9.8-6.03-18.57-13.76-24.69-6.59-5.22-14.57-7.98-22.85-7.98Z"/><path class="b" d="M75.39,186.08c-10.89,0-19.75-8.86-19.75-19.75s8.86-19.75,19.75-19.75,19.75,8.86,19.75,19.75-8.86,19.75-19.75,19.75ZM75.39,152.77c-7.48,0-13.56,6.09-13.56,13.57s6.09,13.56,13.56,13.56,13.56-6.09,13.56-13.56-6.09-13.57-13.56-13.57Z"/><path class="b" d="M109.32,228.11H41.46l-.63-2.27c-.84-3.06-1.27-6.23-1.27-9.44,0-12.42,6.29-23.77,16.82-30.37l2.23-1.39,1.74,1.97c3.8,4.32,9.29,6.8,15.05,6.8s11.24-2.48,15.05-6.8l1.74-1.97,2.23,1.39c10.53,6.6,16.82,17.95,16.82,30.37,0,3.21-.43,6.38-1.27,9.44l-.63,2.27ZM46.26,221.93h58.26c.35-1.81.52-3.66.52-5.52,0-9.45-4.4-18.15-11.89-23.74-4.82,4.43-11.15,6.92-17.76,6.92s-12.94-2.5-17.76-6.92c-7.49,5.59-11.89,14.29-11.89,23.74,0,1.86.17,3.72.52,5.52Z"/><path class="b" d="M158.41,186.08c-10.89,0-19.75-8.86-19.75-19.75s8.86-19.75,19.75-19.75,19.75,8.86,19.75,19.75-8.86,19.75-19.75,19.75ZM158.41,152.77c-7.48,0-13.57,6.09-13.57,13.57s6.09,13.56,13.57,13.56,13.56-6.09,13.56-13.56-6.09-13.57-13.56-13.57Z"/><path class="b" d="M192.35,228.11h-67.87l-.63-2.27c-.84-3.06-1.27-6.23-1.27-9.44,0-12.42,6.29-23.77,16.82-30.37l2.23-1.39,1.74,1.97c3.8,4.32,9.29,6.8,15.05,6.8s11.24-2.48,15.05-6.8l1.74-1.97,2.23,1.39c10.53,6.6,16.82,17.95,16.82,30.37,0,3.21-.43,6.38-1.27,9.44l-.63,2.27ZM129.29,221.93h58.26c.35-1.81.52-3.66.52-5.52,0-9.45-4.4-18.15-11.89-23.74-4.82,4.43-11.15,6.92-17.76,6.92s-12.94-2.5-17.76-6.92c-7.49,5.59-11.89,14.29-11.89,23.74,0,1.86.17,3.72.52,5.52Z"/><path class="b" d="M177.43,84.06c-4.81,0-8.72-3.91-8.72-8.72s3.91-8.72,8.72-8.72,8.72,3.91,8.72,8.72-3.91,8.72-8.72,8.72ZM177.43,72.81c-1.4,0-2.53,1.14-2.53,2.53s1.14,2.53,2.53,2.53,2.53-1.14,2.53-2.53-1.14-2.53-2.53-2.53Z"/><path class="b" d="M196.12,84.06c-4.81,0-8.72-3.91-8.72-8.72s3.91-8.72,8.72-8.72,8.72,3.91,8.72,8.72-3.91,8.72-8.72,8.72ZM196.12,72.81c-1.4,0-2.53,1.14-2.53,2.53s1.14,2.53,2.53,2.53,2.53-1.14,2.53-2.53-1.14-2.53-2.53-2.53Z"/><path class="b" d="M215.36,84.06c-4.81,0-8.72-3.91-8.72-8.72s3.91-8.72,8.72-8.72,8.72,3.91,8.72,8.72-3.91,8.72-8.72,8.72ZM215.36,72.81c-1.4,0-2.53,1.14-2.53,2.53s1.14,2.53,2.53,2.53,2.53-1.14,2.53-2.53-1.14-2.53-2.53-2.53Z"/></svg>