<?xml version="1.0" encoding="UTF-8"?><svg id="a" xmlns="http://www.w3.org/2000/svg" viewBox="0 0 250 250"><defs><style>.c{fill:#fff;}</style></defs><g id="b"><path class="c" d="M174.86,175.34h-16.3c-.96,0-1.92-.96-1.92-1.91s.96-1.92,1.92-1.92h14.38v-67.12l-26.85-10.55-11.99,19.66c-.48.48-.96.96-1.44.96s-.96,0-1.44-.48l-5.75-5.27-6.71,6.71c-.48.48-.96.48-1.44.48s-.96-.48-1.44-.96l-11.5-21.1-26.85,10.55v67.12h14.38c.96,0,1.92.96,1.92,1.92s-.48,1.91-1.44,1.91h-16.3c-.96,0-1.91-.96-1.91-1.91v-70.48c0-.96.48-1.44,1.44-1.92l29.24-11.5c.96-.48,1.92,0,2.4.96l11.03,20.13,6.24-5.75c.96-.48,1.91-.96,2.4,0l5.27,5.27,11.51-19.18c.48-.96,1.44-.96,2.4-.96l29.24,11.51c.96.48,1.44.96,1.44,1.91v70.48c0,.48-.96,1.44-1.91,1.44Z"/><path class="c" d="M158.08,243.42h-65.2c-.96,0-1.91-.96-1.91-1.91v-125.13c0-.96.96-1.91,1.91-1.91s1.92.96,1.92,1.91v123.21h61.84v-123.21c0-.96.96-1.91,1.92-1.91s1.92.96,1.92,1.91v125.13c-.48.96-.96,1.91-2.4,1.91Z"/><path class="c" d="M125.48,85.21c-17.26,0-26.37-24.45-26.37-37.39,0-14.38,11.99-26.37,26.37-26.37s26.37,11.99,26.37,26.37c0,13.42-9.11,37.39-26.37,37.39ZM125.48,25.28c-12.46,0-22.53,10.07-22.53,22.53,0,11.51,8.15,33.56,22.53,33.56s22.53-22.05,22.53-33.56c0-12.46-10.07-22.53-22.53-22.53Z"/><path class="c" d="M132.67,114.45c-.48,0-.96,0-1.44-.48l-7.19-6.71c-.48-.48-.96-1.92,0-2.4l14.38-19.66c.48-.48.96-.48,1.44-.96.48,0,.96,0,1.44.48l5.75,5.27c.48.48.96,1.44.48,2.4l-12.95,21.1c-.48.48-.96.96-1.92.96h0ZM127.87,105.82l4.32,3.84,11.03-17.74-2.87-2.88-12.47,16.78Z"/><path class="c" d="M117.81,115.41s-.48,0,0,0c-.96,0-1.44-.48-1.44-.96l-12.47-22.06c-.48-.96-.48-1.91.48-2.4l5.75-5.27c.48-.48.96-.48,1.44-.48s.96.48,1.44.96l14.38,19.66c.48.96.48,1.91,0,2.4l-7.67,7.67c-.96.48-1.44.48-1.92.48ZM107.74,91.92l10.54,18.69,4.79-4.79-12.46-16.78-2.87,2.88Z"/><path class="c" d="M125.48,243.42c-.96,0-1.91-.96-1.91-1.91v-60.41c0-.96.96-1.91,1.91-1.91s1.92.96,1.92,1.91v60.41c0,.96-.96,1.91-1.92,1.91Z"/><path class="c" d="M158.08,215.61c-.48,0-.96,0-.96-.48-.48-.48-.96-.96-.96-1.44v-40.27c0-.96.96-1.92,1.92-1.92s1.91.96,1.91,1.92v37.87c41.23-14.86,68.56-53.69,68.56-97.32,0-57.05-46.5-103.55-103.55-103.55S21.45,56.92,21.45,113.97c0,44.11,27.32,82.94,68.56,97.32v-37.87c0-.96.96-1.92,1.91-1.92s1.92.96,1.92,1.92v40.27c0,.48-.48.96-.96,1.44s-.96.48-1.91.48c-21.1-7.19-39.8-20.14-52.74-38.35-13.43-18.7-20.62-40.27-20.62-63.28C17.61,55,65.55,6.58,125,6.58s107.39,47.94,107.39,107.39c0,23.01-7.19,45.07-20.62,63.28-13.42,18.22-31.64,31.16-52.74,38.35h-.96Z"/><path class="c" d="M169.59,201.71c-.48,0-1.44-.48-1.91-.96-.48-.96,0-1.92.96-2.4h.96l.48-.48h.96l.48-.48h.96l.48-.48h.96l.48-.48h.96l.48-.48h.48s.48,0,.48-.48l.48-.48h.48s.48,0,.48-.48l.48-.48h.48s.48,0,.48-.48l.48-.48.48-.48s.48,0,.48-.48l.48-.48.48-.48s.48,0,.48-.48l.48-.48.48-.48s.48,0,.48-.48l.48-.48.48-.48s.48,0,.48-.48l.48-.48.48-.48.48-.48.48-.48.48-.48.48-.48s0-.48.48-.48l.48-.48.48-.48s0-.48.48-.48l.48-.48.48-.48s0-.48.48-.48l.48-.48.48-.48s0-.48.48-.48l.48-.48.48-.48s0-.48.48-.48l.48-.48.48-.48s0-.48.48-.48l.48-.48.48-.48s0-.48.48-.48l.48-.48.48-.48s0-.48.48-.48l.48-.48.48-.48s0-.48.48-.48l.48-.48.48-.48s0-.48.48-.48l.48-.48.48-.48s0-.48.48-.48l.48-.48.48-.48s0-.48.48-.48l.48-.48.48-.48s0-.48.48-.48l.48-.48.48-.48s0-.48.48-.48l.48-.48.48-.48s0-.48.48-.48v-.48l.48-.48s0-.48.48-.48v-.48l.48-.48s0-.48.48-.48v-.48l.48-.48v-.96l.48-.48v-.96l.48-.48v-.96l.48-.48v-.96s0-.48.48-.48v-.96s0-.48.48-.48v-.96s0-.48.48-.48v-.96s0-.48.48-.48v-.96s0-.48.48-.48v-.96s0-.48.48-.48v-.96s0-.48.48-.48v-.96s0-.48.48-.48v-.96s0-.48.48-.48v-.96s0-.48.48-.48v-.96s0-.48.48-.48v-.96s0-.48.48-.48v-.96s0-.48.48-.48v-.96s0-.48.48-.48v-.96s0-.48.48-.48v-.96s0-.48.48-.48v-.96s0-.48.48-.48v-35.96s0-.48-.48-.48v-.96s0-.48-.48-.48v-.96s0-.48-.48-.48v-.96s0-.48-.48-.48v-.96s0-.48-.48-.48v-.96s0-.48-.48-.48v-.96s0-.48-.48-.48v-.96s0-.48-.48-.48v-.96l-.48-.48v-.96l-.48-.48v-.96l-.48-.48v-.96l-.48-.48v-.96l-.48-.48v-.96l-.48-.48v-.96l-.48-.48v-.96l-.48-.48v-.96l-.48-.48v-.96l-.48-.48v-.96l-.48-.48v-.96l-.48-.48v-.48s0-.48-.48-.48l-.48-.48v-.48s0-.48-.48-.48l-.48-.48v-.48s0-.48-.48-.48l-.48-.48v-.48s0-.48-.48-.48l-.48-.48-.48-.48s0-.48-.48-.48l-.48-.48-.48-.48s0-.48-.48-.48l-.48-.48-.48-.48s0-.48-.48-.48l-.48-.48-.48-.48-.48-.48-.48-.48-.48-.48-.48-.48s-.48,0-.48-.48l-2.88-4.32-.48-.48s-.48,0-.48-.48l-.48-.48-.48-.48s-.48,0-.48-.48h0l-.48-.48s-.48,0-.48-.48l-.48-.48-.48-.48s-.48,0-.48-.48h0l-.48-.48s-.48,0-.48-.48l-.48-.48-.48-.48s-.48,0-.48-.48h0l-.48-.48s-.48,0-.48-.48l-.48-.48-.48-.48s-.48,0-.48-.48l-.48-.48-.48-.48s-.48,0-.48-.48l-.48-.48-.48-.48s-.48,0-.48-.48l.48.96-.48-.48s-.48,0-.48-.48l-.48-.48-.48-.48s-.48,0-.48-.48l-.48-.48-.48-.48s-.48,0-.48-.48l-.48.96-.48-.48s-.48,0-.48-.48h-.48l-.48-.48s-.48,0-.48-.48h-.48l-.48-.48s-.48,0-.48-.48h-.48l-.48-.48s-.48,0-.48-.48h-.48l-.48-.48h-.96l-.48-.48h-.96l-.48-.48h-.96s-.48,0-.48-.48h-.96s-.48,0-.48-.48h-.96s-.48,0-.48-.48h-.96s-.48,0-.48-.48h-.96s-.48,0-.48-.48h-.96s-.48,0-.48-.48h-.96s-.48,0-.48-.48h-.96s-.48,0-.48-.48h-.96s-.48,0-.48-.48h-.96s-.48,0-.48-.48h-.95s-.48,0-.48-.48h-.96s-.48,0-.48-.48h-.96s-.48,0-.48-.48h-.96s-.48,0-.48-.48h-.96s-.48,0-.48-.48h-.95s-.48,0-.48-.48h-.96s-.48,0-.48-.48h-37.39s-.48,0-.48.48h-.96s-.48,0-.48.48h-.96s-.48,0-.48.48l-7.67-2.4h-.48s-.48,0-.48.48h-.96s-.48,0-.48.48h-.96s-.48,0-.48.48h-.96s-.48,0-.48.48h-.96l-.48.48h-.96l-.48.48h-.96l-.48.48h-.96l-.48.48h-.96l-.48.48h-.96l-.48.48h-.96l-.48.48h-.96l-.48.48h-.96l-.48.48h-.95l-.48.48h-.96l-.48.48h-.96l-.48.48h-.48s-.48,0-.48.48l-.48.48h-.48s-.48,0-.48.48l-.48.48h-.48s-.48,0-.48.48l-.48.48h-.48s-.48,0-.48.48l-.48.48-1.44,2.87s-.48,0-.48.48l-.48.48-.48.48s-.48,0-.48.48l-.48.48-.48.48s-.48,0-.48.48l-.48.48v-.96l-.48.48-.48.48-.48.48-.48.48s0,.48-.48.48l-.48.48-.48.48s0,.48-.48.48l-.48.48-.48.48s0,.48-.48.48l-.48.48-.48.48s0,.48-.48.48l-.48.48-.48.48s0,.48-.48.48l.48-1.44-.48.48s0,.48-.48.48l-.48.48-.48.48s0,.48-.48.48h.48l-.48.48s0,.48-.48.48l-.48.48-.48.48s0,.48-.48.48h0l-.48.48s0,.48-.48.48l-.48.48-.48.48s0,.48-.48.48l-.48.48-.48.48s0,.48-.48.48l-.48.48-.48.48s0,.48-.48.48l-.48.48-.48.48s0,.48-.48.48l-.48.48-.48.48s0,.48-.48.48l-.48.48-.48.48s0,.48-.48.48v.48l-.48.48s0,.48-.48.48v.48l-.48.48s0,.48-.48.48v.48l-.48.48v.96l-.48.48v.96l-.48.48v.96l-.48.48v.96s0,.48-.48.48v.96s0,.48-.48.48v.96s0,.48-.48.48v.96s0,.48-.48.48v.96s0,.48-.48.48v.96s0,.48-.48.48v.96s0,.48-.48.48v.96s0,.48-.48.48v.96s0,.48-.48.48v.96s0,.48-.48.48v.96s0,.48-.48.48v.96s0,.48-.48.48v.96s0,.48-.48.48v.96s0,.48-.48.48v.96s0,.48-.48.48v.96s0,.48-.48.48v37.39s0,.48.48.48v.96s0,.48.48.48v.96s0,.48.48.48v.96s0,.48.48.48v.96s0,.48.48.48v.96s0,.48.48.48v.96s0,.48.48.48v.96l.48.48v.96l.48.48v.96l.48.48v.96l.48.48v.96l.48.48v.96l.48.48v.96l.48.48v.96l.48.48v.96l.48.48v.96l.48.48v.96l.48.48v.96l.48.48v.96l.48.48v.48s0,.48.48.48l.48.48v.48s0,.48.48.48l.48.48v.48s0,.48.48.48l.48.48.48.48s0,.48.48.48l.48.48.48.48s0,.48.48.48l.48.48.48.48s0,.48.48.48l.48.48.48.48.48.48.48.48.48.48.48.48s.48,0,.48.48l.48.48.48.48s.48,0,.48.48l.48.48.48.48s.48,0,.48.48l.48.48.48.48s.48,0,.48.48l.48.48.48.48s.48,0,.48.48l.48.48.48.48s.48,0,.48.48l.48.48.48.48s.48,0,.48.48l.48.48.48.48s.48,0,.48.48l.48.48.48.48s.48,0,.48.48l.48.48.48.48s.48,0,.48.48l.48.48.48.48s.48,0,.48.48l.48.48.48.48s.48,0,.48.48l.48.48.48.48s.48,0,.48.48l.48.48.48.48s.48,0,.48.48l.48.48.48.48s.48,0,.48.48l.48.48.48.48s.48,0,.48.48h.48l.48.48s.48,0,.48.48h.48l.48.48s.48,0,.48.48h.48l.48.48h.96l.48.48h.96l.48.48h.96l.48.48h.96c.96.48,1.44,1.44.96,2.4-.48.96-1.44,1.44-2.4.96h-.48l-.48-.48h-.96l-.48-.48h-.96l-.48-.48h-.96l-.48-.48s-.48,0-.48-.48h-.48l-.48-.48s-.48,0-.48-.48h-.48l-.48-.48s-.48,0-.48-.48h-.48l-.48-.48s-.48,0-.48-.48l-.48-.48-.48-.48s-.48,0-.48-.48l-.48-.48-.48-.48s-.48,0-.48-.48l-.48-.48-.48-.48s-.48,0-.48-.48l-.48-.48-.48-.48s-.48,0-.48-.48l-3.35,3.83-.48-.48s-.48,0-.48-.48l-.48-.48-.48-.48s-.48,0-.48-.48l-.48-.48-.48-.48s-.48,0-.48-.48l-.48-.48-.48-.48s-.48,0-.48-.48l-.48-.48-.48-.48s-.48,0-.48-.48l.48.96-.48-.48s-.48,0-.48-.48l-.48-.48-.48-.48s-.48,0-.48-.48l-.48-.48-.48-.48s-.48,0-.48-.48l-.48-.48-.48-.48s-.48,0-.48-.48l.48.48-.48-.48-.48-.48-.48-.48-.48-.48-.48-.48-.48-.48-.48-.48-.48-.48h.48l-.48-.48-.48-.48-.48-.48s0-.48-.48-.48l-.48-.48-.48-.48s0-.48-.48-.48l-.48-.48-.48-.48s0-.48-.48-.48l-.48-.48-.48-.48s0-.48-.48-.48l-.48-.48v-.48s0-.48-.48-.48l-.48-.48v-.48s0-.48-.48-.48l-.48-.48v-.48s0-.48-.48-.48l-.48-.48v-.96l-.48-.48v-.96l-.48-.48v-.96l-.48-.48v-.96l-.48-.48v-.96l-.48-.48v-.96l-.48-.48v-.96l-.48-.48v-.96l-.48-.48v-.96l-.48-.48v-.96l-.48-.48v-.96l-.48-.48v-.96l-.48-.48v-.96s0-.48-.48-.48v-.96s0-.48-.48-.48v-.96s0-.48-.48-.48v-.96s0-.48-.48-.48v-.96s0-.48-.48-.48v-.96s0-.48-.48-.48v-.96s0-.48-.48-.48v-35s0-.48.48-.48v-.96s0-.48.48-.48v-.96s0-.48.48-.48v-.96s0-.48.48-.48v-.96s0-.48.48-.48v-.96s0-.48.48-.48v-.96s0-.48.48-.48v-.96s0-.48.48-.48v-.96s0-.48.48-.48v-.96s0-.48.48-.48v-.96s0-.48.48-.48v-.96s0-.48.48-.48v-.96s0-.48.48-.48v-.96s0-.48.48-.48v-.96s0-.48.48-.48v-.96l.48-.48v-.96l.48-.48v-.96l.48-.48v-.96l.48-.48v-.96l.48-.48s0-.48.48-.48v-.48l.48-.48s0-.48.48-.48v-.48l.48-.48s0-.48.48-.48l.48-.48.48-.48s0-.48.48-.48l.48-.48.48-.48s0-.48.48-.48l.48-.48.48-.48s0-.48.48-.48l.48-.48.48-.48s0-.48.48-.48l.48-.48.48-.48s0-.48.48-.48l.48-.48.48-.48s0-.48.48-.48l.48-.48.48-.48s0-.48.48-.48l.48-.48.48-.48s0-.48.48-.48l.48-.48.48-.48s0-.48.48-.48l.48-.48.48-.48s0-.48.48-.48l.48-.48.48-.48s0-.48.48-.48l.48-.48.48-.48s0-.48.48-.48l.48-.48.48-.48s0-.48.48-.48l.48-.48.48-.48s0-.48.48-.48l.48-.48.48-.48.48-.48.48-.48.48-.48.48-.48.48-.48.48-.48.48-.48.48-.48.48-.48.48-.48.48-.48s.48,0,.48-.48l.48-.48.48-.48s.48,0,.48-.48l.48-.48.48-.48s.48,0,.48-.48l.48-.48.48-.48s.48,0,.48-.48l.48-.48h.48s.48,0,.48-.48l.48-.48h.48s.48,0,.48-.48l.48-.48h.48s.48,0,.48-.48l.48-.48h.96l.48-.48h.96l.48-.48h.96l.48-.48h.96l.48-.48h.96l.48-.48h.96l.48-.48h.96l.48-.48h.96l.48-.48h.96l.48-.48h.96l.48-.48h.96l.48-.48h.96l.48-.48h.96s.48,0,.48-.48h.96s.48,0,.48-.48h.96s.48,0,.48-.48h.96s.48,0,.48-.48h.96s.48,0,.48-.48h.96s.48,0,.48-.48h.96s.48,0,.48-.48h35s.48,0,.48.48h.96s.48,0,.48.48h.96s.48,0,.48.48h.96s.48,0,.48.48h.96s.48,0,.48.48h.96s.48,0,.48.48h.96s.48,0,.48.48h.96s.48,0,.48.48h.96s.48,0,.48.48h.96s.48,0,.48.48h.96s.48,0,.48.48h.96s.48,0,.48.48h.96s.48,0,.48.48h.96s.48,0,.48.48h.96s.48,0,.48.48h.96s.48,0,.48.48h.96l.48.48h.96l.48.48h.96l.48.48h.96l.48.48s.48,0,.48.48h.48l.48.48s.48,0,.48.48h.48l.48.48s.48,0,.48.48l.48.48.48.48s.48,0,.48.48l.48.48.48.48s.48,0,.48.48l.48.48.48.48s.48,0,.48.48l.48.48.48.48s.48,0,.48.48l.48.48.48.48s.48,0,.48.48l.48.48.48.48s.48,0,.48.48l.48.48.48.48s.48,0,.48.48l.48.48.48.48s.48,0,.48.48l.48.48.48.48s.48,0,.48.48l.48.48.48.48s.48,0,.48.48l.48.48.48.48s.48,0,.48.48l.48.48.48.48s.48,0,.48.48l.48.48.48.48s.48,0,.48.48l.48.48.48.48s.48,0,.48.48l.48.48.48.48.48.48.48.48.48.48.48.48.48.48.48.48.48.48.48.48.48.48.48.48.48.48.48.48.48.48.48.48s0,.48.48.48l.48.48.48.48s0,.48.48.48l.48.48.48.48s0,.48.48.48l.48.48v.48s0,.48.48.48l.48.48v.48s0,.48.48.48l.48.48v.48s0,.48.48.48l.48.48v.96l.48.48v.96l.48.48v.96l.48.48v.96l.48.48v.96l.48.48v.96l.48.48v.96l.48.48v.96l.48.48v.96l.48.48v.96l.48.48v.96l.48.48v.96l.48.48v.96l.48.48v.96s0,.48.48.48v.96s0,.48.48.48v.96s0,.48.48.48v.96s0,.48.48.48v.96s0,.48.48.48v.96s0,.48.48.48v35s0,.48-.48.48v.96s0,.48-.48.48v.96s0,.48-.48.48v.96s0,.48-.48.48v.96s0,.48-.48.48v.96s0,.48-.48.48v.96s0,.48-.48.48v.96s0,.48-.48.48v.96s0,.48-.48.48v.96s0,.48-.48.48v.96s0,.48-.48.48v.96s0,.48-.48.48v.96s0,.48-.48.48v.96s0,.48-.48.48v.96s0,.48-.48.48v.96s0,.48-.48.48v.96l-.48.48v.96l-.48.48v.96l-.48.48v.96l-.48.48s0,.48-.48.48v.48l-.48.48s0,.48-.48.48v.48l-.48.48s0,.48-.48.48v.48l-.48.48s0,.48-.48.48l-.48.48-.48.48s0,.48-.48.48l-.48.48-.48.48s0,.48-.48.48h6.23l-.48.48s0,.48-.48.48l-.48.48-.48.48s0,.48-.48.48l-.48.48-.48.48s0,.48-.48.48l-.48.48-.48.48s0,.48-.48.48l-.48.48-.48.48s0,.48-.48.48l-.48.48-.48.48s0,.48-.48.48l-.48.48-.48.48s0,.48-.48.48l-.48.48-.48.48s0,.48-.48.48l-.48.48-.48.48s0,.48-.48.48l2.4-.48-.48.48s0,.48-.48.48l-.48.48-.48.48s0,.48-.48.48l-.48.48-.48.48-.48.48-.48.48-.48.48-.48.48-.48.48-.48.48-.48.48-.48.48-.48.48-.48.48-.48.48-.48.48-.48.48-.48.48s-.48,0-.48.48l-.48.48-.48.48s-.48,0-.48.48l-.48.48.48-2.88s-.48,0-.48.48l-.48.48h-.48s-.48,0-.48.48l-.48.48h-.48s-.48,0-.48.48l-.48.48h-.48s-.48,0-.48.48l-.48.48h-.96l-.48.48h-.96l-.48.48h-.96l-.48.48h-.96l-.48.48h-.48q-.96,1.44-1.44,1.44Z"/></g></svg>