<?xml version="1.0" encoding="UTF-8"?><svg id="a" xmlns="http://www.w3.org/2000/svg" viewBox="0 0 250 250"><defs><style>.b{fill:#fff;}</style></defs><path class="b" d="M107.57,74.56h-.09c-1.46,0-2.65-1.19-2.65-2.65s1.19-2.65,2.65-2.65,2.69,1.19,2.69,2.65-1.14,2.65-2.61,2.65Z"/><path class="b" d="M209.5,199.34H5.07V69.26h17.99c1.46,0,2.65,1.19,2.65,2.65s-1.19,2.65-2.65,2.65h-12.69v119.47h193.82v-37.91c0-1.47,1.19-2.65,2.65-2.65s2.65,1.19,2.65,2.65v43.22Z"/><path class="b" d="M206.84,91.14c-1.46,0-2.65-1.19-2.65-2.65v-13.93h-12.19c-1.46,0-2.65-1.19-2.65-2.65s1.19-2.65,2.65-2.65h17.5v19.23c0,1.47-1.19,2.65-2.65,2.65Z"/><path class="b" d="M105.98,198.56c-.67,0-1.35-.17-1.96-.52-37.7-21.59-80.13-15.33-80.56-15.26l-3.06.47V53.16s2.18-.39,2.18-.39c2.14-.38,52.7-9.07,86.51,17.04l1.03.79v123.74c0,1.5-.81,2.9-2.12,3.66-.64.37-1.34.56-2.04.56ZM39.21,176.5c16.02,0,41.35,2.59,65.62,15.91v-119.18c-28.09-20.83-69.24-16.89-79.12-15.56v119.49c2.85-.3,7.53-.66,13.5-.66Z"/><path class="b" d="M91.82,167.98c-.3,0-.6-.05-.89-.16-22.21-7.94-40.72-10.11-52.34-10.53-1.46-.05-2.61-1.28-2.55-2.74.05-1.47,1.31-2.64,2.75-2.55,11.99.43,31.08,2.67,53.93,10.84,1.38.49,2.1,2.01,1.6,3.39-.39,1.08-1.41,1.76-2.5,1.76Z"/><path class="b" d="M91.82,149.1c-.3,0-.6-.05-.89-.16-22.24-7.95-40.74-10.11-52.34-10.52-1.46-.05-2.61-1.28-2.56-2.74.05-1.46,1.31-2.64,2.74-2.56,11.97.42,31.05,2.64,53.93,10.82,1.38.49,2.1,2.01,1.61,3.39-.39,1.08-1.41,1.76-2.5,1.76Z"/><path class="b" d="M91.82,130.79c-.3,0-.6-.05-.89-.16-22.26-7.95-40.74-10.11-52.34-10.52-1.46-.05-2.61-1.28-2.56-2.74.05-1.46,1.25-2.61,2.74-2.56,11.97.42,31.04,2.64,53.93,10.82,1.38.49,2.1,2.01,1.61,3.39-.39,1.08-1.41,1.76-2.5,1.76Z"/><path class="b" d="M91.81,108.72c-.3,0-.6-.05-.89-.16-7.1-2.53-14.18-4.62-21.05-6.21-1.43-.33-2.31-1.76-1.98-3.18.33-1.43,1.75-2.32,3.18-1.99,7.07,1.64,14.35,3.79,21.64,6.39,1.38.49,2.1,2.01,1.61,3.39-.39,1.08-1.41,1.76-2.5,1.76Z"/><path class="b" d="M91.81,90.4c-.3,0-.6-.05-.89-.16-6.99-2.49-14.08-4.59-21.06-6.21-1.43-.33-2.31-1.76-1.98-3.19.33-1.42,1.76-2.31,3.18-1.98,7.18,1.67,14.46,3.82,21.63,6.39,1.38.49,2.1,2.01,1.61,3.39-.39,1.08-1.41,1.76-2.5,1.76Z"/><path class="b" d="M122.68,147.87c-1.09,0-2.11-.68-2.5-1.76-.49-1.38.23-2.9,1.61-3.39,7.56-2.7,15.15-4.92,22.57-6.59,1.42-.32,2.85.57,3.17,2,.32,1.43-.57,2.85-2,3.17-7.21,1.63-14.59,3.79-21.95,6.41-.29.11-.6.16-.89.16Z"/><path class="b" d="M174.55,158.27h-.01c-1.46,0-2.65-1.19-2.65-2.65s1.19-2.65,2.65-2.65,2.66,1.19,2.66,2.65-1.18,2.65-2.65,2.65Z"/><path class="b" d="M122.68,168.91c-1.09,0-2.11-.68-2.5-1.76-.49-1.38.23-2.9,1.61-3.39,12.41-4.44,24.94-7.57,37.24-9.33,1.44-.21,2.79.8,3,2.25.21,1.45-.8,2.79-2.25,3-11.94,1.7-24.12,4.75-36.2,9.07-.29.11-.6.16-.89.16Z"/><path class="b" d="M122.68,129c-1.09,0-2.11-.68-2.5-1.76-.49-1.38.23-2.9,1.61-3.39,6.25-2.23,12.53-4.14,18.67-5.66,1.41-.35,2.86.52,3.21,1.94s-.52,2.86-1.94,3.21c-5.97,1.48-12.08,3.33-18.16,5.5-.29.11-.6.16-.89.16Z"/><path class="b" d="M122.68,110.69c-1.09,0-2.11-.67-2.5-1.76-.49-1.38.22-2.9,1.6-3.39,7.54-2.7,15.2-4.94,22.76-6.65,1.41-.32,2.85.57,3.17,2,.32,1.43-.57,2.85-2,3.17-7.35,1.66-14.8,3.84-22.14,6.47-.3.11-.6.16-.89.16Z"/><path class="b" d="M122.68,92.23c-1.09,0-2.11-.68-2.5-1.76-.49-1.38.22-2.9,1.6-3.39,14.65-5.24,29.33-8.64,43.65-10.1,1.47-.13,2.76.91,2.91,2.37.15,1.46-.91,2.76-2.37,2.91-13.89,1.42-28.15,4.72-42.4,9.82-.3.11-.6.16-.89.16Z"/><path class="b" d="M109.04,198.5c-.8,0-1.56-.23-2.22-.66-1.19-.77-1.9-2.08-1.9-3.49v-123.79l1.1-.79c37.82-27.4,84.59-17.4,86.56-16.97l2.08.46v29.93c0,1.47-1.19,2.65-2.65,2.65s-2.65-1.19-2.65-2.65v-25.6c-9.28-1.54-47.82-6.24-79.13,15.68v119.19c34.76-18.28,68.83-16.43,79.13-15.33v-19.66c0-1.47,1.19-2.65,2.65-2.65s2.65,1.19,2.65,2.65v25.8l-3.08-.5c-.41-.07-40.78-6.33-80.58,15.29-.66.3-1.32.44-1.95.44Z"/><path class="b" d="M61.46,107.25l-3.08-.51c-6.71-1.1-13.37-1.78-19.8-2.02l-2.55-.09v-32.92l2.74.1c6.6.23,13.49.93,20.47,2.09l2.22.37v32.99ZM41.33,99.54c4.86.26,9.82.76,14.83,1.49v-22.26c-5.03-.76-10-1.28-14.83-1.54v22.31Z"/><path class="b" d="M187.1,160.45c-3.21,0-6.39-.38-9.52-1.15-.74-.18-1.45-.38-2.12-.58l-.02.02-3.56-1.29c-9.03-3.67-16.34-10.47-20.72-19.29-3-6.02-4.43-12.74-4.15-19.42.1-2.65.47-5.32,1.11-7.92,4.86-19.96,23.88-32.97,44.22-30.25,1.39.18,2.83.45,4.25.8,4.14,1,8.06,2.64,11.65,4.88,14.79,9.16,21.95,26.68,17.82,43.59-1.72,7.08-5.34,13.56-10.46,18.73-2.81,2.83-6.02,5.23-9.56,7.12-4.29,2.3-8.9,3.79-13.7,4.43-1.75.23-3.5.34-5.25.34ZM175.97,153.3c.88.31,1.82.58,2.88.84,4.19,1.03,8.5,1.26,12.81.7,4.16-.55,8.16-1.84,11.88-3.85,3.07-1.65,5.87-3.73,8.3-6.18,4.45-4.49,7.58-10.11,9.08-16.25h0c3.58-14.67-2.63-29.87-15.47-37.83-3.11-1.94-6.51-3.36-10.1-4.23-1.24-.3-2.48-.54-3.68-.69-17.67-2.36-34.17,8.93-38.38,26.25-.55,2.25-.88,4.56-.96,6.87-.25,5.81,1,11.63,3.6,16.85,3.84,7.75,10.28,13.68,18.23,16.84l1.33.49c.09.03.18.07.27.1l.22.08Z"/><path class="b" d="M236.74,195.56c-2.55,0-5.06-1.17-6.66-3.37l-27.42-37.28,4.27-3.14,27.43,37.3c.94,1.3,2.75,1.59,4.04.67.64-.45,1.06-1.13,1.18-1.9.13-.77-.06-1.54-.52-2.17l-27.49-37.4,4.27-3.14,27.5,37.41c1.31,1.79,1.82,3.98,1.47,6.16-.36,2.18-1.54,4.09-3.34,5.37-1.43,1.02-3.09,1.51-4.74,1.51Z"/><path class="b" d="M210.37,115.3c-1.08,0-2.09-.66-2.49-1.73-2.41-6.5-7.86-11.36-14.59-13-6.04-1.47-12.37-.18-17.37,3.53-1.17.88-2.83.63-3.71-.54-.87-1.18-.63-2.84.54-3.71,6.26-4.67,14.21-6.27,21.79-4.43,8.44,2.06,15.29,8.16,18.31,16.31.51,1.37-.19,2.9-1.56,3.41-.3.11-.61.17-.92.17Z"/></svg>