<?xml version="1.0" encoding="UTF-8"?><svg id="a" xmlns="http://www.w3.org/2000/svg" viewBox="0 0 250 250"><defs><style>.b{fill:#fff;}</style></defs><path class="b" d="M125,169.47c-24.52,0-44.48-19.95-44.48-44.47s19.95-44.47,44.48-44.47,44.47,19.95,44.47,44.47-19.95,44.47-44.47,44.47ZM125,86.58c-21.18,0-38.42,17.23-38.42,38.42s17.23,38.42,38.42,38.42,38.42-17.23,38.42-38.42-17.23-38.42-38.42-38.42Z"/><path class="b" d="M42.94,117.41l-6.03-.55c3.73-40.91,36.01-74.39,76.75-79.61l.77,6.01c-37.95,4.86-68.01,36.04-71.48,74.15Z"/><path class="b" d="M116.86,213.09c-40.91-3.73-74.39-36.01-79.61-76.75l6.01-.77c4.86,37.95,36.05,68.01,74.15,71.48l-.55,6.03Z"/><path class="b" d="M136.34,212.75l-.77-6.01c37.94-4.86,68.01-36.04,71.48-74.15l6.03.55c-3.73,40.91-36.01,74.39-76.75,79.61Z"/><path class="b" d="M206.74,114.43c-4.86-37.95-36.05-68.01-74.15-71.48l.55-6.03c40.91,3.73,74.39,36.01,79.61,76.75l-6.01.77Z"/><rect class="b" x="120.31" y="5.51" width="6.06" height="66.42"/><rect class="b" x="5.52" y="123.63" width="66.42" height="6.06"/><rect class="b" x="123.63" y="178.07" width="6.06" height="66.42"/><rect class="b" x="178.07" y="120.31" width="66.42" height="6.06"/></svg>