<?xml version="1.0" encoding="UTF-8"?><svg id="a" xmlns="http://www.w3.org/2000/svg" viewBox="0 0 250 250"><defs><style>.c{fill:#fff;}</style></defs><g id="b"><path class="c" d="M191.44,204.92H58.55c-.94,0-1.89-.95-1.89-1.89v-48.71c0-.95.47-1.42,1.42-1.89l30.74-12.3,8.99-3.31c.94-.47,1.89,0,2.36.95l15.13,27.9,8.52-8.51c.94-.95,1.89-.95,2.36,0l8.04,7.56,16.08-26.48c.47-.95,1.42-.95,2.36-.95l39.73,15.6c.94.47,1.42.95,1.42,1.89v48.23c-.48.95-1.42,1.89-2.36,1.89ZM60.45,201.14h129.1v-45.87l-36.89-14.66-16.55,27.43c-.47.47-.95.95-1.42.95s-.95,0-1.42-.48l-8.52-7.56-8.98,8.98c-.48.48-.95.48-1.42.48s-.95-.48-1.42-.95l-15.61-28.85-7.56,2.84-29.32,11.82v45.87h0Z"/><path class="c" d="M168.74,204.92h-87.96c-.95,0-1.89-.95-1.89-1.89v-30.74c0-.94.94-1.89,1.89-1.89s1.89.95,1.89,1.89v28.85h84.65v-28.85c0-.94.95-1.89,1.89-1.89s1.89.95,1.89,1.89v30.74c-.48.95-.95,1.89-2.36,1.89Z"/><path class="c" d="M125.24,129.73c-22.7,0-35-32.15-35-49.65,0-3.31.48-6.62,1.42-9.46,0-.47.48-.95.95-1.42.48-.47.95,0,1.42,0,1.89.94,3.79,1.42,5.68,1.42h36.41c2.36,0,4.73-1.42,6.15-3.78,0-.47.48-.95.95-.95h1.42l13.24,6.15c.48.47.95.47.95,1.42v.94c1.42,2.36,1.42,3.31,1.42,5.68,0,17.5-11.82,49.65-34.99,49.65ZM94.97,73.93c-.47,1.89-.47,4.26-.47,6.62,0,15.6,10.88,45.87,31.21,45.87s31.21-30.27,31.21-45.87c0-1.89,0-2.84-.48-4.73h0l-11.35-5.2c-1.89,2.84-5.2,4.26-8.52,4.26h-36.41c-1.42,0-3.31-.47-5.2-.94Z"/><path class="c" d="M134.69,168.98c-.48,0-.95,0-1.42-.48l-9.46-8.98c-.48-.48-.95-1.89,0-2.36l19.39-26.49c.47-.47.95-.47,1.42-.95.48,0,.95,0,1.42.48l7.57,7.09c.47.47.95,1.42.47,2.36l-17.5,28.37c-.94.47-1.42.95-1.89.95h0ZM127.12,158.1l6.62,6.15,15.13-25.07-4.73-4.25-17.03,23.17Z"/><path class="c" d="M114.36,170.4h0c-.95,0-1.42-.48-1.42-.95l-16.55-30.27c-.47-.94-.47-1.89.48-2.36l7.56-7.09c.48-.47.95-.47,1.42-.47s.95.47,1.42.95l19.39,26.48c.47.95.47,1.89,0,2.36l-10.88,10.88c-.48.48-.95.48-1.42.48ZM100.17,139.18l14.66,26.49,7.56-7.57-17.02-23.65-5.2,4.73Z"/><path class="c" d="M124.76,204.92c-.47,0-1.42-.47-1.42-.95l-35.94-61c-.48-.95,0-1.89.47-2.36.48-.48,1.89,0,2.36.47l35.94,61.01c.47.94,0,1.89-.48,2.36,0,.47-.47.47-.95.47Z"/><path class="c" d="M124.76,204.92q-.47,0-.94-.47c-.95-.48-1.42-1.89-.48-2.36l35.94-61.01c.47-.95,1.89-1.42,2.36-.47.94.47,1.42,1.89.47,2.36l-35.94,61c0,.48-.48.95-1.42.95Z"/><path class="c" d="M157.86,76.29h-.94l-11.82-5.68c-1.89,2.84-5.2,4.26-8.52,4.26h-36.41c-8.04,0-14.66-6.62-14.66-14.66v-13.24c0-.95.95-1.89,1.89-1.89h48.24c4.25,0,8.04,2.36,9.93,5.67,0,.47.47.95.47,1.42l13.25,11.82c.47.47.47.94.47,1.42v8.98c0,.47-.47,1.42-.95,1.42,0,.47-.47.47-.95.47ZM144.62,66.36h.95l10.88,5.2v-5.2l-12.77-11.35s-.47-.47-.47-.95-.47-.95-.47-.95h0c-1.42-2.36-3.79-3.78-6.62-3.78h-46.82v11.35c0,6.15,5.2,11.35,11.35,11.35h36.41c2.36,0,4.73-1.42,6.15-3.78,0-.47.47-.95.95-.95q0-.94.47-.94Z"/><path class="c" d="M125.71,114.12c-2.36,0-4.73-.47-6.62-1.89-.95-.47-1.42-1.42-.95-2.36.47-.94,1.42-1.42,2.36-.94,3.31,1.89,6.62,1.89,9.93,0,.95-.47,1.89,0,2.36.94.48.95,0,1.89-.95,2.36-1.89,1.42-4.25,1.89-6.15,1.89Z"/><path class="c" d="M124.76,105.14h-.94c-1.42-.47-2.36-1.89-2.36-3.31l-.48-6.62c0-.95.95-1.89,1.89-1.89s1.89.95,1.89,1.89l.48,6.62c.47,0,.95-.47,1.42-.95.47-.94,1.89-.94,2.84-.47.95.47.95,1.89.48,2.84-1.89.95-3.78,1.89-5.2,1.89Z"/><path class="c" d="M122.4,63.52h-24.12c-.95,0-1.89-.95-1.89-1.89s.95-1.89,1.89-1.89h24.12c.95,0,1.89.94,1.89,1.89,0,1.42-.95,1.89-1.89,1.89Z"/><path class="c" d="M124.76,173.71c-.47,0-.94,0-1.42-.48l-6.62-6.62c-.95-.95-.95-1.89,0-2.84l6.62-6.62c.48-.48,1.89-.48,2.84,0l6.62,6.62c.95.95.95,1.89,0,2.84l-6.62,6.62c-.48,0-.95.48-1.42.48ZM120.98,165.19l4.26,4.26,4.25-4.26-4.25-4.25-4.26,4.25Z"/><path class="c" d="M239.68,155.74h-49.66l-36.89-14.66c-.94-.47-1.42-.95-1.42-1.89v-17.02c0-.94.48-1.42,1.42-1.89l25.54-9.93c.95-.47,1.89,0,2.36.95l9.46,17.5,5.2-5.2c.95-.95,1.89-.95,2.36,0l4.73,4.26,9.93-16.55c.47-.95,1.42-.95,2.36-.95l25.53,9.93c.95.47,1.42.95,1.42,1.89v31.69c-.48.95-1.42,1.89-2.36,1.89ZM190.5,151.95h47.29v-28.37l-23.17-8.98-10.4,17.03c-.48.47-.95.95-1.42.95s-.94,0-1.42-.48l-4.73-4.73-5.68,5.68c-.47.48-.94.48-1.42.48s-.95-.48-1.42-.95l-9.93-17.97-22.7,8.51v14.66l35,14.19Z"/><path class="c" d="M168.27,146.75c-.95,0-1.89-.95-1.89-1.89v-11.35c0-.95.94-1.89,1.89-1.89s1.89.95,1.89,1.89v11.35c0,1.42-.95,1.89-1.89,1.89Z"/><path class="c" d="M225.02,155.74h-34.99c-.95,0-1.89-.94-1.89-1.89s.95-1.89,1.89-1.89h33.1v-17.97c0-.95.94-1.89,1.89-1.89s1.89.95,1.89,1.89v19.86c0,.95-.48,1.89-1.89,1.89Z"/><path class="c" d="M197.12,107.03c-15.13,0-23.17-21.28-23.17-32.63,0-12.77,10.4-23.17,23.17-23.17s23.17,10.4,23.17,23.17c0,11.35-8.04,32.63-23.17,32.63ZM197.12,54.54c-10.88,0-19.39,8.51-19.39,19.39,0,9.93,7.09,28.85,19.39,28.85s19.39-19.39,19.39-28.85c0-10.4-8.51-19.39-19.39-19.39Z"/><path class="c" d="M202.79,132.57c-.47,0-.94,0-1.42-.48l-6.15-5.67c-.47-.48-.95-1.89,0-2.36l12.77-17.03c.47-.47.95-.47,1.42-.95.47,0,.95,0,1.42.47l4.73,4.26c.48.47.95,1.42.48,2.36l-11.35,18.44c-.47.47-.95.47-1.89.95.48,0,0,0,0,0ZM199.01,124.53l3.31,3.31,9.46-15.13-2.36-1.89-10.4,13.71Z"/><path class="c" d="M190.02,133.51s-.48,0,0,0c-.95,0-1.42-.48-1.42-.95l-10.88-19.39c-.47-.95-.47-1.89.48-2.36l4.73-4.26c.47-.47.94-.47,1.42-.47s.95.47,1.42.95l12.77,17.03c.47.94.47,1.89,0,2.36l-6.62,6.62c-.95,0-1.42.48-1.89.48ZM181.51,112.23l8.99,16.08,3.78-3.78-10.4-14.19-2.36,1.89Z"/><path class="c" d="M59.03,155.74H9.84c-.95,0-1.89-.94-1.89-1.89v-31.69c0-.94.47-1.42,1.42-1.89l25.53-9.93c.95-.47,1.89,0,2.36.95l9.93,16.55,4.73-4.26c.95-.47,1.89-.47,2.36,0l5.2,5.2,9.46-17.5c.48-.95,1.42-1.42,2.36-.95l25.54,9.93c.95.47,1.42.95,1.42,1.89v17.02c0,.95-.47,1.42-1.42,1.89l-36.89,14.66h-.95ZM11.74,151.95h47.29l34.99-13.71v-14.66l-22.7-8.98-9.93,17.97c-.48.47-.95.95-1.42.95s-.95,0-1.42-.48l-5.67-5.68-4.73,4.73c-.48.48-.95.48-1.42.48s-.94-.48-1.42-.95l-10.4-17.03-23.17,8.98v28.37Z"/><path class="c" d="M81.26,146.75c-.95,0-1.89-.95-1.89-1.89v-11.35c0-.95.95-1.89,1.89-1.89s1.89.95,1.89,1.89v11.35c0,1.42-.47,1.89-1.89,1.89Z"/><path class="c" d="M59.5,155.74H24.51c-.95,0-1.89-.94-1.89-1.89v-19.86c0-.95.95-1.89,1.89-1.89s1.89.95,1.89,1.89v17.97h33.1c.95,0,1.89.95,1.89,1.89s-.95,1.89-1.89,1.89Z"/><path class="c" d="M52.41,107.03c-15.13,0-23.17-21.28-23.17-32.63,0-12.77,10.4-23.17,23.17-23.17s23.17,10.4,23.17,23.17c0,11.35-8.04,32.63-23.17,32.63ZM52.41,54.54c-10.88,0-19.39,8.51-19.39,19.39,0,9.93,7.09,28.85,19.39,28.85s19.39-19.39,19.39-28.85c0-10.4-8.52-19.39-19.39-19.39Z"/><path class="c" d="M46.73,132.57s-.47,0,0,0c-.94,0-1.42-.48-1.42-.95l-11.35-18.44c-.48-.95-.48-1.89.47-2.36l4.73-4.26c.47-.47.95-.47,1.42-.47s.95.47,1.42.95l12.77,17.03c.48.94.48,1.89,0,2.36l-7.09,5.67s-.47.48-.95.48ZM37.75,112.23l9.46,15.13,3.31-3.31-10.4-14.19-2.36,2.36Z"/><path class="c" d="M59.5,133.51c-.47,0-.95,0-1.42-.48l-6.62-7.09c-.47-.47-.94-1.89,0-2.36l12.77-17.02c.48-.47.95-.47,1.42-.95.48,0,.95,0,1.42.47l4.73,4.26c.47.47.94,1.42.47,2.36l-10.88,19.39c-.48.95-.95.95-1.89,1.42q.48,0,0,0ZM55.25,124.53l3.78,3.78,8.98-16.08-2.36-1.89-10.4,14.19Z"/></g></svg>