<?xml version="1.0" encoding="UTF-8"?><svg id="a" xmlns="http://www.w3.org/2000/svg" viewBox="0 0 250 250"><defs><style>.c{fill:#fff;}</style></defs><g id="b"><path class="c" d="M156.45,218.87h-45c-.97,0-1.93-.97-1.93-1.94v-88.06c0-.49,0-.97.48-1.46,7.74-8.22,12.1-18.87,12.1-30.48s-4.36-22.26-12.1-30.48c-.48-.48-.48-.97-.48-1.45V13.22c0-.97.96-1.94,1.93-1.94,2.42,0,4.84-.48,7.26-.48,18.87,0,36.78,5.32,50.81,15.49,31.45,22.74,31.45,47.9,31.45,64.84,0,7.26,0,12.58,1.94,16.45,2.42,3.87,5.32,7.26,8.23,10.16,4.35,4.84,8.22,9.2,6.77,13.07-.97,2.91-4.35,4.84-11.13,6.29h0c-.97,0-1.45,0-1.94.49-2.9.97-2.42,6.77-1.93,12.1.48,7.26,1.45,15-3.39,20.32-2.9,3.38-7.74,4.84-14.03,4.84-1.93,0-3.87,0-5.8-.49h-4.84c-3.87,0-6.78.49-9.68,3.87-2.42,2.91-2.42,10.65-2.42,18.39,0,9.68,0,18.87-5.33,22.74-.48-.48-.97-.48-.97-.48ZM113.39,215h42.1c2.9-2.91,2.9-11.62,2.9-19.36,0-8.71,0-16.94,3.39-20.81,3.87-4.36,8.23-4.84,12.1-4.84,1.45,0,3.39,0,5.32.48,1.94,0,3.39.48,5.33.48h.48c5.32,0,8.71-.96,10.65-3.38,3.39-3.87,2.9-11.13,2.42-17.42-.49-7.26-1.45-14.03,3.87-16.45.97-.49,1.45-.49,2.9-.97h0c6.29-1.45,7.75-2.91,8.23-3.87.49-1.94-2.9-5.33-6.29-9.2-2.9-2.9-5.81-6.78-8.23-10.65-2.9-4.35-2.9-10.65-2.42-18.39,0-16.94.49-40.16-29.52-61.45-13.55-9.68-30.48-15-48.88-15h-5.32v50.32c8.23,8.71,12.58,20.32,12.58,32.42s-4.35,23.71-12.58,32.9l.97,85.17h0Z"/><path class="c" d="M170.48,62.58c-.97,0-1.45-.49-1.94-.97-2.42-5.32-6.77-10.16-12.58-14.52-7.74-5.81-18.39-8.23-29.03-7.74-.97,0-1.94-.49-1.94-1.94,0-.97.49-1.94,1.94-1.94,11.62-.96,22.74,1.94,31.45,8.23,6.78,4.84,11.13,10.16,14.03,16.45.48.97,0,1.93-.97,2.42-.49-.49-.49,0-.97,0Z"/><path class="c" d="M205.33,230.49H16.12c-.96,0-1.93-.97-1.93-1.94s.97-1.94,1.93-1.94h189.2c.97,0,1.93.97,1.93,1.94,0,1.45-.96,1.94-1.93,1.94Z"/><path class="c" d="M91.61,169.52h-27.58c-7.74,0-14.03-6.29-14.03-14.03v-18.87c-12.58-9.2-20.32-23.71-20.32-39.19,0-26.61,21.77-48.39,48.39-48.39s48.39,21.77,48.39,48.39c0,15.48-7.75,30-20.32,39.19v18.87c0,7.26-6.78,14.03-14.52,14.03ZM78.06,52.41c-24.68,0-44.52,19.84-44.52,44.52,0,14.52,7.26,28.55,19.36,36.78.48.48.97.96.97,1.45v19.84c0,5.81,4.84,10.16,10.64,10.16h27.58c5.81,0,10.65-4.84,10.65-10.16v-19.84c0-.49.48-1.45.97-1.45,12.1-8.23,19.36-21.77,19.36-36.78-.97-24.19-20.81-44.52-45-44.52Z"/><path class="c" d="M50.96,48.54c-.48,0-1.45-.48-1.45-.97l-7.26-12.58c-.48-.97,0-1.94.48-2.42.97-.48,1.94,0,2.42.48l7.26,12.58c.49.97,0,1.93-.48,2.42q-.48.48-.97.48Z"/><path class="c" d="M29.68,69.84q-.49,0-.97-.49l-12.58-6.77c-.96-.49-1.45-1.45-.48-2.42.48-.97,1.45-1.45,2.42-.49l12.58,7.26c.97.49,1.46,1.46.49,2.42-.49,0-.97.49-1.45.49Z"/><path class="c" d="M21.93,98.87H7.41c-.97,0-1.93-.97-1.93-1.94s.96-1.93,1.93-1.93h14.52c.97,0,1.94.96,1.94,1.93,0,1.45-.97,1.94-1.94,1.94Z"/><path class="c" d="M77.58,37.42h0c-.97,0-1.93-.97-1.93-1.94v-12.1c0-.96.96-1.93,1.93-1.93s1.94.97,1.94,1.93v12.1c0,.97-.49,1.94-1.94,1.94Z"/><path class="c" d="M95.96,179.19h-31.93c-.97,0-1.94-.97-1.94-1.93v-9.68c0-.97.97-1.94,1.94-1.94h31.93c.97,0,1.94.97,1.94,1.94v9.68c0,.96-.48,1.93-1.94,1.93ZM65.97,175.32h28.55v-5.81h-28.55v5.81Z"/><path class="c" d="M91.61,188.87h-22.74c-.97,0-1.94-.97-1.94-1.93v-9.68c0-.97.97-1.94,1.94-1.94h22.74c.97,0,1.93.97,1.93,1.94v9.68c0,.96-.96,1.93-1.93,1.93ZM70.32,185h19.36v-5.81h-19.36v5.81Z"/><path class="c" d="M78.06,162.26c-.97,0-1.94-.97-1.94-1.93v-55.65c0-.97.97-1.94,1.94-1.94s1.93.97,1.93,1.94v55.65c-.48,1.45-.97,1.93-1.93,1.93Z"/><path class="c" d="M86.77,169.52h-17.42c-.96,0-1.93-.97-1.93-1.93v-70.65c0-.48,0-.97.48-.97l8.71-13.06c.49-.49.97-.97,1.46-.97h0c.48,0,1.45.48,1.45.97l8.71,13.06c0,.49.48.49.48.97v70.65c-.48.96-.96,1.93-1.93,1.93ZM70.81,165.65h13.55v-68.23l-6.78-10.16-6.77,10.16v68.23Z"/><path class="c" d="M86.77,105.64h-17.42c-.96,0-1.93-.96-1.93-1.93v-7.26c0-.49,0-.97.48-.97l8.71-13.07c.49-.48.97-.97,1.46-.97h0c.48,0,1.45.49,1.45.97l8.71,13.07c0,.48.48.48.48.97v7.26c-.48,1.45-.96,1.93-1.93,1.93ZM70.81,102.26h13.55v-4.84l-6.78-10.16-6.77,10.16v4.84Z"/><path class="c" d="M80,218.87c-.97,0-1.93-.97-1.93-1.94v-30c0-.97.96-1.94,1.93-1.94s1.94.97,1.94,1.94v30c0,1.46-.97,1.94-1.94,1.94Z"/><path class="c" d="M242.59,239.2H53.38c-.97,0-1.93-.97-1.93-1.94s.96-1.93,1.93-1.93h189.2c.96,0,1.93.96,1.93,1.93s-.97,1.94-1.93,1.94Z"/><path class="c" d="M168.55,109.03c-4.35,0-7.74-3.39-7.74-7.74s3.39-7.75,7.74-7.75,7.75,3.39,7.75,7.75-3.39,7.74-7.75,7.74ZM168.55,96.93c-2.42,0-3.87,1.94-3.87,3.87s1.94,3.87,3.87,3.87c2.42,0,3.87-1.94,3.87-3.87s-1.46-3.87-3.87-3.87Z"/><path class="c" d="M111.45,218.87c-.48,0-1.45-.48-1.45-.97-.48-.97,0-1.93.97-2.42l40.16-21.77c.97-.48,1.94,0,2.42.97.48.97,0,1.94-.97,2.42l-40.16,21.77h-.97Z"/><path class="c" d="M125.48,197.1c-.49,0-1.45-.48-1.45-.97-.49-.97,0-1.93.96-2.42l28.07-15c.96-.49,1.93,0,2.42.97.48.96,0,1.93-.97,2.42l-28.06,15h-.97Z"/></g></svg>