<?xml version="1.0" encoding="UTF-8"?><svg id="a" xmlns="http://www.w3.org/2000/svg" viewBox="0 0 250 250"><defs><style>.b{fill:#fff;}</style></defs><polygon class="b" points="172.97 237.3 3.79 237.3 3.79 12.72 172.97 12.7 172.97 60.14 165.07 60.14 165.07 20.61 11.7 20.62 11.7 229.39 165.07 229.39 165.07 194.47 172.97 194.47 172.97 237.3"/><rect class="b" x="33.83" y="154.97" width="56.11" height="7.9"/><rect class="b" x="33.83" y="132.35" width="50.46" height="7.9"/><rect class="b" x="33.83" y="177.74" width="68.2" height="7.9"/><rect class="b" x="33.83" y="200.51" width="90.4" height="7.9"/><path class="b" d="M62.3,106.01c-17.87,0-32.42-14.54-32.42-32.42s14.54-32.41,32.42-32.41,32.41,14.54,32.41,32.41-14.54,32.42-32.41,32.42ZM62.3,49.08c-13.52,0-24.51,10.99-24.51,24.51s11,24.51,24.51,24.51,24.51-11,24.51-24.51-10.99-24.51-24.51-24.51Z"/><path class="b" d="M62.3,79.13c-7.04,0-12.76-5.72-12.76-12.76s5.72-12.76,12.76-12.76,12.76,5.72,12.76,12.76-5.72,12.76-12.76,12.76ZM62.3,61.51c-2.68,0-4.86,2.18-4.86,4.86s2.18,4.86,4.86,4.86,4.86-2.18,4.86-4.86-2.18-4.86-4.86-4.86Z"/><path class="b" d="M46.72,96.23l-7.22-3.22c4-8.98,12.95-14.78,22.79-14.78s18.76,5.79,22.78,14.75l-7.21,3.24c-2.75-6.13-8.87-10.09-15.58-10.09s-12.84,3.96-15.57,10.1Z"/><path class="b" d="M167.36,186.32c-23.69,0-46.21-14.05-55.8-37.27-12.69-30.72,1.98-66.04,32.71-78.73,30.73-12.69,66.04,1.99,78.73,32.71,12.69,30.73-1.98,66.04-32.7,78.73-7.5,3.1-15.28,4.56-22.93,4.56ZM167.22,73.65c-6.65,0-13.41,1.27-19.93,3.97-26.7,11.03-39.45,41.72-28.42,68.41s41.71,39.45,68.41,28.42c26.7-11.03,39.44-41.71,28.42-68.41-8.33-20.18-27.9-32.39-48.48-32.39Z"/><path class="b" d="M233.21,235.08c-.83,0-1.66-.08-2.49-.24-3.42-.66-6.37-2.61-8.32-5.49l-34.03-50.31,6.54-4.43,34.03,50.31c.77,1.13,1.93,1.9,3.27,2.16,1.34.26,2.7-.02,3.84-.79,1.13-.77,1.9-1.93,2.16-3.27s-.02-2.7-.79-3.84l-34.17-50.52,6.54-4.43,34.17,50.52c1.95,2.88,2.66,6.35,2,9.76-.66,3.41-2.61,6.37-5.49,8.32-2.18,1.48-4.69,2.24-7.27,2.24Z"/><path class="b" d="M129.55,151.55c-6.82-10.08-9.3-22.21-7-34.16s9.13-22.28,19.21-29.1l4.43,6.54c-8.33,5.64-13.97,14.18-15.87,24.05-1.91,9.88.15,19.9,5.78,28.23l-6.54,4.43Z"/></svg>