<?xml version="1.0" encoding="UTF-8"?><svg id="a" xmlns="http://www.w3.org/2000/svg" viewBox="0 0 250 250"><defs><style>.b{fill:#fff;}</style></defs><path class="b" d="M152.35,182.33c-16.01,0-29.03-13.02-29.03-29.03s13.02-29.03,29.03-29.03,29.03,13.02,29.03,29.03-13.02,29.03-29.03,29.03ZM152.35,129.72c-13,0-23.57,10.57-23.57,23.57s10.57,23.57,23.57,23.57,23.57-10.57,23.57-23.57-10.57-23.57-23.57-23.57Z"/><path class="b" d="M137.3,224.29v-47.75c0-1.51,1.22-2.73,2.73-2.73s2.73,1.22,2.73,2.73v36.05l10.78-9.03,10.78,9.03v-37.49c0-1.51,1.22-2.73,2.73-2.73s2.73,1.22,2.73,2.73v49.19l-16.25-13.61-16.24,13.61Z"/><path class="b" d="M152.35,168.58c-8.43,0-15.29-6.86-15.29-15.29s6.86-15.29,15.29-15.29,15.29,6.86,15.29,15.29-6.86,15.29-15.29,15.29ZM152.35,143.47c-5.42,0-9.83,4.41-9.83,9.83s4.41,9.82,9.83,9.82,9.82-4.41,9.82-9.82-4.41-9.83-9.82-9.83Z"/><path class="b" d="M243.46,190.43h-76.4c-1.51,0-2.73-1.22-2.73-2.73s1.22-2.73,2.73-2.73h70.94V31.17H12v153.8h128.03c1.51,0,2.73,1.22,2.73,2.73s-1.22,2.73-2.73,2.73H6.54V25.71h236.92v164.72Z"/><path class="b" d="M162.4,81.94h-76.91c-1.51,0-2.73-1.22-2.73-2.73s1.22-2.73,2.73-2.73h76.91c1.51,0,2.73,1.22,2.73,2.73s-1.22,2.73-2.73,2.73Z"/><path class="b" d="M181.33,101.65h-114.77c-1.51,0-2.73-1.22-2.73-2.73s1.22-2.73,2.73-2.73h114.77c1.51,0,2.73,1.22,2.73,2.73s-1.22,2.73-2.73,2.73Z"/><path class="b" d="M108.61,121.08h-42.04c-1.51,0-2.73-1.22-2.73-2.73s1.22-2.73,2.73-2.73h42.04c1.51,0,2.73,1.22,2.73,2.73s-1.22,2.73-2.73,2.73Z"/><path class="b" d="M108.61,140.31h-42.04c-1.51,0-2.73-1.22-2.73-2.73s1.22-2.73,2.73-2.73h42.04c1.51,0,2.73,1.22,2.73,2.73s-1.22,2.73-2.73,2.73Z"/><path class="b" d="M206.98,168.06h-31.23c-1.51,0-2.73-1.22-2.73-2.73s1.22-2.73,2.73-2.73h27.02c2.37-7.18,7.66-12.98,14.61-16v-76.02c-7.25-3.17-12.75-9.45-14.94-17.03H49.51c-2.4,8.29-8.75,14.98-16.9,17.79v74.49c7.85,2.69,13.98,8.89,16.58,16.77h79.77c1.51,0,2.73,1.22,2.73,2.73s-1.22,2.73-2.73,2.73H44.99l-.51-2.09c-1.84-7.6-7.69-13.52-15.27-15.46l-2.05-.53v-82.79l2.05-.53c7.83-2,13.91-8.43,15.48-16.38l.44-2.2h161.71l.43,2.2c1.44,7.31,6.71,13.38,13.75,15.85l1.83.64v83.61l-1.83.64c-6.79,2.38-11.85,7.96-13.54,14.94l-.51,2.09Z"/></svg>