<?xml version="1.0" encoding="UTF-8"?><svg id="a" xmlns="http://www.w3.org/2000/svg" viewBox="0 0 250 250"><defs><style>.c{fill:#fff;}</style></defs><g id="b"><path class="c" d="M236.44,163.52H61.26c-.92,0-1.84-.92-1.84-1.83V51.17c0-.92.92-1.83,1.84-1.83h175.18c.91,0,1.83.92,1.83,1.83v110.52c0,.92-.92,1.83-1.83,1.83ZM63.09,159.85h171.51V53H63.09v106.85Z"/><path class="c" d="M215.34,183.7H40.16c-.91,0-1.83-.92-1.83-1.83v-110.52c0-.92.92-1.83,1.83-1.83h21.1c.92,0,1.83.92,1.83,1.83v88.51h152.25c.92,0,1.84.92,1.84,1.83v20.18c0,1.38-.92,1.83-1.84,1.83ZM42,180.03h171.51v-16.51H61.26c-.92,0-1.84-.92-1.84-1.83v-88.5h-17.42v106.85Z"/><path class="c" d="M119.96,120.87h-50.44c-.92,0-1.84-.92-1.84-1.83v-18.34c0-.92.46-1.38,1.38-1.84l15.13-5.96c.92-.46,1.83,0,2.29.92l5.04,9.17,2.29-2.29c.92-.46,1.84-.92,2.29,0l1.84,1.83,5.5-8.71c.46-.92,1.37-.92,2.29-.92l15.13,5.96c.92.46,1.37.92,1.37,1.84v18.34c-.46.92-1.37,1.83-2.29,1.83ZM71.35,117.2h46.77v-15.59l-12.38-5.04-5.97,9.63c-.46.46-.91.92-1.37.92s-.92,0-1.37-.46l-2.29-2.29-2.75,2.75c-.46.46-.92.46-1.38.46s-.91-.46-1.37-.92l-5.5-10.09-12.38,4.59v16.05h0Z"/><path class="c" d="M111.24,120.87h-33.48c-.92,0-1.83-.92-1.83-1.83v-11.46c0-.92.91-1.84,1.83-1.84s1.84.92,1.84,1.84v9.63h29.81v-9.63c0-.92.92-1.84,1.83-1.84s1.84.92,1.84,1.84v11.46c0,.92-.92,1.83-1.84,1.83Z"/><path class="c" d="M94.73,92.44c-9.63,0-14.21-12.84-14.21-19.72,0-7.8,6.42-14.22,14.21-14.22s14.21,6.42,14.21,14.22c.46,6.88-4.59,19.72-14.21,19.72ZM94.73,61.72c-5.96,0-10.55,4.59-10.55,10.55,0,5.5,4.12,16.05,10.55,16.05s10.55-10.55,10.55-16.05c.46-5.5-4.59-10.55-10.55-10.55Z"/><path class="c" d="M104.36,71.35c-3.67,0-6.88-.92-9.17-2.75-.91-.46-.91-1.84-.46-2.75.46-.92,1.84-.92,2.75-.46,1.84,1.37,4.59,2.29,6.88,2.29h2.29c.92,0,1.84.46,1.84,1.37s-.46,1.84-1.37,1.84c-.92.46-1.84.46-2.75.46Z"/><path class="c" d="M88.31,71.35c-1.83,0-4.12-.46-5.96-.92-.92-.46-1.37-1.38-.92-2.75.46-.92,1.38-1.37,2.29-.92,1.38.46,3.21.92,4.59.92,5.05,0,9.17-2.75,9.17-5.96,0-.92.92-1.84,1.84-1.84s1.84.92,1.84,1.84c0,5.04-5.5,9.63-12.84,9.63Z"/><path class="c" d="M98.4,107.12c-.46,0-.92,0-1.37-.46l-3.67-3.21c-.46-.46-.92-1.83,0-2.29l7.34-10.09c.46-.46.92-.46,1.37-.92.46,0,.92,0,1.38.46l2.75,2.75c.46.46.92,1.37.46,2.29l-6.88,10.55c0,.46-.46.92-1.37.92h0ZM97.03,101.61l.92.92,4.59-7.8-.46-.46-5.04,7.34Z"/><path class="c" d="M90.6,107.58h0c-.91,0-1.37-.46-1.37-.92l-6.42-11.46c-.46-.92-.46-1.83.46-2.29l2.75-2.29c.46-.46.92-.46,1.38-.46s.91.46,1.37.92l7.34,10.09c.46.92.46,1.84,0,2.29l-4.12,4.13h-1.38ZM86.94,95.19l4.59,7.8,1.37-1.38-5.96-6.42h0Z"/><path class="c" d="M118.58,141.97h-47.69c-.92,0-1.83-.92-1.83-1.84v-9.63c0-.92.91-1.84,1.83-1.84h47.23c.92,0,1.84.92,1.84,1.84v9.63c.46.92-.46,1.84-1.37,1.84ZM72.72,138.3h44.02v-5.96h-44.02v5.96Z"/><path class="c" d="M216.71,99.32h-39.89c-.92,0-1.84-.92-1.84-1.83s.92-1.83,1.84-1.83h39.89c.92,0,1.84.92,1.84,1.83-.46,1.37-.92,1.83-1.84,1.83Z"/><path class="c" d="M216.71,107.58h-60.99c-.92,0-1.83-.92-1.83-1.84s.91-1.83,1.83-1.83h60.53c.92,0,1.84.92,1.84,1.83s-.46,1.84-1.38,1.84Z"/><path class="c" d="M216.71,115.83h-60.99c-.92,0-1.83-.92-1.83-1.83s.91-1.83,1.83-1.83h60.53c.92,0,1.84.92,1.84,1.83s-.46,1.83-1.38,1.83Z"/><path class="c" d="M216.71,123.63h-56.4c-.92,0-1.83-.92-1.83-1.84s.91-1.83,1.83-1.83h56.4c.92,0,1.84.92,1.84,1.83-.46.92-.92,1.84-1.84,1.84Z"/><path class="c" d="M216.71,131.88h-42.65c-.92,0-1.83-.92-1.83-1.83s.91-1.83,1.83-1.83h42.65c.92,0,1.84.92,1.84,1.83-.46.92-.92,1.83-1.84,1.83Z"/><path class="c" d="M216.71,139.68h-20.17c-.92,0-1.84-.92-1.84-1.84s.92-1.83,1.84-1.83h20.17c.92,0,1.84.92,1.84,1.83s-.92,1.84-1.84,1.84Z"/><path class="c" d="M217.63,91.07h-41.27c-.92,0-1.83-.92-1.83-1.83v-23.85c0-.92.91-1.83,1.83-1.83h41.27c.92,0,1.84.92,1.84,1.83v23.85c0,.92-.92,1.83-1.84,1.83ZM178.2,87.4h37.6v-20.18h-37.6v20.18Z"/><path class="c" d="M158.02,191.95H19.07c-.92,0-1.84-.92-1.84-1.83s.92-1.84,1.84-1.84h138.95c.92,0,1.84.92,1.84,1.84,0,1.37-.92,1.83-1.84,1.83Z"/><path class="c" d="M196.54,200.67h-96.3c-.92,0-1.84-.92-1.84-1.83s.92-1.83,1.84-1.83h96.3c.92,0,1.83.92,1.83,1.83s-.91,1.83-1.83,1.83Z"/><path class="c" d="M218.55,200.67h-11.92c-.92,0-1.84-.92-1.84-1.83s.92-1.83,1.84-1.83h11.92c.92,0,1.84.92,1.84,1.83s-.92,1.83-1.84,1.83Z"/><path class="c" d="M58.97,200.21H13.56c-.92,0-1.83-.92-1.83-1.83s.91-1.83,1.83-1.83h45.4c.92,0,1.83.92,1.83,1.83,0,1.37-.91,1.83-1.83,1.83Z"/></g></svg>