<?xml version="1.0" encoding="UTF-8"?><svg id="a" xmlns="http://www.w3.org/2000/svg" viewBox="0 0 250 250"><defs><style>.b{fill:#2ca5bc;}</style></defs><path class="b" d="M126.68,209.4c-.51,0-1.01,0-1.52-.5-.5-.51-.5-1.01-.5-1.52v-20.22c-4.04,0-8.08.5-11.62.5-9.1,0-15.67-1.52-19.71-7.58-3.54-6.07-4.04-15.16-4.04-29.82-4.55-1.52-9.1-3.53-13.14-6.57-1.01-.5-1.01-1.52-.5-2.53l13.14-27.8c-1.01-4.04-1.01-8.59-1.01-13.14,0-38.92,31.84-70.76,70.76-70.76s70.76,31.84,70.76,70.76c0,19.71-7.58,37.4-21.73,51.04v9.6c0,1.01-1.01,2.02-2.02,2.02h-25.27v12.13h1.52c1.01,0,2.02,1.01,2.02,2.02v21.22c0,1.01-.51,2.02-1.52,2.02l-55.59,9.1h0ZM126.68,183.63c.5,0,1.01,0,1.52.5.5.51.5,1.01.5,1.52v19.71l51.05-8.59v-17.18h-1.52c-1.01,0-2.02-1.01-2.02-2.02v-16.17c0-1.01,1.01-2.02,2.02-2.02h25.27v-8.59c0-.51,0-1.01.51-1.52,13.65-12.64,21.23-30.32,21.23-49.03,0-36.89-29.82-66.71-66.71-66.71s-66.71,29.82-66.71,66.71c0,4.04.51,8.59,1.01,12.64v1.01l-12.64,26.79c3.54,2.53,7.58,4.55,12.13,5.56,1.01,0,1.52,1.01,1.52,2.02,0,14.15.51,24.26,3.54,29.31,2.53,4.55,6.57,6.07,16.17,6.07,3.04.5,8.09,0,13.14,0-.51,0,0,0,0,0Z"/><path class="b" d="M140.33,194.24c-1.01,0-1.52-.5-2.02-1.52,0-1.01.5-2.02,1.52-2.53l40.94-8.08c1.01,0,2.02.5,2.53,1.52,0,1.01-.5,2.02-1.52,2.53l-41.44,8.08c.51,0,0,0,0,0Z"/><path class="b" d="M89.28,209.4c-.51,0-1.01,0-1.52-.5-.51,0-.51-.51-.51-1.52v-20.22c-4.04,0-8.09.5-11.62.5-9.1,0-15.67-1.52-19.71-7.58-3.54-6.07-4.04-15.16-4.04-29.82-4.55-1.52-9.1-3.53-13.14-6.57-1.01-.5-1.01-1.52-.51-2.53l13.14-27.8c-1.01-4.55-1.01-8.59-1.01-13.14,0-38.92,31.84-70.76,70.75-70.76,6.57,0,13.14,1.01,19.2,2.53,1.01,0,1.52,1.01,1.52,2.02s-.51,1.52-1.52,2.02c-28.8,8.08-48.52,34.37-48.52,64.69,0,4.55.51,8.59,1.01,12.64v1.01l-12.64,26.79c3.54,2.53,7.58,4.55,12.13,5.56,1.01,0,1.52,1.01,1.52,2.02,0,14.15.51,24.26,3.54,29.31,2.53,4.55,6.57,6.07,16.17,6.07,4.04,0,8.59-.5,13.65-.5.5,0,1.01,0,1.52.5.51.51.51,1.01.51,1.52v15.67c0,1.01-.51,2.02-1.52,2.02l-38.41,6.07h0ZM89.28,183.63c.51,0,1.01,0,1.52.5.5.51.5,1.01.5,1.52v19.71l33.36-5.56v-11.63c-4.04,0-8.08.51-11.62.51-9.1,0-15.67-1.52-19.71-7.58-3.54-6.07-4.04-15.16-4.04-29.82-4.55-1.52-9.1-3.54-13.14-6.57-1.01-.5-1.01-1.52-.5-2.53l13.14-27.8c-1.01-4.04-1.01-8.59-1.01-13.14,0-29.32,18.19-55.59,44.98-66.21-3.53-.5-7.58-1.01-11.11-1.01-36.9,0-66.71,29.82-66.71,66.71,0,4.04.51,8.59,1.01,12.64v1.01l-12.64,26.79c4.04,2.53,7.58,4.55,12.13,5.56,1.01,0,1.52,1.01,1.52,2.02,0,14.15.51,24.26,3.54,29.31,2.53,4.55,6.57,6.07,16.17,6.07,2.53,0,7.58-.5,12.64-.5q-.51,0,0,0Z"/><path class="b" d="M51.38,209.4c-.51,0-1.01,0-1.52-.5-.51-.51-.51-1.01-.51-1.52v-20.22c-4.04,0-8.09.5-11.62.5-9.1,0-15.67-1.52-19.71-7.58-3.54-6.07-4.04-15.16-4.04-29.82-4.55-1.52-9.1-3.53-13.14-6.57-1.01-.5-1.01-1.52-.51-2.53l13.14-27.8c-1.01-4.04-1.01-8.59-1.01-13.14,0-38.92,31.84-70.76,70.76-70.76,6.57,0,13.14,1.01,19.2,2.53,1.01,0,1.52,1.01,1.52,2.02s-.51,1.52-1.52,2.02c-28.81,8.08-48.52,34.37-48.52,64.69,0,4.04.51,8.59,1.01,12.64v1.01l-12.64,26.79c4.04,2.53,7.58,4.55,12.13,5.56,1.01,0,1.52,1.01,1.52,2.02,0,14.15.51,24.26,3.54,29.31,2.53,4.55,6.57,6.07,16.17,6.07,4.04,0,8.59-.5,13.64-.5.51,0,1.01,0,1.52.5.5.51.5,1.01.5,1.52v15.67c0,1.01-.5,2.02-1.52,2.02l-38.41,6.07q.51,0,0,0ZM51.38,183.63c.51,0,1.01,0,1.52.5.5.51.5,1.01.5,1.52v19.71l33.36-5.56v-11.63c-4.04,0-8.09.51-11.62.51-9.1,0-15.67-1.52-19.71-7.58-3.54-6.07-4.04-15.16-4.04-29.82-4.55-1.52-9.1-3.54-13.14-6.57-1.01-.5-1.01-1.52-.5-2.53l13.14-27.8c-1.01-4.55-1.01-8.59-1.01-13.14,0-29.32,18.2-55.59,44.98-66.21-3.54-.5-7.58-1.01-11.12-1.01-36.89,0-66.71,29.82-66.71,66.71,0,4.55.51,8.59,1.01,12.64v1.01l-12.64,26.79c3.54,2.53,7.58,4.55,12.13,5.56,1.01,0,1.52,1.01,1.52,2.02,0,14.15.51,24.26,3.54,29.31,2.53,4.55,6.57,6.07,16.17,6.07,3.03,0,8.09-.5,12.64-.5h0Z"/><path class="b" d="M164.59,149.76h-19.21c-5.56,0-10.61-4.55-10.61-10.61v-12.64c-8.59-6.57-14.15-16.68-14.15-27.29,0-18.7,15.16-33.86,33.86-33.86s33.86,15.16,33.86,33.86c0,10.61-5.05,21.23-14.15,27.29v12.64c1.01,6.06-3.54,10.61-9.6,10.61ZM154.98,68.9c-16.68,0-29.82,13.65-29.82,29.82,0,10.11,5.05,19.2,13.14,24.76.5.51,1.01,1.01,1.01,1.52v13.65c0,3.54,3.03,6.57,6.57,6.57h19.2c3.54,0,6.57-3.03,6.57-6.57v-13.65c0-.5.51-1.52,1.01-1.52,8.08-5.56,13.14-14.65,13.14-24.76-.5-16.17-14.15-29.82-30.83-29.82Z"/><path class="b" d="M154.98,149.76c-1.01,0-2.02-1.01-2.02-2.02v-48.52c0-1.01.51-1.52,1.01-2.02l16.68-8.08c1.01-.5,2.02,0,2.53,1.01.51,1.01,0,2.02-1.01,2.53l-15.67,7.58v47.51c.51,1.01-.5,2.02-1.52,2.02Z"/><path class="b" d="M154.98,149.26c-1.01,0-2.02-1.01-2.02-2.02v-47l-15.16-7.58c-1.01-.51-1.52-1.52-1.01-2.53.5-1.01,1.52-1.52,2.53-1.01l16.68,8.08c.5.51,1.01,1.01,1.01,2.02v48.01c0,1.01-1.01,2.02-2.02,2.02Z"/><path class="b" d="M175.2,68.11c-1.02,0-1.44-.25-2.06-.84-1.04-.65-1.74-1.85-1.74-3.02,0-.85.36-1.61.99-2.12l4.83-8.21c.61-1.17,1.86-1.95,3.13-1.95h0c.86,0,1.63.37,2.14,1,.94.67,1.56,1.8,1.56,2.9,0,.85-.36,1.61-.99,2.12l-4.71,8c-.41,1.39-2.16,2.12-3.16,2.12ZM175.08,64.65h0ZM175.08,64.38l.14.09,5.14-8.75-.15-.08-5.14,8.74ZM179.72,55.02s.02.04.03.05l-.03-.05Z"/><path class="b" d="M189.86,82.76c-1.03,0-2.86-.77-3.2-2.26-.65-1.62,0-3.28.97-4.25l.15-.15,8.88-5.22c1.69-.85,3.49-.21,4.53.82l.2.2.13.26c.85,1.71.19,3.51-.84,4.53l-.15.15-8.25,4.85c-.34.55-1.03,1.06-2.42,1.06ZM189.98,78.84c-.05.07-.1.17-.11.26l8.46-4.97s.06-.09.08-.15c-.06-.02-.11-.02-.16,0l-8.27,4.86Z"/><path class="b" d="M205.53,102.98h-10.11c-1.97,0-3.76-1.79-3.76-3.76s1.79-3.76,3.76-3.76h10.11c1.97,0,3.76,1.79,3.76,3.76s-1.79,3.76-3.76,3.76ZM205.5,99.52h0ZM205.5,98.93h-10.08c-.08.02-.27.21-.29.32.02.06.21.25.32.27h10.07c.11-.03.29-.21.31-.32-.02-.06-.21-.24-.32-.27Z"/><path class="b" d="M136.28,68.11c-.99,0-2.74-.73-3.16-2.12l-4.96-8.44c-.85-1.69-.2-3.49.82-4.52l.2-.2.26-.13c1.71-.85,3.51-.19,4.53.84l.15.15,5.22,8.88c.85,1.69.2,3.49-.82,4.53-.24.24-1.11,1.02-2.24,1.02ZM136.41,64.65h0ZM131.25,55.97l4.97,8.44c.04-.09.07-.18.04-.26l-4.86-8.27s-.09-.06-.15-.08c-.01.06-.02.11,0,.16Z"/><path class="b" d="M121.63,82.76c-1.03,0-1.47-.26-2.08-.86l-8.36-4.92c-1.17-.61-1.95-1.86-1.95-3.13,0-.86.36-1.63,1-2.14.66-.95,1.77-1.56,2.89-1.56h0c.85,0,1.61.36,2.13.99l8.21,4.83c1.15.6,1.95,1.88,1.96,3.13,0,.78-.3,1.49-.83,1.99-.61,1.1-2.09,1.67-2.97,1.67ZM112.92,73.99l8.49,4.99v-.03l.15-.08-8.56-5.04-.08.15ZM112.37,74.45l-.07.04s.05-.03.07-.04Z"/><path class="b" d="M116.07,102.98h-10.11c-1.96,0-3.75-1.79-3.75-3.76s1.79-3.76,3.75-3.76h10.11c1.97,0,3.76,1.79,3.76,3.76,0,2.25-1.51,3.76-3.76,3.76ZM116.04,98.93h-10.08c-.08.02-.26.21-.29.31.02.06.21.25.31.27h10.08c.16,0,.25-.03.28-.04-.02.02.01-.09.01-.25-.02-.08-.21-.27-.31-.29Z"/><path class="b" d="M154.98,60.52c-1.97,0-3.76-1.79-3.76-3.76v-8.59c0-1.97,1.79-3.76,3.76-3.76s3.76,1.79,3.76,3.76v8.59c0,1.97-1.79,3.76-3.76,3.76ZM154.96,57.06h0ZM154.96,47.89c-.06.02-.24.21-.27.32v8.56c.02.08.18.24.29.28.11-.04.27-.21.29-.31v-8.56c-.02-.08-.21-.27-.32-.29Z"/><path class="b" d="M167.62,156.33h-22.24c-1.01,0-2.02-1.01-2.02-2.02v-6.57c0-1.01,1.01-2.02,2.02-2.02h22.24c1.01,0,2.02,1.01,2.02,2.02v6.57c0,1.52-1.01,2.02-2.02,2.02ZM147.4,152.29h18.19v-3.03h-18.19v3.03Z"/><path class="b" d="M164.59,163.41h-15.67c-1.01,0-2.02-1.01-2.02-2.02v-6.57c0-1.01,1.01-2.02,2.02-2.02h15.67c1.01,0,2.02,1.01,2.02,2.02v6.57c0,1.01-1.01,2.02-2.02,2.02ZM150.94,159.37h11.62v-2.53h-11.62v2.53Z"/><path class="b" d="M245.45,179.08h-67.73c-1.01,0-2.02-1.01-2.02-2.02v-16.17c0-1.01,1.01-2.02,2.02-2.02h48.01c1.01,0,2.02.51,2.02,1.52.5,4.55,4.55,8.09,9.1,8.09,2.53,0,5.56-1.01,7.07-3.54.51-.5,1.52-1.01,2.02-.5,1.01.5,1.52,1.01,1.52,2.02v10.62c0,1.52-1.01,2.02-2.02,2.02ZM179.75,175.54h63.68v-4.04c-2.02,1.01-4.04,2.02-6.57,2.02-6.07,0-11.12-4.04-12.64-9.6h-43.97v11.62h-.5Z"/><path class="b" d="M241.92,220.52h-60.65c-1.01,0-2.02-1.01-2.02-2.02v-41.44c0-1.01,1.01-2.02,2.02-2.02h60.65c1.01,0,2.02,1.01,2.02,2.02v41.44c0,1.01-1.01,2.02-2.02,2.02ZM183.29,216.48h56.61v-37.4h-56.61v37.4Z"/><path class="b" d="M211.59,220.52c-1.01,0-2.02-1.01-2.02-2.02v-41.44c0-1.01,1.01-2.02,2.02-2.02s2.02,1.01,2.02,2.02v41.44c0,1.01-.5,2.02-2.02,2.02Z"/><path class="b" d="M236.86,173.01c-7.08,0-13.14-6.06-13.14-13.14s6.07-13.14,13.14-13.14,13.14,6.06,13.14,13.14-6.07,13.14-13.14,13.14ZM236.86,150.78c-5.05,0-9.1,4.04-9.1,9.1s4.04,9.1,9.1,9.1,9.1-4.04,9.1-9.1-4.04-9.1-9.1-9.1Z"/><path class="b" d="M241.41,161.9h-8.59c-1.01,0-2.02-1.01-2.02-2.02s1.01-2.02,2.02-2.02h8.59c1.01,0,2.02,1.01,2.02,2.02s-1.01,2.02-2.02,2.02Z"/><path class="b" d="M236.86,165.94c-1.01,0-2.02-1.01-2.02-2.02v-8.59c0-1.01,1.01-2.02,2.02-2.02s2.02,1.01,2.02,2.02v8.59c0,1.52-1.01,2.02-2.02,2.02Z"/></svg>