<?xml version="1.0" encoding="UTF-8"?><svg id="a" xmlns="http://www.w3.org/2000/svg" viewBox="0 0 250 250"><defs><style>.c{fill:#fff;}</style></defs><g id="b"><path class="c" d="M75.27,194.52c-38.63,0-69.52-31.38-69.52-69.53S37.13,55.48,75.27,55.48s69.53,31.38,69.53,69.52-30.9,69.53-69.53,69.53ZM75.27,59.34c-36.21,0-65.66,29.45-65.66,65.66s29.45,65.67,65.66,65.67,65.67-29.45,65.67-65.67-29.45-65.66-65.67-65.66Z"/><path class="c" d="M174.73,194.52c-38.63,0-69.53-31.38-69.53-69.53s31.38-69.52,69.53-69.52,69.52,31.38,69.52,69.52-31.38,69.53-69.52,69.53ZM174.73,59.34c-36.21,0-65.67,29.45-65.67,65.66s29.45,65.67,65.67,65.67,65.66-29.45,65.66-65.67-29.45-65.66-65.66-65.66Z"/><path class="c" d="M71.89,171.83h-19.79c-.97,0-1.93-.97-1.93-1.93v-89.8c0-.97.97-1.93,1.93-1.93h3.38c8.69,0,16.9,2.41,23.17,7.24,14.48,10.62,14.48,21.73,14.48,29.45,0,2.9,0,5.31.97,6.76.97,1.45,2.41,2.9,3.38,4.34,1.93,2.41,3.86,4.35,3.38,6.76-.48,2.41-3.38,2.89-5.79,3.38h-.97c-.49,0-.49,2.89,0,4.34.48,3.38.48,7.24-1.45,9.66-1.45,1.45-3.87,2.41-7.24,2.41h-4.35c-1.93,0-2.41.49-3.38,1.45-.97.97-.97,4.83-.97,7.24,0,4.83,0,9.18-2.9,11.11-.97-.49-1.45-.49-1.93-.49ZM54.03,168.45h16.9c.96-1.45.96-4.83.96-7.24,0-3.86,0-7.72,1.93-9.66,1.93-2.41,4.35-2.41,6.28-2.41h5.31c1.93,0,3.38-.48,3.86-.96,1.45-1.45.97-4.35.48-6.76-.48-3.38-.48-7.24,2.41-8.21.49,0,.97-.48.97-.48h.48c1.93-.49,2.41-.97,2.9-.97-.49-.48-1.45-1.93-2.41-2.89-1.45-1.45-2.9-2.9-3.86-4.83-1.45-2.9-1.45-5.79-1.45-9.66,0-7.24,0-16.9-12.55-26.55-6.28-4.34-14-6.76-22.21-6.28v86.9Z"/><path class="c" d="M80.1,114.86c-.48,0-1.45-.48-1.45-.96-.97-1.45-.97-2.9-.97-5.31,0-3.86,0-8.69-6.28-13.04-3.38-2.41-7.72-3.38-12.07-3.38-.97,0-1.93-.48-1.93-1.93,0-.96.49-1.93,1.93-1.93,5.31-.48,10.62.97,14.48,3.86,8.21,5.79,7.72,12.07,7.72,16.42,0,1.45,0,2.41.49,2.9.48.96.48,1.93-.49,2.41q-.96.96-1.45.96Z"/><path class="c" d="M197.91,171.83h-19.8c-.48,0-.96,0-.96-.48-2.9-1.93-2.9-6.28-2.9-11.1,0-2.9,0-6.28-.97-7.24-.96-.97-1.93-1.45-3.38-1.45h-4.83c-2.9,0-5.31-.96-6.76-2.41-2.41-2.41-1.93-6.76-1.45-9.66,0-1.45.48-4.34,0-4.34h-.97c-2.41-.49-4.83-1.45-5.79-3.38-.97-2.41.97-4.35,3.38-6.76.97-1.45,2.41-2.89,3.38-4.34.97-1.45.97-3.86.97-6.76,0-7.73,0-19.31,14.48-29.45,6.28-4.34,14.48-7.24,23.17-7.24h3.38c.96,0,1.93.96,1.93,1.93v90.28c-.97,1.93-1.93,2.41-2.89,2.41ZM178.59,168.45h17.38v-86.42c-8.21-.48-15.93,1.93-22.21,6.28-13.04,9.17-12.56,19.31-12.56,26.55,0,3.38,0,6.28-1.45,8.69-.97,1.93-2.41,3.38-3.86,4.83-.97.97-1.93,2.41-2.41,2.9.48,0,.97.48,2.9.96h.49q.48,0,.97.49c2.89,1.45,2.89,4.83,2.41,8.21-.49,2.41-.49,5.31.48,6.76.48.97,1.93.97,3.86.97h5.31c1.93,0,4.34.48,6.28,2.41,1.93,1.93,1.93,5.79,1.93,9.66,0,2.41,0,6.28.49,7.72Z"/><path class="c" d="M169.9,114.86q-.49,0-.97-.48c-.97-.48-.97-1.93-.49-2.41.49-.48.49-1.93.49-2.89,0-4.35,0-10.62,7.72-16.42,3.86-2.89,9.18-4.34,14.48-3.86.97,0,1.93.97,1.93,1.93s-.97,1.93-1.93,1.93c-4.34-.48-8.69.97-12.07,3.38-6.28,4.83-6.28,9.17-6.28,13.04,0,1.93,0,3.86-.97,4.83-.48.48-1.45.96-1.93.96Z"/><path class="c" d="M174.73,184.87c-17.38,0-33.8-7.24-44.91-20.28-.48-.48-.48-1.45,0-2.41,7.73-11.1,11.59-23.65,11.59-37.18s-3.86-26.07-11.59-37.18c-.48-.48-.48-1.45,0-2.41,11.59-13.03,28.01-20.28,44.91-20.28,33.31,0,59.87,27.04,59.87,59.87s-27.04,59.87-59.87,59.87ZM133.69,163.14c10.62,11.59,25.59,17.87,41.04,17.87,30.9,0,56-25.11,56-56.01s-25.11-56-56-56c-15.45,0-30.42,6.76-41.04,17.87,7.24,11.59,11.58,24.62,11.58,38.14-.48,13.52-4.34,27.04-11.58,38.14Z"/><path class="c" d="M75.27,184.87c-33.31,0-59.87-27.04-59.87-59.87s27.04-59.87,59.87-59.87c17.38,0,33.8,7.24,44.9,20.28.49.48.49,1.45,0,2.41-7.72,11.11-11.58,23.66-11.58,37.18s3.86,26.55,11.58,37.18c.49.49.49,1.45,0,2.41-11.1,13.04-27.52,20.28-44.9,20.28ZM75.27,68.99c-30.9,0-56,25.11-56,56s25.11,56.01,56,56.01c15.45,0,30.42-6.76,41.04-17.87-7.24-11.1-11.58-24.62-11.58-38.14s3.86-27.04,11.58-38.14c-10.62-11.59-25.59-17.87-41.04-17.87Z"/></g></svg>