<?xml version="1.0" encoding="UTF-8"?><svg id="a" xmlns="http://www.w3.org/2000/svg" viewBox="0 0 250 250"><defs><style>.b{fill:#fff;}</style></defs><path class="b" d="M213.96,245.44H31.75V4.56h186.5l-.61,230.54c0,1.47-.87,2.73-2.11,3.32,1.25.59,2.11,1.86,2.11,3.33,0,2.03-1.65,3.68-3.68,3.68ZM39.11,238.07h172.69c-.92-.67-1.52-1.76-1.52-2.99l.59-223.16H39.11v226.15Z"/><path class="b" d="M78.26,195.7c-7.94,0-14.4-6.46-14.4-14.4s6.46-14.4,14.4-14.4,14.4,6.46,14.4,14.4-6.46,14.4-14.4,14.4ZM78.26,174.26c-3.88,0-7.03,3.16-7.03,7.04s3.16,7.04,7.03,7.04,7.04-3.16,7.04-7.04-3.16-7.04-7.04-7.04Z"/><path class="b" d="M182.38,56.74h-70.43c-2.03,0-3.68-1.65-3.68-3.68s1.65-3.68,3.68-3.68h70.43c2.03,0,3.68,1.65,3.68,3.68s-1.65,3.68-3.68,3.68Z"/><path class="b" d="M182.38,141.34h-70.43c-2.03,0-3.68-1.65-3.68-3.68s1.65-3.68,3.68-3.68h70.43c2.03,0,3.68,1.65,3.68,3.68s-1.65,3.68-3.68,3.68Z"/><path class="b" d="M78.26,111.86c-7.94,0-14.4-6.46-14.4-14.4s6.46-14.4,14.4-14.4,14.4,6.46,14.4,14.4-6.46,14.4-14.4,14.4ZM78.26,90.43c-3.88,0-7.03,3.16-7.03,7.03s3.16,7.04,7.03,7.04,7.04-3.16,7.04-7.04-3.16-7.03-7.04-7.03Z"/><path class="b" d="M182.38,98.85h-70.43c-2.03,0-3.68-1.65-3.68-3.68s1.65-3.68,3.68-3.68h70.43c2.03,0,3.68,1.65,3.68,3.68s-1.65,3.68-3.68,3.68Z"/><path class="b" d="M160.17,182.68h-48.23c-2.03,0-3.68-1.65-3.68-3.68s1.65-3.68,3.68-3.68h48.23c2.03,0,3.68,1.65,3.68,3.68s-1.65,3.68-3.68,3.68Z"/><path class="b" d="M75.09,62.25l-11.33-7.67c-1.68-1.14-2.12-3.43-.98-5.11,1.14-1.68,3.43-2.11,5.11-.98l5.64,3.82,10.64-13.62c1.25-1.61,3.56-1.89,5.17-.64,1.6,1.25,1.89,3.57.64,5.17l-14.87,19.04Z"/><path class="b" d="M75.09,150.29l-11.33-7.67c-1.68-1.14-2.12-3.43-.98-5.11,1.14-1.68,3.43-2.12,5.11-.98l5.64,3.81,10.64-13.62c1.25-1.6,3.56-1.89,5.17-.64,1.6,1.25,1.89,3.57.64,5.17l-14.87,19.04Z"/></svg>