<?xml version="1.0" encoding="UTF-8"?><svg id="a" xmlns="http://www.w3.org/2000/svg" viewBox="0 0 250 250"><defs><style>.b{fill:#2ca5bc;}</style></defs><polygon class="b" points="107.17 73.97 107.08 73.97 107.08 67.31 107.17 73.97"/><polygon class="b" points="212.07 201.64 1.67 201.64 1.67 67.31 20.7 67.31 20.7 73.97 8.33 73.97 8.33 194.99 205.42 194.99 205.42 156.81 212.07 156.81 212.07 201.64"/><polygon class="b" points="212.07 87.6 205.42 87.6 205.42 73.97 193.56 73.97 193.56 67.31 212.07 67.31 212.07 87.6"/><path class="b" d="M105.54,200.85c-.8,0-1.59-.21-2.31-.62-38.38-21.98-81.59-15.6-82.02-15.54l-3.84.59v-3.88s0-130.46,0-130.46l2.74-.49c2.2-.39,54.2-9.32,89,17.56l1.29,1v126.91c0,1.75-.95,3.39-2.47,4.27-.75.44-1.57.65-2.39.65ZM37.2,177.04c16.27,0,41.87,2.6,66.55,15.86v-120.6c-28.07-20.62-68.86-17.09-79.73-15.7v121.04c2.97-.29,7.51-.61,13.18-.61Z"/><path class="b" d="M89.93,169.37c-22.66-8.1-41.53-10.31-53.37-10.74l.24-6.65c12.31.45,31.91,2.74,55.37,11.12l-2.24,6.27Z"/><path class="b" d="M89.93,150.05c-22.69-8.11-41.54-10.31-53.36-10.73l.23-6.65c12.29.43,31.88,2.71,55.37,11.11l-2.24,6.27Z"/><path class="b" d="M89.93,131.31c-22.69-8.11-41.54-10.31-53.36-10.73l.23-6.65c12.29.43,31.87,2.71,55.37,11.11l-2.24,6.27Z"/><path class="b" d="M89.92,108.73c-7.23-2.58-14.46-4.72-21.47-6.34l1.5-6.48c7.26,1.68,14.74,3.89,22.21,6.55l-2.24,6.27Z"/><path class="b" d="M89.92,89.99c-7.14-2.55-14.36-4.68-21.48-6.34l1.51-6.48c7.36,1.71,14.83,3.92,22.21,6.55l-2.24,6.27Z"/><path class="b" d="M123.75,148.79l-2.24-6.27c7.74-2.76,15.53-5.04,23.16-6.77l1.47,6.49c-7.37,1.67-14.9,3.87-22.39,6.54Z"/><polygon class="b" points="175.7 159.62 175.69 159.62 175.69 152.96 175.7 159.62"/><path class="b" d="M123.75,170.31l-2.24-6.27c12.75-4.56,25.61-7.78,38.22-9.57l.94,6.59c-12.17,1.73-24.59,4.84-36.92,9.25Z"/><path class="b" d="M123.75,129.48l-2.24-6.27c6.42-2.29,12.87-4.25,19.16-5.8l1.6,6.46c-6.08,1.51-12.31,3.39-18.52,5.61Z"/><path class="b" d="M123.75,110.75l-2.24-6.27c7.75-2.78,15.61-5.07,23.36-6.82l1.47,6.49c-7.49,1.69-15.08,3.91-22.58,6.6Z"/><path class="b" d="M123.75,91.86l-2.24-6.27c15.03-5.38,30.1-8.87,44.8-10.37l.68,6.62c-14.16,1.45-28.71,4.82-43.24,10.02Z"/><path class="b" d="M108.72,200.8c-.93,0-1.86-.27-2.66-.79-1.39-.9-2.22-2.43-2.22-4.09v-126.98l1.38-1c38.91-28.19,87.03-17.91,89.06-17.46l2.61.58v31.12h-6.66v-25.67c-10.22-1.64-48.48-5.87-79.73,15.85v120.62c34.75-17.87,68.49-16.47,79.73-15.35v-19.44h6.66v27.12l-3.87-.64c-.41-.07-41.53-6.43-82.06,15.58l-.24.12c-.64.28-1.32.43-2,.43Z"/><path class="b" d="M60.6,107.53l-3.87-.63c-6.86-1.12-13.65-1.82-20.18-2.06l-3.2-.12v-34.91l3.44.12c6.78.24,13.86.96,21.02,2.14l2.79.46v35ZM40.01,98.34c4.57.26,9.23.73,13.94,1.4v-21.54c-4.73-.7-9.4-1.19-13.94-1.46v21.6Z"/><path class="b" d="M188.54,161.85c-3.33,0-6.63-.4-9.88-1.2-.73-.18-1.43-.37-2.1-.57l-.14.13-1.99-.84c-10.15-3.63-18.39-10.97-23.2-20.68-3.11-6.25-4.6-13.23-4.31-20.17.1-2.75.49-5.52,1.15-8.22,5.04-20.73,24.79-34.24,45.93-31.41,1.44.18,2.93.46,4.41.83,4.29,1.04,8.36,2.74,12.09,5.06,15.36,9.52,22.8,27.71,18.51,45.27-1.79,7.35-5.55,14.08-10.87,19.45-2.91,2.94-6.25,5.43-9.93,7.4-4.45,2.39-9.24,3.94-14.23,4.6-1.82.24-3.64.36-5.45.36ZM175.53,152.68l1.33.5c1.02.38,2.13.71,3.38,1.02,4.22,1.03,8.56,1.27,12.89.71,4.18-.55,8.2-1.85,11.95-3.86,3.09-1.66,5.9-3.75,8.35-6.22,4.47-4.51,7.63-10.17,9.13-16.34h0c3.6-14.75-2.65-30.04-15.55-38.04-3.13-1.95-6.55-3.38-10.16-4.25-1.25-.31-2.49-.54-3.7-.69-17.78-2.37-34.36,8.97-38.6,26.4-.56,2.27-.88,4.58-.97,6.9-.25,5.84,1,11.7,3.62,16.95,3.87,7.79,10.35,13.77,18.34,16.94Z"/><path class="b" d="M239.33,197.78c-2.79,0-5.56-1.29-7.31-3.71l-28.06-38.15,5.36-3.94,28.07,38.16c.77,1.06,2.24,1.3,3.29.55.52-.37.86-.92.96-1.54.1-.63-.05-1.25-.42-1.77l-28.12-38.26,5.36-3.94,28.13,38.28c1.44,1.98,2,4.37,1.61,6.77s-1.69,4.48-3.67,5.89c-1.58,1.12-3.4,1.66-5.21,1.66Z"/><path class="b" d="M209.24,113.48c-2.4-6.46-7.81-11.29-14.5-12.92-6-1.46-12.29-.18-17.26,3.51l-3.97-5.34c6.56-4.88,14.87-6.57,22.81-4.64,8.83,2.15,16,8.54,19.16,17.07l-6.24,2.31Z"/></svg>