<?xml version="1.0" encoding="UTF-8"?><svg id="a" xmlns="http://www.w3.org/2000/svg" viewBox="0 0 250 250"><defs><style>.c{fill:#fff;}</style></defs><g id="b"><path class="c" d="M62.84,230.58c-32.56,0-58.71-26.15-58.71-58.71s26.15-58.71,58.71-58.71,58.71,26.15,58.71,58.71-26.64,58.71-58.71,58.71ZM62.84,117.11c-30.09,0-54.76,24.67-54.76,54.76s24.67,54.77,54.76,54.77,54.76-24.67,54.76-54.77-24.67-54.76-54.76-54.76Z"/><path class="c" d="M62.84,230.58c-12.83,0-24.67-3.95-35.03-11.35-.5-.5-.99-.99-.99-1.48v-31.09c0-.98.49-1.48,1.48-1.97l20.23-7.9c.99-.49,1.98,0,2.47.99l6.91,12.83,3.45-3.45c.99-.99,1.97-.99,2.47,0l2.96,2.96,7.4-12.33c.5-.99,1.48-.99,2.47-.99l20.23,7.9c.98.49,1.48.99,1.48,1.97v31.09c0,.49-.5.98-.99,1.48-9.87,7.4-21.71,11.35-34.54,11.35ZM30.77,216.77c9.38,6.41,20.23,10.36,31.58,10.36s22.69-3.45,32.07-10.36v-28.61l-17.27-6.91-7.9,13.32c-.49.49-.99.99-1.48.99s-.99,0-1.48-.5l-3.45-3.45-3.95,3.95c-.5.49-.99.49-1.48.49s-.99-.49-1.48-.99l-7.4-13.81-17.27,6.91c-.49-.5-.49,28.61-.49,28.61Z"/><path class="c" d="M40.14,226.14c-.99,0-1.98-.98-1.98-1.97v-28.61c0-.99.99-1.98,1.98-1.98s1.97.99,1.97,1.98v28.61c0,.99-.49,1.97-1.97,1.97Z"/><path class="c" d="M85.04,226.14c-.99,0-1.98-.98-1.98-1.97v-28.61c0-.99.99-1.98,1.98-1.98s1.98.99,1.98,1.98v28.61c0,.99-.99,1.97-1.98,1.97Z"/><path class="c" d="M62.84,175.32c-12.33,0-18.75-17.27-18.75-26.15,0-10.36,8.39-18.75,18.75-18.75s18.75,8.39,18.75,18.75c0,8.88-6.41,26.15-18.75,26.15ZM62.84,134.37c-8.39,0-14.8,6.41-14.8,14.8,0,7.4,5.43,22.2,14.8,22.2s14.8-14.8,14.8-22.2c0-8.39-6.41-14.8-14.8-14.8Z"/><path class="c" d="M75.66,147.2c-4.44,0-8.88-1.48-12.33-3.95-.98-.49-.98-1.97-.49-2.96.49-.99,1.98-.99,2.96-.5,2.47,1.98,5.92,2.96,9.87,2.96.99,0,2.47,0,3.45-.5.99,0,1.98.5,2.47,1.48,0,.98-.49,1.97-1.48,2.47-1.48.49-2.96.98-4.44.98Z"/><path class="c" d="M54.45,146.71c-2.47,0-5.43-.49-7.89-1.48-.99-.5-1.48-1.48-.99-2.47.49-.99,1.48-1.48,2.47-.99,1.98.99,3.95.99,6.41.99,6.91,0,12.83-3.95,12.83-8.88,0-.99.98-1.98,1.97-1.98s1.98.99,1.98,1.98c0,7.4-7.9,12.83-16.78,12.83Z"/><path class="c" d="M67.77,195.06c-.49,0-.99,0-1.48-.49l-4.93-4.44c-.5-.49-.99-1.97,0-2.47l9.87-13.32c.49-.49.99-.49,1.48-.98.49,0,.99,0,1.48.49l3.95,3.45c.5.49.99,1.48.5,2.47l-8.88,14.3c-.99.5-1.48.99-1.98.99h0ZM65.3,188.15l1.98,1.97,6.9-10.86-.99-.98-7.89,9.87Z"/><path class="c" d="M57.41,196.05h0c-.99,0-1.48-.49-1.48-.99l-8.38-15.29c-.5-.99-.5-1.98.49-2.47l3.95-3.45c.5-.49.99-.49,1.48-.49s.99.49,1.48.98l9.87,13.32c.49.99.49,1.98,0,2.47l-5.43,5.43c-.99,0-1.48.49-1.97.49ZM51.49,179.27l6.41,11.84,2.47-2.47-7.4-10.36-1.48.98Z"/><path class="c" d="M187.17,230.58c-32.57,0-58.71-26.15-58.71-58.71s26.15-58.71,58.71-58.71,58.71,26.15,58.71,58.71-26.15,58.71-58.71,58.71ZM187.17,117.11c-30.1,0-54.77,24.67-54.77,54.76s24.67,54.77,54.77,54.77,54.76-24.67,54.76-54.77-24.67-54.76-54.76-54.76Z"/><path class="c" d="M187.17,230.58c-12.83,0-24.67-3.95-35.03-11.35-.49-.5-.98-.99-.98-1.48v-31.09c0-.98.49-1.48,1.48-1.97l20.23-7.9c.99-.49,1.98,0,2.47.99l6.91,12.83,3.45-3.45c.98-.99,1.97-.99,2.47,0l2.96,2.96,7.4-12.33c.49-.99,1.48-.99,2.47-.99l20.23,7.9c.99.49,1.48.99,1.48,1.97v31.09c0,.49-.5.98-.99,1.48-9.87,7.4-21.71,11.35-34.54,11.35ZM155.59,216.77c9.38,6.41,20.23,10.36,31.58,10.36s22.69-3.45,32.07-10.36v-28.61l-17.27-6.91-7.9,13.32c-.49.49-.98.99-1.48.99s-.99,0-1.48-.5l-3.45-3.45-3.95,3.95c-.49.49-.99.49-1.48.49s-.99-.49-1.48-.99l-7.4-13.81-17.27,6.91-.5,28.61h0Z"/><path class="c" d="M164.97,226.14c-.99,0-1.98-.98-1.98-1.97v-28.61c0-.99.99-1.98,1.98-1.98s1.97.99,1.97,1.98v28.61c0,.99-.98,1.97-1.97,1.97Z"/><path class="c" d="M209.37,226.14c-.99,0-1.98-.98-1.98-1.97v-28.61c0-.99.99-1.98,1.98-1.98s1.97.99,1.97,1.98v28.61c0,.99-.49,1.97-1.97,1.97Z"/><path class="c" d="M187.66,175.32c-12.33,0-18.75-17.27-18.75-26.15,0-10.36,8.39-18.75,18.75-18.75s18.75,8.39,18.75,18.75c0,8.88-6.41,26.15-18.75,26.15ZM187.66,134.37c-8.39,0-14.8,6.41-14.8,14.8,0,7.89,5.43,22.2,14.8,22.2s14.8-14.31,14.8-22.2c0-8.39-6.9-14.8-14.8-14.8Z"/><path class="c" d="M199.99,147.2c-4.44,0-8.88-1.48-12.33-3.95-.99-.49-.99-1.97-.49-2.96.49-.99,1.97-.99,2.96-.5,2.47,1.98,5.92,2.96,9.87,2.96.99,0,2.47,0,3.45-.5.99,0,1.98.5,2.47,1.48,0,.98-.49,1.97-1.48,2.47-1.48.49-2.96.98-4.44.98Z"/><path class="c" d="M178.78,146.71c-2.47,0-5.43-.49-7.89-1.48-.99-.5-1.48-1.48-.99-2.47.49-.99,1.48-1.48,2.47-.99,1.97.99,3.95.99,6.41.99,6.91,0,12.83-3.95,12.83-8.88,0-.99.99-1.98,1.98-1.98s1.98.99,1.98,1.98c0,7.4-7.4,12.83-16.78,12.83Z"/><path class="c" d="M192.1,195.06c-.5,0-.99,0-1.48-.49l-4.93-4.44c-.5-.49-.99-1.97,0-2.47l9.87-13.32c.49-.49.98-.49,1.48-.98.49,0,.99,0,1.48.49l3.95,3.45c.5.49.99,1.48.5,2.47l-8.88,14.3c-.49.5-.98.99-1.97.99h0ZM189.63,188.15l1.97,1.97,6.91-10.86-.99-.98-7.89,9.87Z"/><path class="c" d="M181.74,196.05h0c-.98,0-1.48-.49-1.48-.99l-8.39-15.29c-.49-.99-.49-1.98.5-2.47l3.95-3.45c.49-.49.99-.49,1.48-.49s.99.49,1.48.98l9.87,13.32c.5.99.5,1.98,0,2.47l-5.43,5.43c-.99,0-1.48.49-1.98.49ZM175.82,179.27l6.41,11.84,2.47-2.47-7.4-10.36-1.48.98Z"/><path class="c" d="M124.51,120.56c-32.56,0-58.71-26.15-58.71-58.71S91.95,3.14,124.51,3.14s58.71,26.15,58.71,58.71-26.15,58.71-58.71,58.71ZM124.51,7.09c-30.09,0-54.76,24.67-54.76,54.76s24.67,54.76,54.76,54.76,54.76-24.67,54.76-54.76c.5-30.1-24.17-54.76-54.76-54.76Z"/><path class="c" d="M124.51,120.56c-12.83,0-24.67-3.95-35.03-11.35-.5-.49-.99-.99-.99-1.48v-31.08c0-.99.49-1.48,1.48-1.98l20.23-7.89c.99-.49,1.98,0,2.47.99l6.91,12.83,3.45-3.45c.99-.49,1.97-.99,2.47,0l2.96,2.96,7.4-12.33c.5-.99,1.48-.99,2.47-.99l20.23,7.89c.98.49,1.48.99,1.48,1.98v31.08c0,.49-.5.99-.99,1.48-9.87,7.4-21.71,11.35-34.54,11.35ZM92.93,106.75c9.38,6.42,20.23,10.36,32.07,10.36s22.7-3.45,31.58-10.36v-28.61l-17.27-6.91-7.89,13.32c-.5.49-.99.99-1.48.99s-.98,0-1.48-.49l-3.45-3.45-3.95,3.95c-.49.49-.99.49-1.48.49s-.99-.49-1.48-.99l-7.4-13.81-17.76,6.91v28.61h0Z"/><path class="c" d="M102.31,116.12c-.99,0-1.98-.99-1.98-1.98v-28.61c0-.99.99-1.97,1.98-1.97s1.98.99,1.98,1.97v28.61c0,.99-.99,1.98-1.98,1.98Z"/><path class="c" d="M147.2,116.12c-.98,0-1.97-.99-1.97-1.98v-28.61c0-.99.99-1.97,1.97-1.97s1.98.99,1.98,1.97v28.61c0,.99-.99,1.98-1.98,1.98Z"/><path class="c" d="M125,65.3c-12.33,0-18.75-17.27-18.75-26.15,0-10.36,8.39-18.75,18.75-18.75s18.75,8.39,18.75,18.75c0,9.37-6.42,26.15-18.75,26.15ZM125,24.35c-7.89,0-14.8,6.41-14.8,14.8,0,7.4,5.43,22.2,14.8,22.2s14.8-14.8,14.8-22.2c0-8.39-6.9-14.8-14.8-14.8Z"/><path class="c" d="M137.83,37.18c-4.44,0-8.88-1.48-12.33-3.95-.99-.49-.99-1.97-.5-2.96.5-.99,1.98-.99,2.96-.49,2.47,1.97,5.92,2.96,9.87,2.96.99,0,1.97,0,2.96-.49.99,0,1.98.49,2.47,1.48,0,.99-.49,1.97-1.48,2.47-1.48.99-2.47.99-3.95.99Z"/><path class="c" d="M116.12,36.69c-2.47,0-5.43-.49-7.89-1.48-.99-.49-1.48-1.48-.99-2.47.49-.99,1.48-1.48,2.47-.99,1.98.49,3.95.99,6.41.99,6.91,0,12.83-3.95,12.83-8.88,0-.99.98-1.97,1.97-1.97s1.98.99,1.98,1.97c0,7.4-7.4,12.83-16.78,12.83Z"/><path class="c" d="M129.44,85.04c-.49,0-.99,0-1.48-.49l-4.93-4.44c-.5-.49-.99-1.97,0-2.47l9.87-13.32c.49-.49.99-.49,1.48-.99.49,0,.99,0,1.48.49l3.95,3.45c.5.49.99,1.48.5,2.47l-8.88,14.31c-.5.49-.99.99-1.98.99.49,0,0,0,0,0ZM127.47,78.63l1.98,1.97,6.91-10.86-1.48-1.48-7.4,10.36Z"/><path class="c" d="M119.08,86.03h0c-.99,0-1.48-.49-1.48-.99l-8.38-15.29c-.5-.99-.5-1.97.49-2.47l3.95-3.45c.5-.49.99-.49,1.48-.49s.99.49,1.48.99l9.87,13.32c.49.99.49,1.97,0,2.47l-5.43,5.43c-.99,0-1.48.49-1.97.49ZM113.16,69.25l6.41,11.84,2.47-2.47-7.4-10.36-1.48.99Z"/><path class="c" d="M122.53,246.86c-20.72,0-40.95-5.92-58.71-16.77-.99-.5-.99-1.98-.5-2.47.5-.99,1.98-.99,2.47-.5,16.78,10.36,36.51,16.28,56.25,16.28s39.96-5.43,57.23-16.28c.99-.49,1.98-.49,2.47.5.5.98.5,1.97-.49,2.47-17.27,10.85-37.99,16.77-58.71,16.77Z"/><path class="c" d="M231.57,138.32c-.99,0-1.98-.99-1.98-1.97v-.5c0-37.99-20.23-73.51-52.79-92.26-.98-.49-1.48-1.97-.49-2.47.49-.99,1.98-1.48,2.47-.49,16.28,9.87,30.09,23.19,39.96,39.96,9.87,16.77,15.3,36.51,15.3,55.75v.49c-.5.49-1.48,1.48-2.47,1.48Z"/><path class="c" d="M13.5,145.23c-.99,0-1.98-.99-1.98-1.98,0-2.47-.49-5.43-.49-7.89,0-20.72,5.92-41.44,16.78-58.71,10.85-17.27,25.65-31.08,43.91-40.46.99-.49,1.98,0,2.47.99.5.99,0,1.97-.99,2.47C37.68,58.4,14.98,95.4,14.98,135.85c0,2.47,0,4.93.5,7.4,0,.99-.99,1.98-1.98,1.98h0Z"/></g></svg>