<?xml version="1.0" encoding="UTF-8"?><svg id="a" xmlns="http://www.w3.org/2000/svg" viewBox="0 0 250 250"><defs><style>.b{fill:#fff;}</style></defs><path class="b" d="M106.5,171.59c-6.65,0-13.25-.8-19.75-2.39-1.78-.44-3.45-.89-5.03-1.39l-.12.12-3.33-1.3c-20.28-7.26-36.73-21.92-46.36-41.32-6.22-12.49-9.2-26.43-8.62-40.31.2-5.52.98-11.05,2.31-16.43C35.68,27.14,75.14.13,117.4,5.79c2.9.37,5.87.93,8.82,1.65,8.57,2.08,16.71,5.49,24.17,10.12,30.69,19.03,45.56,55.38,36.99,90.47h0c-3.57,14.69-11.08,28.14-21.72,38.88-5.82,5.87-12.49,10.84-19.84,14.78-8.9,4.78-18.47,7.87-28.43,9.19-3.63.47-7.27.71-10.89.71ZM79.16,156.29l2.87,1.07c2.13.79,4.45,1.49,7.09,2.14,8.84,2.16,17.91,2.66,26.96,1.48,8.76-1.16,17.17-3.88,25.01-8.09,6.47-3.47,12.35-7.85,17.46-13.01,9.36-9.45,15.97-21.28,19.11-34.21h0c7.54-30.88-5.54-62.88-32.56-79.62-6.56-4.07-13.71-7.07-21.27-8.9-2.6-.64-5.2-1.13-7.75-1.46-37.18-4.95-71.92,18.79-80.78,55.26-1.17,4.73-1.85,9.59-2.03,14.45-.52,12.22,2.1,24.48,7.58,35.47,8.07,16.28,21.6,28.76,38.29,35.42Z"/><path class="b" d="M210.19,244.96c-5.15,0-10.23-2.37-13.47-6.83l-57.29-77.89,8.05-5.92,57.31,77.92c2.14,2.95,6.26,3.63,9.2,1.53,1.45-1.03,2.41-2.57,2.69-4.32.29-1.76-.13-3.52-1.18-4.96l-57.42-78.13,8.05-5.92,57.44,78.16c2.64,3.64,3.69,8.06,2.97,12.46s-3.12,8.26-6.76,10.85c-2.9,2.06-6.26,3.06-9.59,3.06Z"/><path class="b" d="M150.44,74.02c-5.1-13.76-16.64-24.04-30.86-27.51-12.78-3.12-26.17-.39-36.73,7.47l-5.97-8.01c12.96-9.65,29.39-12.99,45.07-9.16,17.45,4.25,31.61,16.86,37.86,33.74l-9.37,3.47Z"/></svg>