<?xml version="1.0" encoding="UTF-8"?><svg id="a" xmlns="http://www.w3.org/2000/svg" viewBox="0 0 250 250"><defs><style>.b{fill:#fff;}</style></defs><path class="b" d="M216.17,245.44H58.6c-13.66,0-24.76-11.11-24.76-24.76s11.11-24.76,24.76-24.76h157.57v49.53ZM58.6,201.83c-10.39,0-18.84,8.45-18.84,18.84s8.45,18.84,18.84,18.84h151.64v-37.68H58.6Z"/><path class="b" d="M36.8,223.64c-1.64,0-2.96-1.33-2.96-2.96V29.51c0-.97.05-1.93.17-2.87,1.42-12.47,12-21.89,24.59-21.89h157.57v194.4c0,1.64-1.33,2.96-2.96,2.96s-2.96-1.33-2.96-2.96V10.68H58.6c-9.58,0-17.62,7.16-18.71,16.66-.09.73-.12,1.45-.12,2.18v191.16c0,1.64-1.33,2.96-2.96,2.96Z"/><path class="b" d="M61.54,201.84c-1.64,0-2.96-1.33-2.96-2.96V7.53c0-1.64,1.33-2.96,2.96-2.96s2.96,1.33,2.96,2.96v191.35c0,1.64-1.33,2.96-2.96,2.96Z"/><path class="b" d="M175.14,73.32h-75.04c-1.64,0-2.96-1.33-2.96-2.96s1.33-2.96,2.96-2.96h75.04c1.64,0,2.96,1.33,2.96,2.96s-1.33,2.96-2.96,2.96Z"/><path class="b" d="M175.14,109.09h-75.04c-1.64,0-2.96-1.33-2.96-2.96s1.33-2.96,2.96-2.96h75.04c1.64,0,2.96,1.33,2.96,2.96s-1.33,2.96-2.96,2.96Z"/></svg>