<?xml version="1.0" encoding="UTF-8"?><svg id="a" xmlns="http://www.w3.org/2000/svg" viewBox="0 0 250 250"><defs><style>.b{fill:#fff;}</style></defs><path class="b" d="M69.54,223.83l-8.13-13.08c-2.5.25-5.05.26-7.53.01l-8.06,12.8-15.43-6.04,3.5-15c-1.95-1.59-3.74-3.37-5.34-5.31l-14.75,3.35-6.64-15.19,13.08-8.13c-.13-1.27-.19-2.56-.19-3.84s.06-2.47.18-3.7l-12.8-8.06,6.04-15.44,15,3.5c1.59-1.95,3.37-3.74,5.31-5.34l-3.35-14.75,15.19-6.64,8.13,13.08c2.49-.25,5.01-.26,7.53-.01l8.06-12.8,15.44,6.04-3.5,15c1.95,1.59,3.74,3.37,5.34,5.32l14.75-3.35,6.64,15.19-13.08,8.13c.13,1.27.19,2.56.19,3.84s-.06,2.47-.18,3.7l12.8,8.06-6.04,15.44-15-3.5c-1.59,1.95-3.37,3.74-5.32,5.34l3.35,14.75-15.19,6.64ZM64.15,204.91l7.51,12.08,6.79-2.97-3.13-13.78,1.41-1.05c2.55-1.9,4.81-4.17,6.7-6.73l1.06-1.43,13.86,3.23,2.7-6.9-11.95-7.52.25-1.74c.22-1.55.34-3.12.34-4.68s-.12-3.24-.36-4.82l-.26-1.76,12.08-7.51-2.97-6.79-13.78,3.13-1.05-1.41c-1.9-2.56-4.17-4.81-6.73-6.7l-1.43-1.06,3.23-13.86-6.9-2.7-7.52,11.95-1.74-.25c-3.16-.46-6.4-.44-9.5.02l-1.76.26-7.51-12.08-6.79,2.97,3.14,13.78-1.41,1.05c-2.55,1.9-4.81,4.17-6.7,6.73l-1.06,1.43-13.86-3.23-2.7,6.9,11.96,7.52-.26,1.74c-.22,1.53-.34,3.11-.34,4.68s.12,3.24.36,4.82l.26,1.76-12.08,7.51,2.97,6.79,13.78-3.14,1.05,1.41c1.9,2.55,4.17,4.81,6.73,6.7l1.43,1.06-3.23,13.86,6.9,2.7,7.53-11.96,1.74.26c3.1.46,6.38.45,9.5-.02l1.76-.26Z"/><path class="b" d="M57.57,195.15c-11.98,0-21.73-9.75-21.73-21.73s9.75-21.73,21.73-21.73,21.73,9.75,21.73,21.73-9.75,21.73-21.73,21.73ZM57.57,157.1c-9,0-16.32,7.32-16.32,16.32s7.32,16.32,16.32,16.32,16.32-7.32,16.32-16.32-7.32-16.32-16.32-16.32Z"/><path class="b" d="M78.68,101.71l-6.04-9.71c-1.57.13-3.18.13-4.75,0l-5.97,9.5-12.43-4.87,2.6-11.14c-1.21-1.02-2.34-2.14-3.36-3.35l-10.93,2.49-5.35-12.23,9.71-6.04c-.07-.81-.1-1.62-.1-2.42s.03-1.55.1-2.32l-9.49-5.97,4.87-12.43,11.14,2.6c1.02-1.21,2.14-2.34,3.35-3.36l-2.49-10.94,12.23-5.35,6.04,9.71c1.58-.14,3.17-.14,4.75,0l5.97-9.49,12.43,4.87-2.6,11.14c1.21,1.02,2.34,2.14,3.36,3.35l10.93-2.49,5.35,12.23-9.71,6.04c.07.8.1,1.61.1,2.42s-.03,1.55-.1,2.32l9.49,5.97-4.87,12.44-11.14-2.6c-1.02,1.21-2.14,2.34-3.35,3.36l2.49,10.93-12.23,5.35ZM75.39,86.17l5.41,8.71,3.83-1.68-2.27-9.95,1.42-1.05c1.81-1.35,3.41-2.95,4.75-4.76l1.06-1.43,9.99,2.33,1.53-3.9-8.63-5.43.26-1.74c.16-1.08.24-2.2.24-3.32s-.08-2.3-.25-3.41l-.26-1.76,8.71-5.41-1.68-3.83-9.95,2.27-1.05-1.42c-1.35-1.81-2.95-3.41-4.76-4.75l-1.43-1.06,2.33-9.99-3.9-1.53-5.43,8.63-1.74-.26c-2.22-.32-4.52-.32-6.73.02l-1.76.26-5.41-8.71-3.83,1.68,2.26,9.95-1.41,1.05c-1.81,1.35-3.4,2.95-4.75,4.77l-1.06,1.43-9.99-2.33-1.53,3.9,8.63,5.43-.26,1.74c-.16,1.09-.24,2.21-.24,3.32s.08,2.29.26,3.41l.26,1.76-8.71,5.41,1.68,3.83,9.95-2.27,1.05,1.42c1.35,1.81,2.95,3.41,4.76,4.75l1.43,1.06-2.33,9.99,3.9,1.53,5.43-8.63,1.74.26c2.2.32,4.54.32,6.73-.02l1.76-.26Z"/><path class="b" d="M70.22,76.18c-6.75,0-12.24-5.49-12.24-12.24s5.49-12.24,12.24-12.24,12.24,5.49,12.24,12.24-5.49,12.24-12.24,12.24ZM70.22,57.11c-3.76,0-6.83,3.06-6.83,6.83s3.06,6.83,6.83,6.83,6.82-3.06,6.82-6.83-3.06-6.83-6.82-6.83Z"/><path class="b" d="M179.53,198.34l-20.82-1.18-1.81-20.58c-3.52-1.3-6.87-2.99-10.01-5.05l-17.43,10.46-13.89-15.55,13.27-15.83c-.79-1.72-1.49-3.51-2.08-5.32-.57-1.75-1.05-3.54-1.43-5.33l-19.72-4.93,1.18-20.82,20.58-1.81c1.3-3.52,3-6.88,5.04-10.01l-10.46-17.43,15.55-13.89,15.83,13.28c1.73-.79,3.51-1.49,5.32-2.08,1.74-.57,3.52-1.05,5.33-1.43l4.93-19.72,20.82,1.18,1.81,20.58c3.52,1.3,6.88,2.99,10.01,5.04l17.43-10.46,13.89,15.56-13.28,15.83c.79,1.73,1.49,3.51,2.08,5.32.57,1.74,1.05,3.52,1.43,5.33l19.72,4.93-1.18,20.82-20.58,1.81c-1.3,3.52-2.99,6.87-5.05,10.01l10.46,17.42-15.56,13.89-15.83-13.28c-1.73.79-3.51,1.49-5.32,2.09-1.75.57-3.54,1.05-5.33,1.43l-4.93,19.71ZM163.7,192.02l11.67.66,4.69-18.75,1.74-.3c2.12-.37,4.25-.9,6.31-1.58,2.12-.7,4.21-1.56,6.19-2.56l1.59-.8,14.94,12.53,8.72-7.79-9.95-16.58,1.02-1.44c2.54-3.61,4.54-7.57,5.92-11.76l.56-1.69,19.43-1.71.66-11.67-18.76-4.69-.3-1.74c-.37-2.14-.9-4.26-1.58-6.31-.69-2.12-1.55-4.2-2.55-6.19l-.8-1.59,12.53-14.94-7.79-8.72-16.58,9.95-1.44-1.02c-3.6-2.55-7.56-4.54-11.75-5.92l-1.69-.56-1.71-19.43-11.67-.66-4.69,18.76-1.74.3c-2.14.37-4.26.9-6.31,1.58-2.12.69-4.2,1.55-6.19,2.55l-1.59.8-14.95-12.53-8.72,7.79,9.95,16.58-1.02,1.44c-2.54,3.61-4.53,7.56-5.92,11.76l-.56,1.69-19.43,1.71-.66,11.67,18.76,4.69.3,1.74c.37,2.12.9,4.25,1.58,6.31.7,2.13,1.56,4.22,2.55,6.19l.8,1.59-12.53,14.95,7.79,8.72,16.58-9.95,1.44,1.02c3.61,2.54,7.57,4.54,11.76,5.92l1.69.56,1.71,19.43Z"/><path class="b" d="M174.2,158.25c-4.42,0-8.8-1.04-12.85-3.09-6.79-3.44-11.84-9.32-14.22-16.56-4.9-14.94,3.27-31.08,18.21-35.98,14.95-4.9,31.08,3.28,35.98,18.21,2.37,7.24,1.79,14.97-1.65,21.76-3.44,6.8-9.32,11.85-16.56,14.22-2.92.96-5.92,1.43-8.91,1.43ZM174.21,106.62c-2.38,0-4.8.37-7.18,1.15-12.1,3.97-18.72,17.04-14.75,29.15,1.92,5.86,6.01,10.63,11.52,13.41,5.51,2.78,11.76,3.27,17.63,1.34,5.86-1.92,10.63-6.01,13.41-11.52,2.79-5.51,3.26-11.77,1.34-17.63-3.19-9.72-12.25-15.9-21.97-15.9Z"/></svg>