<?xml version="1.0" encoding="UTF-8"?><svg id="a" xmlns="http://www.w3.org/2000/svg" viewBox="0 0 250 250"><defs><style>.b{fill:#2ca5bc;}</style></defs><rect class="b" x="43.3" y="35.52" width="163.68" height="7.84"/><path class="b" d="M45,151.61c-23.31,0-42.27-20.08-42.27-44.77v-3.92h84.54v3.92c0,24.69-18.96,44.77-42.27,44.77ZM10.77,110.76c1.83,18.53,16.49,33.01,34.23,33.01s32.4-14.48,34.23-33.01H10.77Z"/><polygon class="b" points="80 107.08 45 49.92 10 107.08 3.31 102.99 45 34.9 86.69 102.99 80 107.08"/><path class="b" d="M205,151.61c-23.31,0-42.27-20.08-42.27-44.77v-3.92h84.54v3.92c0,24.69-18.96,44.77-42.27,44.77ZM170.77,110.76c1.83,18.53,16.49,33.01,34.23,33.01s32.4-14.48,34.23-33.01h-68.47Z"/><polygon class="b" points="240 107.08 205 49.92 170 107.08 163.31 102.99 205 34.9 246.69 102.99 240 107.08"/><path class="b" d="M201.73,222.37H49.41v-17.29c0-6.5,5.29-11.8,11.79-11.8h128.73c6.5,0,11.8,5.29,11.8,11.8v17.29ZM57.25,214.53h136.63v-9.45c0-2.18-1.77-3.95-3.95-3.95H61.2c-2.18,0-3.95,1.77-3.95,3.95v9.45Z"/><rect class="b" x="121.22" y="39.44" width="7.84" height="157.76"/><path class="b" d="M125.14,51.24c-6.51,0-11.81-5.3-11.81-11.81s5.3-11.81,11.81-11.81,11.81,5.3,11.81,11.81-5.3,11.81-11.81,11.81ZM125.14,35.47c-2.19,0-3.96,1.78-3.96,3.96s1.78,3.96,3.96,3.96,3.96-1.78,3.96-3.96-1.78-3.96-3.96-3.96Z"/></svg>