<?xml version="1.0" encoding="UTF-8"?><svg id="a" xmlns="http://www.w3.org/2000/svg" viewBox="0 0 250 250"><defs><style>.c{fill:#fff;}</style></defs><g id="b"><path class="c" d="M243.8,206.64H6.2c-.98,0-1.95-.98-1.95-1.96v-37.15c0-.98.97-1.96,1.95-1.96h237.6c.97,0,1.95.98,1.95,1.96v37.15c0,1.47-.98,1.96-1.95,1.96ZM8.16,202.73h233.68v-33.24H8.16v33.24Z"/><path class="c" d="M156.29,195.4h-62.58c-.98,0-1.96-.98-1.96-1.96v-14.67c0-.98.98-1.96,1.96-1.96s1.95.98,1.95,1.96v12.71h58.18v-12.71c0-.98.98-1.96,1.96-1.96s1.95.98,1.95,1.96v14.67c.49,1.47-.49,1.96-1.47,1.96Z"/><path class="c" d="M205.66,196.87h-7.33c-.97,0-1.95-.98-1.95-1.96v-17.6c0-.98.98-1.96,1.95-1.96h7.33c.98,0,1.96.98,1.96,1.96v17.6c0,1.47-.98,1.96-1.96,1.96ZM200.29,192.95h3.42v-13.69h-3.42v13.69Z"/><path class="c" d="M213,196.87h-7.33c-.97,0-1.95-.98-1.95-1.96v-17.6c0-.98.98-1.96,1.95-1.96h7.33c.98,0,1.96.98,1.96,1.96v17.6c0,1.47-.98,1.96-1.96,1.96ZM207.62,192.95h3.42v-13.69h-3.42v13.69Z"/><path class="c" d="M220.33,196.87h-7.33c-.97,0-1.95-.98-1.95-1.96v-17.6c0-.98.98-1.96,1.95-1.96h7.33c.98,0,1.96.98,1.96,1.96v17.6c0,1.47-.49,1.96-1.96,1.96ZM214.95,192.95h3.42v-13.69h-3.42v13.69Z"/><path class="c" d="M227.66,196.87h-7.33c-.97,0-1.95-.98-1.95-1.96v-17.6c0-.98.98-1.96,1.95-1.96h7.33c.98,0,1.96.98,1.96,1.96v17.6c0,1.47-.49,1.96-1.96,1.96ZM222.29,192.95h3.42v-13.69h-3.42v13.69Z"/><path class="c" d="M29.67,196.87h-7.33c-.97,0-1.95-.98-1.95-1.96v-17.6c0-.98.98-1.96,1.95-1.96h7.33c.98,0,1.96.98,1.96,1.96v17.6c0,1.47-.98,1.96-1.96,1.96ZM24.29,192.95h3.42v-13.69h-3.42v13.69Z"/><path class="c" d="M37,196.87h-7.33c-.97,0-1.95-.98-1.95-1.96v-17.6c0-.98.98-1.96,1.95-1.96h7.33c.98,0,1.96.98,1.96,1.96v17.6c0,1.47-.98,1.96-1.96,1.96ZM31.62,192.95h3.42v-13.69h-3.42v13.69Z"/><path class="c" d="M44.33,196.87h-7.33c-.97,0-1.95-.98-1.95-1.96v-17.6c0-.98.98-1.96,1.95-1.96h7.33c.98,0,1.96.98,1.96,1.96v17.6c0,1.47-.98,1.96-1.96,1.96ZM38.96,192.95h3.42v-13.69h-3.42v13.69Z"/><path class="c" d="M51.67,196.87h-7.33c-.97,0-1.95-.98-1.95-1.96v-17.6c0-.98.98-1.96,1.95-1.96h7.33c.98,0,1.96.98,1.96,1.96v17.6c0,1.47-.98,1.96-1.96,1.96ZM46.29,192.95h3.42v-13.69h-3.42v13.69Z"/><path class="c" d="M235,169.49H15c-.97,0-1.95-.98-1.95-1.96V45.31c0-.98.98-1.96,1.95-1.96h219.99c.98,0,1.96.98,1.96,1.96v122.71c0,.98-.98,1.47-1.96,1.47ZM16.96,166.07h216.08V47.27H16.96v118.8Z"/><path class="c" d="M215.93,164.11h-7.82c-.97,0-1.95-.98-1.95-1.96v-71.87h-3.42c-.98,0-1.96-.98-1.96-1.96v-2.44h-47.91c-.98,0-1.95-.98-1.95-1.96v-8.31c0-.98.97-1.96,1.95-1.96h49.87c.49,0,.98,0,1.47.49l12.71,12.71c.49.49.49.98.49,1.47v73.33c.49,1.47-.49,2.44-1.47,2.44ZM210.06,160.2h3.91v-70.4l-11.73-11.73h-47.42v4.4h47.91c.49,0,.98,0,1.47.49.49.49.49.98.49,1.47v2.44h3.42c.98,0,1.96.98,1.96,1.96v71.38h0Z"/><path class="c" d="M215.93,90.78h0l-13.2-.49c-.98,0-1.96-.98-1.96-1.96l.49-12.22c0-.98.49-1.47.98-1.96.49-.49,1.47,0,1.95.49l12.22,12.22c.49.49.49.98.49,1.47.97,1.47,0,2.44-.98,2.44h0ZM205.18,86.38h6.35l-5.87-5.87-.49,5.87Z"/><path class="c" d="M208.11,169.49h-65.02c-.98,0-1.95-.98-1.95-1.96v-83.11c0-.98.97-1.96,1.95-1.96h59.64c.49,0,.98,0,1.47.49.49.49.49.98.49,1.47v2.44h3.42c.98,0,1.96.98,1.96,1.96v79.2c0,.98-.98,1.47-1.96,1.47ZM145.04,166.07h61.11v-75.78h-3.42c-.98,0-1.96-.98-1.96-1.96v-2.44h-55.73v80.18h0Z"/><path class="c" d="M196.86,106.42h-42.53c-.97,0-1.95-.98-1.95-1.96v-9.78c0-.98.98-1.96,1.95-1.96h42.53c.98,0,1.96.98,1.96,1.96v9.78c0,1.47-.98,1.96-1.96,1.96ZM156.29,102.51h38.62v-5.87h-38.62v5.87Z"/><path class="c" d="M182.2,151.89h-19.56c-.98,0-1.95-.98-1.95-1.96s.97-1.96,1.95-1.96h19.56c.98,0,1.96.98,1.96,1.96s-.98,1.96-1.96,1.96Z"/><path class="c" d="M193.44,143.58h-30.8c-.98,0-1.95-.98-1.95-1.96s.97-1.96,1.95-1.96h30.8c.98,0,1.96.98,1.96,1.96,0,1.47-.98,1.96-1.96,1.96Z"/><path class="c" d="M202.73,135.76h-40.09c-.98,0-1.95-.98-1.95-1.96s.97-1.96,1.95-1.96h40.09c.98,0,1.96.98,1.96,1.96s-.98,1.96-1.96,1.96Z"/><path class="c" d="M190.02,127.44h-27.38c-.98,0-1.95-.98-1.95-1.96s.97-1.96,1.95-1.96h27.38c.97,0,1.95.98,1.95,1.96,0,1.47-.98,1.96-1.95,1.96Z"/><path class="c" d="M143.09,169.49h-55.24c-.98,0-1.96-.98-1.96-1.96v-66.98c0-.98.98-1.96,1.96-1.96h55.24c.98,0,1.96.98,1.96,1.96v66.98c0,1.47-.49,1.96-1.96,1.96ZM89.8,166.07h51.33v-63.55h-51.33v63.55Z"/><path class="c" d="M87.84,153.35h-20.04c-.98,0-1.96-.98-1.96-1.96v-66.97c0-.98.98-1.96,1.96-1.96h55.24c.98,0,1.95.98,1.95,1.96v16.13c0,.98-.97,1.96-1.95,1.96h-33.73v48.89c.49.98-.49,1.96-1.47,1.96ZM69.76,149.44h16.13v-48.89c0-.98.98-1.96,1.96-1.96h33.73v-12.71h-51.82v63.55h0Z"/><path class="c" d="M128.91,149.44h-26.4c-.49,0-1.47-.49-1.47-.98-.49-.49-.49-1.47,0-1.96l13.2-26.4c.49-.49.97-.98,1.95-.98h0c.49,0,1.47.49,1.96.98l13.2,25.91c0,.49.49.49.49.98-.98,1.47-1.96,2.44-2.93,2.44ZM105.44,145.53h20.05l-9.78-20.04-10.27,20.04Z"/><path class="c" d="M115.71,149.44c-.98,0-1.96-.98-1.96-1.96v-26.4c0-.98.98-1.96,1.96-1.96s1.95.98,1.95,1.96v26.4c0,.98-.97,1.96-1.95,1.96Z"/><path class="c" d="M131.36,158.73h-31.78c-.98,0-1.96-.98-1.96-1.96s.98-1.96,1.96-1.96h31.78c.97,0,1.95.98,1.95,1.96s-.49,1.96-1.95,1.96Z"/><path class="c" d="M35.53,169.49c-.98,0-1.95-.98-1.95-1.96v-98.26c0-.98.97-1.96,1.95-1.96s1.96.98,1.96,1.96v98.75c0,.98-.98,1.47-1.96,1.47Z"/></g></svg>