<?xml version="1.0" encoding="UTF-8"?><svg id="a" xmlns="http://www.w3.org/2000/svg" viewBox="0 0 250 250"><defs><style>.b{fill:#2ca5bc;}</style></defs><path class="b" d="M136.72,186.05c-31.58,0-62.08-16.87-77.35-46.1h0c-10.39-19.89-12.29-42.55-5.37-63.82,7.08-21.74,22.47-39.39,43.34-49.72,42.55-21.05,94.78-4.47,116.42,36.97,10.39,19.89,12.29,42.55,5.37,63.82-7.08,21.74-22.47,39.39-43.34,49.72-12.53,6.2-25.9,9.13-39.07,9.13ZM136.45,24.29c-12.14,0-24.45,2.7-35.99,8.42-19.16,9.48-33.29,25.68-39.78,45.6-6.34,19.46-4.59,40.19,4.91,58.39h0c14.03,26.85,42.06,42.34,71.1,42.34,12.14,0,24.45-2.7,35.99-8.42,19.16-9.48,33.29-25.68,39.78-45.6,6.34-19.46,4.59-40.19-4.91-58.39-14.03-26.86-42.06-42.34-71.1-42.34Z"/><path class="b" d="M160.8,180.32c-9.18,0-19.26-3.32-29.51-9.85-15.65-9.98-29.96-26.37-40.3-46.17h0c-13.99-26.78-18.35-55.01-11.67-75.52,3.42-10.49,9.65-18.23,18.03-22.37,12.49-6.18,28.29-3.89,44.5,6.45,15.65,9.98,29.96,26.37,40.3,46.17,13.99,26.78,18.35,55.01,11.67,75.52-3.42,10.49-9.65,18.23-18.03,22.37-4.6,2.27-9.65,3.4-15,3.4ZM97.21,121.06c19.89,38.08,53.75,60.32,75.47,49.57,6.64-3.29,11.65-9.6,14.47-18.26,6.02-18.47,1.72-45.33-11.22-70.09-19.89-38.08-53.75-60.32-75.47-49.57-6.64,3.29-11.65,9.6-14.47,18.26-6.02,18.47-1.72,45.33,11.22,70.1h0Z"/><path class="b" d="M101.68,159.26c-.98,0-1.96-.02-2.92-.05-19.24-.63-33.22-7.47-39.38-19.26-3.9-7.47-4.31-16.48-1.19-26.07,6.56-20.14,28.04-41.26,56.06-55.12,20.3-10.04,41.67-15.24,60.14-14.64,19.24.63,33.22,7.47,39.38,19.26,3.9,7.47,4.31,16.48,1.19,26.07-6.56,20.14-28.04,41.26-56.06,55.12-19.24,9.52-39.43,14.69-57.22,14.69ZM171.44,51.09c-16.72,0-35.8,4.91-54.09,13.96-26.39,13.06-46.51,32.6-52.5,51.01-2.56,7.86-2.31,14.8.74,20.65,4.94,9.45,16.8,14.95,33.39,15.5,17.34.57,37.52-4.37,56.8-13.91,26.39-13.06,46.51-32.6,52.5-51.01,2.56-7.86,2.31-14.8-.74-20.65-4.94-9.45-16.8-14.96-33.39-15.5-.9-.03-1.8-.04-2.71-.04Z"/><rect class="b" x="133" y="20.72" width="7.02" height="161.57" transform="translate(-31.5 74.85) rotate(-27.62)"/><rect class="b" x="53.91" y="98.16" width="165.32" height="7.02" transform="translate(-30.92 71.11) rotate(-26.33)"/><path class="b" d="M136.76,208.57c-40.02,0-78.66-21.37-98.02-58.41-13.16-25.19-15.57-53.89-6.8-80.83,8.97-27.54,28.47-49.9,54.91-62.99l3.04-1.51,7.25,13.52-6.19,3.31-4.01-7.49c-23.2,12.41-40.29,32.65-48.33,57.32-8.19,25.12-5.93,51.9,6.34,75.41,25.13,48.1,85.03,67.94,134.94,45.34l-4.01-7.56,6.2-3.29,7.43,13.99-3.24,1.6c-15.88,7.86-32.82,11.58-49.52,11.58Z"/><rect class="b" x="70.18" y="237" width="125.8" height="7.02"/><rect class="b" x="130.66" y="205.36" width="7.02" height="34.03"/></svg>