<?xml version="1.0" encoding="UTF-8"?><svg id="a" xmlns="http://www.w3.org/2000/svg" viewBox="0 0 250 250"><defs><style>.b{fill:#fff;}</style></defs><path class="b" d="M125.3,70.8h-.09c-1.69,0-3.06-1.37-3.06-3.06s1.37-3.06,3.06-3.06,3.11,1.37,3.11,3.06-1.33,3.06-3.02,3.06Z"/><path class="b" d="M243.92,203.61H6.08V64.67h29.27c1.69,0,3.06,1.37,3.06,3.06s-1.37,3.06-3.06,3.06H12.21v126.69h225.57v-126.69h-22.61c-1.69,0-3.06-1.37-3.06-3.06s1.37-3.06,3.06-3.06h28.74v138.94Z"/><path class="b" d="M123.59,202.74c-.64,0-1.28-.13-1.89-.4-48.95-21.45-85.54-16.41-85.91-16.36l-3.51.51V47.47s2.65-.36,2.65-.36c1.8-.25,44.64-5.72,91.65,17.9l1.69.85v132.21c0,1.58-.79,3.05-2.12,3.91-.78.51-1.67.77-2.57.77ZM47.07,179.24c14.8,0,41.91,2.45,75.08,16.61v-126.22c-38.13-18.6-73.88-17.47-83.73-16.72v126.63c2.06-.16,4.98-.31,8.66-.31Z"/><path class="b" d="M108.53,170.24c-.34,0-.69-.06-1.03-.18-23.61-8.44-43.29-10.75-55.64-11.2-1.69-.06-3.01-1.48-2.95-3.17.06-1.69,1.64-3.06,3.17-2.95,12.78.46,33.13,2.84,57.48,11.55,1.59.57,2.42,2.32,1.85,3.92-.45,1.25-1.63,2.03-2.88,2.03Z"/><path class="b" d="M108.53,150.14c-.34,0-.69-.06-1.03-.18-23.65-8.46-43.31-10.75-55.63-11.18-1.69-.06-3.01-1.48-2.95-3.17.06-1.65,1.42-2.96,3.06-2.96.04,0,.07,0,.11,0,12.76.45,33.09,2.81,57.48,11.54,1.59.57,2.42,2.32,1.85,3.92-.45,1.25-1.63,2.03-2.88,2.03Z"/><path class="b" d="M108.53,130.66c-.34,0-.69-.06-1.03-.18-23.65-8.46-43.31-10.75-55.63-11.18-1.69-.06-3.01-1.48-2.95-3.17.06-1.65,1.42-2.96,3.06-2.96.04,0,.07,0,.11,0,12.76.45,33.09,2.81,57.48,11.54,1.59.57,2.42,2.32,1.85,3.92-.45,1.25-1.63,2.03-2.88,2.03Z"/><path class="b" d="M111.6,108.36l-4.1-1.47c-23.65-8.46-43.31-10.75-55.63-11.18l-2.96-.1v-25.78l3.17.11c12.76.45,33.08,2.81,57.48,11.53l2.03.73v26.16ZM55.04,89.72c12.05.66,29.63,3.01,50.43,9.99v-13.18c-20.83-7.21-38.42-9.64-50.43-10.32v13.51Z"/><path class="b" d="M141.39,148.84c-1.26,0-2.44-.78-2.88-2.03-.57-1.6.26-3.35,1.85-3.92,24.36-8.71,44.7-11.09,57.48-11.55,1.64-.13,3.11,1.26,3.17,2.95.06,1.69-1.26,3.11-2.95,3.17-12.34.45-32.01,2.75-55.64,11.2-.34.12-.69.18-1.03.18Z"/><path class="b" d="M141.39,171.22c-1.26,0-2.44-.78-2.88-2.03-.57-1.6.26-3.35,1.85-3.92,24.35-8.71,44.7-11.08,57.48-11.55.04,0,.07,0,.11,0,1.64,0,3,1.3,3.06,2.95.06,1.69-1.26,3.11-2.95,3.17-12.35.45-32.02,2.76-55.64,11.2-.34.12-.69.18-1.03.18Z"/><path class="b" d="M141.39,128.74c-1.26,0-2.44-.78-2.88-2.03-.57-1.6.26-3.35,1.85-3.92,24.4-8.72,44.72-11.08,57.48-11.53.04,0,.07,0,.11,0,1.64,0,3,1.3,3.06,2.96.06,1.69-1.26,3.11-2.95,3.17-12.32.43-31.98,2.73-55.63,11.18-.34.12-.69.18-1.03.18Z"/><path class="b" d="M141.39,109.26c-1.26,0-2.44-.78-2.88-2.03-.57-1.6.26-3.35,1.85-3.92,24.4-8.72,44.72-11.08,57.48-11.53.04,0,.07,0,.11,0,1.64,0,3,1.3,3.06,2.96.06,1.69-1.26,3.11-2.95,3.17-12.32.43-31.98,2.73-55.63,11.18-.34.12-.69.18-1.03.18Z"/><path class="b" d="M141.39,89.61c-1.26,0-2.44-.78-2.88-2.03-.57-1.6.26-3.35,1.85-3.92,24.4-8.72,44.72-11.09,57.48-11.54.04,0,.07,0,.11,0,1.64,0,3,1.3,3.06,2.96.06,1.69-1.26,3.11-2.95,3.17-12.32.43-31.98,2.73-55.63,11.18-.34.12-.69.18-1.03.18Z"/><path class="b" d="M126.93,202.74c-.9,0-1.79-.26-2.57-.77-1.33-.87-2.12-2.33-2.12-3.91V65.85l1.69-.85c47.02-23.61,89.85-18.14,91.65-17.9l2.65.36v139.03l-3.51-.51c-.37-.06-36.95-5.09-85.9,16.36-.61.27-1.25.4-1.89.4ZM128.37,69.64v126.22c41.41-17.68,73.38-17.11,83.73-16.3V52.92c-9.84-.75-45.61-1.88-83.73,16.72Z"/></svg>