<?xml version="1.0" encoding="UTF-8"?><svg id="a" xmlns="http://www.w3.org/2000/svg" viewBox="0 0 250 250"><defs><style>.b{fill:#fff;}</style></defs><path class="b" d="M190.55,168.13c-26.55,0-54.76-7.59-54.76-21.65s28.21-21.65,54.76-21.65,54.76,7.59,54.76,21.65-28.21,21.65-54.76,21.65ZM190.55,129.85c-29.31,0-49.73,8.76-49.73,16.63s20.42,16.62,49.73,16.62,49.73-8.76,49.73-16.62-20.42-16.63-49.73-16.63Z"/><path class="b" d="M190.54,185.01c-26.55,0-54.76-7.59-54.76-21.65h5.03c0,7.86,20.43,16.63,49.73,16.63s49.73-8.76,49.73-16.63h5.03c0,14.06-28.21,21.65-54.76,21.65Z"/><rect class="b" x="135.79" y="146.48" width="5.03" height="16.88"/><rect class="b" x="240.28" y="146.48" width="5.03" height="16.89"/><polygon class="b" points="28 153.88 26.42 151.53 28.91 151.53 27.13 149.8 28.93 151.51 29.86 149.21 28.94 151.52 28.95 151.53 31.44 151.53 28.95 151.53 30.77 153.26 28 153.88"/><polygon class="b" points="93.28 153.1 93.25 153.1 93.25 148.08 93.28 153.1"/><path class="b" d="M62.76,187.8c-26.55,0-54.76-7.59-54.76-21.65,0-2.24.77-4.41,2.29-6.46l4.04,2.99c-.88,1.18-1.3,2.31-1.3,3.46,0,7.86,20.43,16.63,49.74,16.63s49.73-8.76,49.73-16.63c0-2.57-2.24-4.83-4.12-6.27l3.06-3.99c5.03,3.86,6.09,7.71,6.09,10.26,0,14.06-28.21,21.65-54.76,21.65Z"/><path class="b" d="M62.75,204.68c-26.55,0-54.76-7.59-54.76-21.65h5.03c0,7.86,20.43,16.63,49.73,16.63s49.73-8.76,49.73-16.63h5.03c0,14.06-28.21,21.65-54.76,21.65Z"/><rect class="b" x="8" y="166.15" width="5.03" height="16.88"/><rect class="b" x="112.48" y="166.15" width="5.03" height="16.89"/><path class="b" d="M59.47,157.66c-26.55,0-54.76-7.59-54.76-21.65,0-5.81,5.03-10.97,14.55-14.95l1.93,4.64c-7.28,3.04-11.46,6.8-11.46,10.31,0,7.86,20.43,16.63,49.74,16.63,24.97,0,43.14-6.47,48.19-12.87l.24-.27,1.82,1.9,1.88,1.49c-6.98,8.84-27.93,14.78-52.14,14.78Z"/><path class="b" d="M59.46,174.54c-26.55,0-54.76-7.59-54.76-21.65h5.03c0,7.86,20.43,16.63,49.73,16.63s49.73-8.76,49.73-16.63h5.03c0,14.06-28.21,21.65-54.76,21.65Z"/><rect class="b" x="4.7" y="136" width="5.03" height="16.89"/><rect class="b" x="109.18" y="140.48" width="5.03" height="12.41"/><path class="b" d="M72.48,132.62c-26.55,0-54.76-7.58-54.76-21.63,0-.28.01-.57.06-.86l.61-3.55,3.12,1.8c9.27,5.34,25.28,8.53,42.83,8.53,28.72,0,49.25-8.62,49.72-16.35l.24-4.04,3.51,2c7.8,4.45,9.44,9.23,9.44,12.46,0,14.05-28.21,21.63-54.76,21.63ZM24.95,115.58c6.03,6.32,23.89,12.02,47.53,12.02,29.31,0,49.73-8.75,49.73-16.61,0-2.06-1.45-4.24-4.14-6.29-5.29,11.22-30.36,17.24-53.74,17.24-15.13,0-29.28-2.33-39.39-6.36Z"/><path class="b" d="M72.48,149.52c-26.55,0-54.76-7.59-54.76-21.65h5.03c0,7.86,20.43,16.63,49.73,16.63s49.73-8.76,49.73-16.63h5.03c0,14.06-28.21,21.65-54.76,21.65Z"/><rect class="b" x="17.73" y="110.98" width="5.03" height="16.88"/><rect class="b" x="122.22" y="110.98" width="5.03" height="16.89"/><path class="b" d="M19.01,112.75c-7.8-4.45-9.44-9.23-9.44-12.46h5.03c0,2.69,2.45,5.56,6.9,8.09l-2.49,4.37Z"/><path class="b" d="M119.04,101.12l-4.96-.81,5.02-.02c0,.28-.01.56-.06.84Z"/><rect class="b" x="9.57" y="83.4" width="5.03" height="16.88"/><polygon class="b" points="119.08 100.3 114.05 100.3 114.05 83.42 119.08 83.38 119.08 100.3"/><path class="b" d="M64.35,88.62c-11.79,0-22.98-1.39-32.35-4.03-14.45-4.03-22.41-10.28-22.41-17.62,0-14.06,28.21-21.65,54.76-21.65s54.76,7.59,54.76,21.65c0,.18,0,.45-.05.77-.27,3.53-2.41,6.8-6.34,9.71-2.14,1.57-4.7,2.99-7.59,4.23-10.18,4.41-25.04,6.94-40.77,6.94ZM64.35,50.34c-29.31,0-49.73,8.76-49.73,16.62,0,4.66,7.18,9.56,18.74,12.78,8.94,2.52,19.66,3.84,31,3.84,15.07,0,29.2-2.38,38.78-6.54,2.56-1.09,4.78-2.32,6.6-3.66,2.74-2.03,4.19-4.09,4.32-6.13l.03-.3c0-7.86-20.43-16.62-49.73-16.62ZM114.09,66.97c0,.05,0,.08,0,.09l2.51-.09h-2.5Z"/><path class="b" d="M64.35,105.5c-.76,0-1.48,0-2.24-.04-.61,0-1.37,0-2.09-.03-1.51-.03-3.05-.1-4.56-.21-1.43-.07-2.88-.17-4.29-.32-.87-.07-1.77-.17-2.63-.28-.8-.06-1.65-.17-2.52-.32-.49-.05-1.12-.13-1.75-.24-.93-.13-1.95-.3-2.97-.48-1.84-.31-3.46-.63-4.93-1-.68-.12-1.49-.31-2.29-.54-.66-.15-1.39-.34-2.12-.55-.75-.2-1.6-.45-2.37-.71-1.11-.33-2.25-.73-3.32-1.12-.51-.17-1.09-.4-1.63-.63-.99-.38-2.11-.88-3.43-1.54-.61-.29-1.27-.64-1.85-.98l-.37-.19c-.54-.31-.91-.53-1.27-.78-.54-.32-1.07-.7-1.57-1.08-.31-.18-.78-.54-1.35-1.06-.49-.38-.95-.8-1.35-1.24-.31-.27-.71-.7-1.06-1.14-.28-.34-.52-.68-.76-1.01l-.58-.58-.02-.37c-.05-.1-.11-.19-.16-.29l-.19-.36c-.54-1.13-.85-2.11-.98-3.09-.07-.4-.12-.92-.12-1.49h5.03c0,.25.02.48.06.71.08.57.24,1.05.55,1.7l.08.14c.09.17.18.35.29.51l.06.08c.21.31.41.58.65.88.22.27.44.52.71.76.38.4.63.63.9.83l.2.16c.29.27.57.51.89.71.56.41.94.69,1.32.91l.24.15c.24.18.49.31.75.46l.64.34c.45.27.95.54,1.46.77,1.22.61,2.2,1.05,3.11,1.4.5.21.95.4,1.4.54,1.05.38,2.1.75,3.18,1.07.74.25,1.47.47,2.2.66.73.22,1.36.38,2.04.54.75.21,1.38.36,2.05.48,1.5.36,3,.67,4.73.95.98.17,1.94.33,2.91.47.63.11,1.16.17,1.7.23.85.14,1.57.24,2.31.3.89.11,1.7.21,2.55.27,1.38.14,2.74.24,4.14.3,1.49.1,2.95.17,4.46.2.71.04,1.38.04,2.03.03.8.04,1.46.03,2.12.03,1.75,0,3.46-.03,5.17-.1,2.79-.1,5.66-.29,8.55-.57l3.59-.41c.3-.05.73-.12,1.15-.18l1.18-.18c2.29-.34,4.47-.74,6.54-1.21,1.03-.22,1.9-.41,2.71-.63,1.15-.28,2.2-.57,3.18-.87l.41-.11c.91-.26,1.79-.55,2.61-.86.74-.23,1.29-.43,1.82-.66.81-.29,1.39-.54,1.95-.79,1.38-.56,2.55-1.14,3.67-1.81l.25-.13c.28-.13.55-.29.8-.46l.29-.18c.25-.13.49-.29.72-.47l.29-.2c.21-.12.42-.27.6-.43.4-.32.67-.53.93-.76.3-.24.49-.41.64-.57l.19-.19c.27-.25.49-.49.69-.74.16-.19.26-.3.34-.41l.25-.36c.06-.07.12-.14.17-.21l.19-.3c.07-.1.11-.21.16-.31l.12-.23c.14-.26.23-.52.32-.78.13-.38.21-.8.23-1.2l.07-.48c-.04.14-.04.25-.04.26l5.03-.1c0,.19,0,.45-.05.76-.06.79-.22,1.59-.49,2.39-.2.56-.39,1.05-.66,1.54-.17.35-.34.68-.55.98-.17.29-.35.54-.54.76-.19.29-.43.59-.68.88-.27.34-.63.75-1.08,1.16-.32.35-.71.69-1.1,1-.23.21-.58.49-.93.76-.26.24-.67.54-1.1.8-.38.29-.78.55-1.19.78-.44.31-.9.58-1.39.81-1.29.77-2.7,1.46-4.17,2.06-.6.27-1.31.57-2.06.83-.52.24-1.27.52-2.06.75-.9.35-2.03.71-3.2,1.04l-.34.09c-.96.29-1.98.57-3.03.82-.82.23-1.78.43-2.74.64-2.3.52-4.61.94-6.97,1.29-.38.06-.81.13-1.23.19l-1.18.18-3.77.43c-3.03.3-6.01.5-8.89.59-1.77.07-3.55.11-5.36.11Z"/><rect class="b" x="9.59" y="66.97" width="5.03" height="16.88"/><polygon class="b" points="114.05 83.88 114.05 66.97 119.08 66.97 119.08 83.85 114.05 83.88"/></svg>