<?xml version="1.0" encoding="UTF-8"?><svg id="a" xmlns="http://www.w3.org/2000/svg" viewBox="0 0 250 250"><defs><style>.b{fill:#fff;}</style></defs><path class="b" d="M132.09,149.97c-15.55,0-28.2-12.65-28.2-28.2s12.65-28.2,28.2-28.2,28.2,12.65,28.2,28.2-12.65,28.2-28.2,28.2ZM132.09,99.87c-12.08,0-21.9,9.82-21.9,21.9s9.82,21.9,21.9,21.9,21.9-9.82,21.9-21.9-9.82-21.9-21.9-21.9Z"/><path class="b" d="M120.19,174.52l-8.5-15.77-17.2,5.67,12.89-31.47c.66-1.61,2.5-2.38,4.11-1.72,1.61.66,2.38,2.5,1.72,4.11l-7.71,18.82,9.23-3.04,4.7,8.72,5.98-14.49c.66-1.61,2.5-2.37,4.11-1.71,1.61.66,2.38,2.51,1.71,4.11l-11.05,26.78Z"/><path class="b" d="M144.67,173.37l-10.75-25.79c-.67-1.61.09-3.45,1.7-4.12,1.61-.67,3.45.09,4.12,1.7l5.67,13.59,4.72-8.75,9.2,3.03-7.76-18.79,5.83-2.41,13,31.49-17.23-5.68-8.49,15.74Z"/><path class="b" d="M132.09,136.88c-8.33,0-15.11-6.78-15.11-15.11s6.78-15.11,15.11-15.11,15.11,6.78,15.11,15.11-6.78,15.11-15.11,15.11ZM132.09,112.96c-4.86,0-8.81,3.95-8.81,8.81s3.95,8.81,8.81,8.81,8.81-3.95,8.81-8.81-3.95-8.81-8.81-8.81Z"/><path class="b" d="M15.29,147.79l-.57-.2c-6.17-2.21-10.47-12.23-10.47-24.38s4.44-22.5,10.8-24.49l.52-.16.55.02,96.86,4c1.74.07,3.09,1.54,3.02,3.28-.07,1.74-1.48,3.13-3.28,3.02l-96.19-3.98c-2.63,1.36-5.97,8.08-5.97,18.31s3.27,16.73,5.85,18.23l90.89-3.16c1.71-.13,3.2,1.3,3.26,3.04.06,1.74-1.3,3.2-3.04,3.26l-92.23,3.21Z"/><path class="b" d="M234.71,147.79l-76.95-3.04c-1.74-.07-3.09-1.53-3.02-3.27.07-1.74,1.49-3.11,3.27-3.03l75.6,2.99c2.59-1.51,5.85-8.26,5.85-18.23s-3.35-16.94-5.97-18.3l-82.16,3.78c-1.76.07-3.21-1.26-3.29-3s1.26-3.21,3-3.29l83.38-3.83.53.16c6.37,1.97,10.82,12.04,10.82,24.49s-4.3,22.16-10.47,24.38l-.58.21Z"/></svg>