<?xml version="1.0" encoding="UTF-8"?><svg id="a" xmlns="http://www.w3.org/2000/svg" viewBox="0 0 250 250"><defs><style>.b{fill:#2ca5bc;}</style></defs><polygon class="b" points="188.37 243.3 30.71 243.3 30.71 33.4 116.34 33.39 116.34 38.97 36.29 38.97 36.29 237.72 182.79 237.72 182.79 109.7 188.37 109.7 188.37 243.3"/><path class="b" d="M171.61,102.06c-26.29,0-47.68-21.39-47.68-47.68S145.32,6.7,171.61,6.7s47.68,21.39,47.68,47.68-21.39,47.68-47.68,47.68ZM171.61,12.28c-23.22,0-42.1,18.89-42.1,42.1s18.89,42.1,42.1,42.1,42.1-18.89,42.1-42.1-18.89-42.1-42.1-42.1Z"/><rect class="b" x="58.1" y="167.54" width="102.47" height="5.58"/><rect class="b" x="58.1" y="146.22" width="102.47" height="5.58"/><rect class="b" x="58.1" y="189.01" width="102.47" height="5.58"/><rect class="b" x="58.1" y="210.48" width="68.62" height="5.58"/><polygon class="b" points="162 73.51 147.2 57.4 151.31 53.63 162.27 65.56 192.04 37.21 195.88 41.25 162 73.51"/><path class="b" d="M84.94,119.5c-16.34,0-29.63-13.29-29.63-29.63s13.29-29.63,29.63-29.63,29.63,13.29,29.63,29.63-13.29,29.63-29.63,29.63ZM84.94,65.81c-13.26,0-24.05,10.79-24.05,24.05s10.79,24.05,24.05,24.05,24.05-10.79,24.05-24.05-10.79-24.05-24.05-24.05Z"/><path class="b" d="M84.94,94.15c-6.12,0-11.1-4.98-11.1-11.1s4.98-11.1,11.1-11.1,11.1,4.98,11.1,11.1-4.98,11.1-11.1,11.1ZM84.94,77.53c-3.04,0-5.52,2.48-5.52,5.52s2.48,5.52,5.52,5.52,5.52-2.48,5.52-5.52-2.48-5.52-5.52-5.52Z"/><path class="b" d="M69.4,110.83l-5.09-2.27c3.62-8.13,11.72-13.38,20.63-13.38s16.99,5.24,20.63,13.36l-5.09,2.29c-2.75-6.12-8.85-10.07-15.54-10.07s-12.81,3.96-15.54,10.08Z"/></svg>