<?xml version="1.0" encoding="UTF-8"?><svg id="a" xmlns="http://www.w3.org/2000/svg" viewBox="0 0 250 250"><defs><style>.b{fill:#fff;}</style></defs><path class="b" d="M220.22,245.44H29.75c-.07,0-.15,0-.22,0-14.12-.13-25.56-11.65-25.56-25.79v-25.8h44.85V4.56h197.23l-.03,215.13c-.09,14.2-11.66,25.74-25.8,25.74ZM46.97,238.77h173.24c10.48,0,19.07-8.57,19.13-19.09l.03-208.45H55.47v208.47c-.02,7.56-3.3,14.36-8.5,19.07ZM10.62,200.5v19.13c0,10.55,8.58,19.13,19.13,19.13s19.03-8.56,19.05-19.08v-19.18H10.62Z"/><path class="b" d="M219.53,82.51H84.01c-1.84,0-3.33-1.49-3.33-3.33s1.49-3.33,3.33-3.33h135.52c1.84,0,3.33,1.49,3.33,3.33s-1.49,3.33-3.33,3.33Z"/><path class="b" d="M219.53,111.37H84.01c-1.84,0-3.33-1.49-3.33-3.33s1.49-3.33,3.33-3.33h135.52c1.84,0,3.33,1.49,3.33,3.33s-1.49,3.33-3.33,3.33Z"/><path class="b" d="M219.53,141.91H84.01c-1.84,0-3.33-1.49-3.33-3.33s1.49-3.33,3.33-3.33h135.52c1.84,0,3.33,1.49,3.33,3.33s-1.49,3.33-3.33,3.33Z"/><path class="b" d="M219.53,170.77H84.01c-1.84,0-3.33-1.49-3.33-3.33s1.49-3.33,3.33-3.33h135.52c1.84,0,3.33,1.49,3.33,3.33s-1.49,3.33-3.33,3.33Z"/></svg>