<?xml version="1.0" encoding="UTF-8"?><svg id="a" xmlns="http://www.w3.org/2000/svg" viewBox="0 0 250 250"><defs><style>.b{fill:#fff;}</style></defs><polygon class="b" points="241.36 222.3 235.17 222.3 235.17 14.8 46.84 14.8 46.84 222.3 40.64 222.3 40.64 8.6 241.36 8.6 241.36 222.3"/><path class="b" d="M27.75,241.4v-6.2h194.48c7.14,0,12.94-5.79,12.94-12.9h6.2c0,10.53-8.59,19.09-19.14,19.09H27.75Z"/><path class="b" d="M27.75,241.39c-10.53,0-19.09-8.57-19.09-19.09h6.2c0,7.11,5.78,12.9,12.9,12.9s12.9-5.78,12.9-12.9h6.2c0,10.53-8.57,19.09-19.09,19.09Z"/><polygon class="b" points="14.83 222.28 8.64 222.28 8.64 154.48 43.76 154.48 43.76 160.68 14.83 160.68 14.83 222.28"/><path class="b" d="M74.42,56.18c0,1.07-.1,2.02-.3,2.88s-.54,1.58-1.02,2.18-1.1,1.06-1.88,1.37-1.73.47-2.87.47c-.36,0-.72-.03-1.08-.08s-.68-.12-.98-.21-.55-.18-.77-.27-.36-.18-.44-.26-.13-.16-.18-.25-.09-.2-.13-.34-.06-.31-.07-.52-.02-.47-.02-.78c0-.41,0-.76.03-1.04s.05-.51.09-.67.1-.28.18-.34.18-.1.3-.1c.11,0,.24.04.38.12s.31.16.49.25.39.17.64.25.53.12.85.12.61-.05.86-.14.45-.25.62-.47.29-.52.37-.9.13-.86.13-1.45v-16.14c0-.12.04-.23.12-.32s.21-.17.38-.23.42-.11.74-.14.7-.05,1.16-.05.84.02,1.14.05.55.08.74.14.32.14.4.23.12.2.12.32v16.34Z"/><path class="b" d="M100.63,50.7c0,1.95-.24,3.69-.73,5.23s-1.2,2.84-2.16,3.91-2.14,1.89-3.55,2.45-3.04.84-4.89.84-3.42-.24-4.78-.72-2.5-1.21-3.4-2.19-1.59-2.23-2.04-3.74-.68-3.3-.68-5.37c0-1.9.24-3.61.73-5.13s1.2-2.81,2.16-3.88,2.14-1.88,3.55-2.45,3.05-.85,4.91-.85,3.35.24,4.71.71,2.5,1.2,3.41,2.18,1.6,2.22,2.07,3.71.7,3.26.7,5.29ZM95.62,50.95c0-1.23-.1-2.36-.29-3.37s-.52-1.88-.99-2.6-1.09-1.28-1.86-1.67-1.74-.59-2.9-.59-2.15.22-2.94.66-1.42,1.03-1.91,1.77-.83,1.6-1.03,2.59-.3,2.03-.3,3.13c0,1.28.1,2.44.29,3.46s.52,1.9.98,2.62,1.08,1.28,1.85,1.66,1.75.57,2.92.57,2.15-.22,2.94-.65,1.42-1.03,1.91-1.78.83-1.62,1.03-2.62.3-2.06.3-3.19Z"/><path class="b" d="M123.81,53.97c0,1.44-.21,2.73-.64,3.87s-1.05,2.1-1.87,2.89-1.84,1.39-3.05,1.8-2.6.62-4.18.62c-1.48,0-2.8-.18-3.98-.55s-2.17-.93-2.98-1.68-1.43-1.69-1.86-2.8-.64-2.43-.64-3.93v-14.29c0-.12.04-.23.11-.33s.2-.18.39-.24.43-.11.74-.15.69-.05,1.16-.05.84.02,1.14.05.54.08.73.15.31.14.39.24.12.21.12.33v13.87c0,.93.11,1.74.34,2.42s.56,1.25.99,1.7.94.78,1.54,1.01,1.27.34,2.01.34,1.42-.11,2.02-.34,1.1-.57,1.51-1.01.73-.99.95-1.63.34-1.38.34-2.21v-14.14c0-.12.04-.23.11-.33s.2-.18.38-.24.43-.11.74-.15.69-.05,1.15-.05.84.02,1.13.05.54.08.72.15.31.14.38.24.11.21.11.33v14.09Z"/><path class="b" d="M146.34,62.1c0,.13-.02.25-.07.34s-.16.17-.34.23-.45.1-.8.13-.83.04-1.43.04c-.51,0-.91-.01-1.22-.04s-.54-.07-.72-.14-.3-.15-.37-.25-.13-.23-.18-.37l-2.11-5.25c-.25-.59-.5-1.12-.74-1.58s-.51-.84-.81-1.15-.64-.54-1.03-.7-.84-.24-1.34-.24h-1.49v8.95c0,.12-.04.23-.12.33s-.21.18-.39.24-.42.11-.73.15-.69.05-1.16.05-.84-.02-1.15-.05-.55-.08-.74-.15-.31-.14-.38-.24-.11-.21-.11-.33v-21.33c0-.53.14-.92.41-1.15s.61-.35,1.01-.35h6.08c.62,0,1.13.01,1.52.04s.76.05,1.09.09c.94.13,1.79.36,2.55.69s1.4.75,1.92,1.28.93,1.15,1.21,1.87.42,1.55.42,2.48c0,.79-.1,1.5-.3,2.15s-.49,1.23-.88,1.73-.87.95-1.43,1.33-1.22.68-1.94.91c.35.17.68.38.99.62s.6.54.87.88.53.74.77,1.18.48.94.71,1.5l1.98,4.63c.18.46.3.8.36,1.01s.09.38.09.5ZM140.19,46.16c0-.77-.18-1.43-.53-1.96s-.93-.91-1.72-1.13c-.24-.06-.52-.11-.83-.15s-.74-.05-1.28-.05h-2.14v6.66h2.43c.68,0,1.27-.08,1.78-.25s.93-.39,1.27-.69.59-.65.76-1.06.25-.87.25-1.38Z"/><path class="b" d="M169.21,61.05c0,.28-.05.53-.15.74s-.23.4-.39.54-.36.25-.58.32-.45.1-.68.1h-2.03c-.42,0-.79-.04-1.1-.13s-.59-.24-.85-.46-.51-.53-.75-.91-.51-.87-.82-1.48l-5.85-10.98c-.34-.65-.68-1.36-1.03-2.11s-.67-1.49-.94-2.21h-.04c.05.87.08,1.74.11,2.61s.04,1.76.04,2.68v12.29c0,.12-.03.23-.1.33s-.18.18-.34.25-.38.12-.66.15-.64.05-1.07.05-.77-.02-1.05-.05-.5-.09-.65-.15-.27-.15-.33-.25-.09-.21-.09-.33v-21.11c0-.57.17-1,.5-1.28s.74-.43,1.23-.43h2.56c.46,0,.85.04,1.16.12s.6.21.84.39.48.43.7.75.44.72.67,1.19l4.57,8.59c.27.52.53,1.03.79,1.53s.51,1,.75,1.51.48,1,.71,1.48.45.97.67,1.45h.02c-.04-.85-.06-1.73-.08-2.65s-.03-1.8-.03-2.63v-11.02c0-.12.04-.23.11-.33s.19-.18.36-.25.39-.12.67-.15.64-.05,1.07-.05c.41,0,.76.02,1.03.05s.49.08.64.15.26.16.32.25.09.21.09.33v21.11Z"/><path class="b" d="M193.58,60.94c.15.44.24.78.27,1.03s-.01.44-.15.57-.37.21-.71.24-.8.05-1.4.05-1.1,0-1.44-.03-.61-.05-.79-.11-.31-.13-.38-.23-.13-.22-.18-.38l-1.58-4.72h-8.82l-1.49,4.59c-.05.17-.11.31-.19.43s-.21.21-.38.27-.42.11-.74.14-.74.04-1.26.04c-.56,0-.99-.02-1.31-.05s-.53-.12-.65-.26-.16-.34-.13-.59.13-.59.27-1.02l7.24-20.84c.07-.21.16-.37.25-.5s.25-.22.46-.29.51-.11.88-.13.87-.03,1.49-.03c.71,0,1.28,0,1.71.03s.75.06.99.13.41.17.51.3.19.31.26.54l7.26,20.82ZM182.79,43.71h-.02l-3.32,9.98h6.66l-3.32-9.98Z"/><path class="b" d="M209.77,60.72c0,.36-.02.67-.05.92s-.08.45-.14.62-.14.28-.23.35-.2.11-.32.11h-10.77c-.4,0-.74-.12-1.01-.35s-.41-.62-.41-1.15v-21.33c0-.12.04-.23.12-.33s.21-.18.39-.24.43-.11.74-.15.69-.05,1.15-.05.86.02,1.16.05.54.08.73.15.31.14.39.24.12.21.12.33v18.9h7.39c.12,0,.23.03.32.1s.17.18.23.33.11.35.14.6.05.55.05.92Z"/><path class="b" d="M210.36,114.17H64.42v-41.2h145.94v41.2ZM70.61,107.97h133.55v-28.8H70.61v28.8Z"/><rect class="b" x="67.52" y="148.12" width="60.41" height="6.2"/><rect class="b" x="67.52" y="164.43" width="60.41" height="6.2"/><rect class="b" x="67.52" y="181.55" width="60.41" height="6.2"/><rect class="b" x="67.52" y="200.38" width="60.41" height="6.2"/><rect class="b" x="146.85" y="148.12" width="60.41" height="6.2"/><rect class="b" x="67.52" y="132.63" width="60.41" height="6.2"/><rect class="b" x="146.85" y="132.63" width="60.41" height="6.2"/><rect class="b" x="146.85" y="164.43" width="60.41" height="6.2"/><rect class="b" x="146.85" y="181.55" width="60.41" height="6.2"/><rect class="b" x="146.85" y="200.38" width="60.41" height="6.2"/></svg>