<?xml version="1.0" encoding="UTF-8"?><svg id="a" xmlns="http://www.w3.org/2000/svg" viewBox="0 0 250 250"><defs><style>.b{fill:#fff;}</style></defs><path class="b" d="M236.38,99.51h-38.15c-.83,0-5.08-.16-7-3.4-.86-1.44-1.47-3.89.45-7.42l.38-.55c2-2.35,4.81-6.73,4.81-9.06,0-3.03-2.54-7.58-7.98-7.69h0c-2.09-.11-3.92.65-5.35,2.05-1.84,1.81-2.49,4.17-2.49,5.64,0,2.33,2.81,6.7,4.81,9.06l.38.55c1.92,3.53,1.31,5.99.45,7.43-1.92,3.24-6.17,3.4-7,3.4h-38.16v-38.42c0-.1,0-.21-.03-.31-.1.04-.21.1-.34.19-7.61,5.63-17.9,7.77-23.74-.13-3.77-5.1-3.79-12.27-.05-17.44,2.11-2.91,5-4.73,8.37-5.25,7.12-1.13,14.1,3.72,15.42,4.71.12.09.23.16.34.2.01-.1.02-.19.02-.27V4.33h78.81c8.85,0,16.05,7.2,16.05,16.05v79.14ZM196.96,92.78c.34.12.88.23,1.3.24h31.64V20.37c0-5.27-4.29-9.56-9.56-9.56h-72.32v31.93c.02.47,0,3.44-2.17,5.39-.93.83-2.54,1.77-5.08,1.4-1.21-.17-2.41-.67-3.46-1.46-1.99-1.47-6.74-4.13-10.57-3.51-1.66.26-3,1.12-4.11,2.64-2.1,2.9-2.09,6.92.01,9.77,4.47,6.04,13.63-.47,14.66-1.23,1.06-.79,2.26-1.29,3.46-1.46,2.5-.35,4.15.57,5.08,1.4,2.17,1.96,2.19,4.93,2.17,5.5v31.82h31.67c.4,0,.93-.11,1.27-.24-.04-.16-.13-.41-.29-.74-1.45-1.76-6.11-7.8-6.11-12.97,0-3.65,1.7-7.59,4.44-10.27,2.69-2.63,6.08-3.89,10.03-3.91h0c8.86.18,14.33,7.5,14.33,14.18,0,5.17-4.66,11.22-6.11,12.97-.16.33-.25.57-.29.74Z"/><path class="b" d="M108.47,245.67H32.41c-10.36,0-18.79-8.43-18.79-18.79v-76.39h38.15c.83,0,5.07.16,7,3.4.85,1.44,1.47,3.89-.45,7.43l-.38.55c-2,2.35-4.81,6.72-4.81,9.06,0,1.47.65,3.83,2.5,5.64,1.44,1.4,3.18,2.25,5.35,2.05,2.17.02,4.04-.65,5.48-2.05,1.84-1.8,2.49-4.16,2.49-5.64,0-2.34-2.81-6.71-4.8-9.06l-.37-.55c-1.93-3.54-1.32-5.99-.46-7.43,1.92-3.24,6.17-3.4,7-3.4l38.14-.07v38.42c.02.47,0,3.44-2.17,5.4-.93.83-2.55,1.77-5.08,1.4-1.22-.17-2.38-.66-3.46-1.45-1.99-1.47-6.8-4.13-10.57-3.51-1.66.26-3.01,1.12-4.11,2.64-2.1,2.9-2.09,6.92.02,9.76,4.47,6.04,13.63-.46,14.66-1.23,1.07-.8,2.24-1.29,3.46-1.46,2.5-.36,4.15.57,5.08,1.4,2.17,1.96,2.19,4.93,2.17,5.5v38.38ZM20.11,156.97v69.9c0,6.79,5.52,12.3,12.3,12.3h69.57v-31.99c0-.1-.02-.21-.03-.31-.13.05-.23.11-.34.19-7.62,5.64-17.91,7.77-23.74-.13-3.77-5.1-3.8-12.27-.05-17.43,2.11-2.91,5.01-4.73,8.37-5.25,7.13-1.12,14.09,3.73,15.42,4.71.12.09.24.16.34.2.02-.11.03-.2.03-.22v-32.02s-31.65.06-31.65.06c-.4,0-.94.11-1.28.24.05.16.13.41.29.74,1.45,1.75,6.1,7.79,6.1,12.98,0,3.65-1.7,7.59-4.44,10.27-2.69,2.63-6.2,3.91-10.02,3.9-3.76-.04-7.21-1.27-9.89-3.9-2.74-2.69-4.45-6.62-4.45-10.27,0-5.18,4.66-11.22,6.11-12.98.16-.33.25-.57.29-.74-.34-.12-.88-.23-1.3-.24h-31.63ZM68.99,156.92h0Z"/><path class="b" d="M108.47,153.66h-6.49v-34.9c0-.4-.11-.93-.23-1.27-.16.05-.4.13-.71.29-1.76,1.45-7.77,6.11-12.94,6.11-3.63,0-7.55-1.7-10.23-4.43-2.64-2.69-3.99-6.16-3.91-10.04.18-8.85,7.48-14.33,14.14-14.33,5.17,0,11.19,4.66,12.94,6.11.31.16.55.24.71.29.12-.34.23-.88.23-1.3v-31.63H31.35c-6.2,0-11.24,5.05-11.24,11.25v73.86h-6.49v-73.86c0-9.78,7.95-17.73,17.73-17.73h77.12s0,38.14,0,38.14c0,.83-.16,5.09-3.4,7.01-1.44.85-3.89,1.46-7.41-.47l-.55-.38c-2.34-1.99-6.69-4.8-9.01-4.8-3.02,0-7.54,2.54-7.64,7.97-.04,2.13.65,3.93,2.05,5.37,1.79,1.83,4.13,2.48,5.59,2.48,2.31,0,6.74-2.87,9.01-4.8l.55-.38c3.52-1.93,5.97-1.31,7.41-.46,3.24,1.92,3.4,6.17,3.4,7v34.9Z"/><path class="b" d="M179.94,245.67h-74.72v-6.49h74.72c5.74,0,10.41-4.67,10.41-10.41v-71.87h-31.8c-.47,0-3.45,0-5.4-2.17-.83-.93-1.75-2.56-1.4-5.07.19-1.26.7-2.46,1.49-3.5,1.44-1.95,4.06-6.72,3.48-10.53-.26-1.66-1.12-3-2.62-4.11-2.9-2.1-6.92-2.11-9.78,0-1.44,1.06-2.25,2.35-2.49,3.94-.56,3.74,2.08,8.5,3.72,10.72.77,1.04,1.27,2.23,1.45,3.44.35,2.54-.56,4.17-1.4,5.1-1.95,2.17-4.94,2.17-5.5,2.18l-34.87-.14-.02-6.49,35,.14c.1,0,.2,0,.3-.03-.04-.13-.11-.24-.18-.35-1.01-1.36-5.98-8.5-4.92-15.55.49-3.28,2.24-6.12,5.05-8.2,5.11-3.78,12.29-3.79,17.46-.03,2.9,2.11,4.7,5.01,5.22,8.37,1.09,7.12-3.72,14.08-4.7,15.4-.1.13-.16.24-.21.35.11.02.2.03.23.03h38.39s0,78.35,0,78.35c0,9.32-7.58,16.9-16.91,16.9Z"/></svg>