<?xml version="1.0" encoding="UTF-8"?><svg id="a" xmlns="http://www.w3.org/2000/svg" viewBox="0 0 250 250"><defs><style>.b,.c{fill:#fff;}.c{fill-rule:evenodd;}</style></defs><polygon class="b" points="122.96 145.52 123.11 145.57 133.25 142.71 127.47 111.44 123.03 112.22 123.45 138.84 111.78 141.64 122.96 145.52"/><polygon class="b" points="129.21 152.7 123.2 156.83 117.67 152.7 99.67 161.12 145.59 161.36 147.06 161.37 129.38 152.79 129.21 152.7"/><polygon class="b" points="122.59 171.24 122.73 171.31 141.24 163.14 105.08 163.14 122.59 171.24"/><path class="b" d="M149.51,95.68c-7.61,2.11-13.24,7.4-15.45,14.52l-.07.25.22.13c.53.33,1.07.59,1.6.84l.49.22c2.85,2.35,6.53,4.03,10.63,4.87l1.08.22-.77-.78c-1.43-1.45-2.22-3.37-2.22-5.41,0-2.4,1.11-4.62,3.05-6.12l1.07-.82-1.33.23c-1.9.33-3.71.83-5.39,1.49,2.79-3.19,6.45-5.47,10.68-6.63,6.01-1.67,12.91-1.01,19.41,1.85l.32.14.44-1.14-.24-.15c-7.37-4.45-15.95-5.8-23.52-3.72Z"/><path class="b" d="M157.69,103.85l-1.36-.25,1.1.84c1.94,1.48,3.06,3.71,3.06,6.11,0,2.02-.78,3.94-2.21,5.4l-.77.79,1.08-.23c4.61-1,8.63-3.07,11.63-5.99l.25-.24-.24-.24c-3.18-3.1-7.63-5.3-12.53-6.19Z"/><path class="b" d="M152.74,104.9c-3.12,0-5.65,2.53-5.65,5.65s2.53,5.64,5.65,5.64,5.65-2.52,5.65-5.64-2.52-5.65-5.65-5.65Z"/><path class="b" d="M97.33,98.7c4.23,1.16,7.89,3.44,10.68,6.63-1.68-.66-3.48-1.16-5.38-1.49l-1.33-.23,1.07.82c1.94,1.49,3.05,3.72,3.05,6.12,0,2.03-.79,3.95-2.22,5.41l-.76.78,1.07-.22c4.09-.84,7.77-2.52,10.57-4.83l.55-.27c.53-.25,1.08-.52,1.61-.84l.22-.14-.07-.24c-2.21-7.12-7.84-12.41-15.44-14.52-7.58-2.08-16.16-.73-23.53,3.72l-.24.15.44,1.14.32-.14c6.5-2.86,13.39-3.51,19.41-1.85Z"/><path class="b" d="M89.94,110.55c0-2.4,1.11-4.62,3.05-6.11l1.09-.84-1.35.24c-4.9.89-9.35,3.09-12.53,6.19l-.24.24.24.24c2.99,2.92,7.01,4.99,11.63,5.99l1.08.23-.77-.79c-1.42-1.47-2.21-3.38-2.21-5.4Z"/><path class="b" d="M103.34,110.55c0-3.12-2.53-5.65-5.65-5.65s-5.65,2.53-5.65,5.65,2.53,5.64,5.65,5.64,5.65-2.52,5.65-5.64Z"/><path class="c" d="M234.89,181.48c.85-1.66,1.67-3.35,2.44-5.06l-53.26-25.87.2-.44.16-.43c1.16-2.82,2.1-5.79,2.89-9l28.35,7.11,1.36-5.44-28.6-7.17c.43-2.64.72-5.08.83-7.42l.08-3.06c0-.65-.04-1.29-.07-1.93h59.05c-.04-1.88-.11-3.76-.24-5.62h-59.24c-.31-2.69-.73-5.13-1.25-7.39l28.72-8.19-1.54-5.4-28.68,8.18-.21-.74-1.1-3.02-.84-2.07c-.14-.34-.31-.67-.48-1.01l50.88-29.3c-.87-1.66-1.78-3.3-2.72-4.92l-50.71,29.2c-1.19-2.13-2.56-4.22-4.03-6.27l23.91-21.72-3.76-4.16-23.58,21.42c-.46-.55-.92-1.12-1.39-1.64l-2.07-2.2c-1.06-1.06-2.17-2.05-3.28-3.01l32.37-48.23c-1.5-1.13-3.03-2.21-4.57-3.27l-32.23,48.02c-3.14-2.31-6.38-4.34-9.68-5.98l-2.91-1.37-1.26-.52,8.63-34.36-5.45-1.37-8.49,33.84c-3.96-1.25-8.03-2.16-12.17-2.65l-2.14-.22-.78-.03.54-55.98h-5.63l-.53,55.8-3.89.15-2.13.16c-2.88.3-5.87.85-8.9,1.6l-9.55-33.47-5.4,1.55,9.55,33.48c-1,.33-1.99.66-2.98,1.05l-1.97.79-2.92,1.34c-1.05.51-2.15,1.1-3.36,1.79l-28.9-47.73c-1.61.96-3.19,1.96-4.76,2.99l28.91,47.74c-2.53,1.72-4.97,3.64-7.28,5.73l-24.85-24.06-3.91,4.04,24.71,23.92-.14.15c-2.45,2.64-4.74,5.64-6.84,8.88l-49.47-25.35c-.94,1.61-1.85,3.25-2.72,4.91l49.28,25.26c-.8,1.49-1.52,2.93-2.15,4.35l-1.28,3.05-.8,2.24-32.45-8.13-1.37,5.44,32.27,8.09c-.71,2.85-1.24,5.73-1.57,8.6H1.91c-.12,1.86-.2,3.73-.24,5.62h55.46v.07c-.04.62-.07,1.24-.07,1.88l.08,3.36c.1,1.96.35,3.99.67,6.09l-30.21,8.62,1.54,5.39,29.72-8.48c.13.55.24,1.1.37,1.64.55,2.08,1.11,3.9,1.7,5.6l-50.36,24.63c.7,1.74,1.45,3.46,2.23,5.16l50.26-24.58.72,1.61c1.32,2.68,2.87,5.29,4.67,7.93l-23.37,14.01,2.89,4.81,23.84-14.28c1.79,2.23,3.32,3.95,4.89,5.49l2.01,1.91c1.26,1.16,2.73,2.35,4.38,3.61l-32.28,46.75c1.49,1.12,3.01,2.21,4.55,3.26l32.33-46.81c3.15,2.01,6.4,3.77,9.72,5.18l3.09,1.22c.56.21,1.14.37,1.72.53.11.03.21.06.32.09l-6.94,27.67,5.44,1.36,6.89-27.48c2.37.55,4.62.98,6.84,1.27l2.37.28,5.29.26.58,56.4h5.63l-.58-56.69,2.98-.17,2.37-.3c2.91-.45,6.03-1.23,9.45-2.3l7.65,26.86,5.4-1.55-7.74-27.14,1.32-.54c3.87-1.67,7.69-3.84,11.37-6.42l24.56,43.29h6.45l-26.49-46.69c1.14-.93,2.11-1.76,2.97-2.56l1.99-1.94c.62-.63,1.2-1.3,1.79-1.96l.03-.03,20.8,20.13,3.89-4.04-21.1-20.43c2.29-2.99,4.27-6.06,5.9-9.13l53.24,25.87ZM177.82,150.67c-2.93,6.1-6.8,11.63-11.51,16.42l-1.85,1.79c-5.09,4.76-10.89,8.56-17.21,11.3l-2.84,1.15c-3.88,1.45-7.88,2.5-11.87,3.12l-2.02.26-5.54.41-1.76.04-5.58-.26-2.18-.25c-4.49-.57-8.87-1.63-13-3.14l-2.85-1.13c-6.28-2.66-12.03-6.35-17.08-10.95l-1.87-1.77c-4.82-4.78-8.78-10.29-11.77-16.38l-1.71-3.88c-2.56-6.31-4.02-12.9-4.35-19.6l-.09-3.11c0-6.48,1.04-12.92,3.1-19.11l.94-2.63,1.19-2.82c2.71-6.09,6.36-11.64,10.86-16.49l1.78-1.85c4.72-4.69,10.14-8.55,16.1-11.46l2.69-1.23,1.71-.69c5.15-2.01,10.49-3.31,15.85-3.87l6.24-.32,5.18.23,1.94.2c5.41.63,10.72,1.99,15.76,4.05l4.03,1.83c5.9,2.94,11.24,6.78,15.86,11.4l1.77,1.86c4.62,5.03,8.32,10.74,11,16.94l1.77,4.7c2.1,6.2,3.16,12.68,3.16,19.23l-.07,2.83c-.32,6.91-1.81,13.64-4.41,20.03l-1.37,3.13Z"/></svg>