<?xml version="1.0" encoding="UTF-8"?><svg id="a" xmlns="http://www.w3.org/2000/svg" viewBox="0 0 250 250"><defs><style>.b{fill:#fff;}</style></defs><path class="b" d="M120.18,241.93H17.77V7.42h181.39v125.85c0,1.76-1.43,3.19-3.19,3.19s-3.19-1.43-3.19-3.19V13.8H24.15v221.76h96.03c1.76,0,3.19,1.43,3.19,3.19s-1.43,3.19-3.19,3.19Z"/><path class="b" d="M133.75,242.58l10.7-35.09,58.34-58.33c3.26-3.26,7.59-5.05,12.2-5.05s8.94,1.79,12.2,5.05c3.26,3.26,5.05,7.59,5.05,12.2s-1.79,8.94-5.05,12.2l-58.34,58.34-35.09,10.69ZM150.09,210.88l-6.74,22.11,22.11-6.74,57.21-57.21c2.05-2.05,3.18-4.78,3.18-7.68s-1.13-5.63-3.18-7.68c-4.11-4.11-11.27-4.11-15.37,0l-57.21,57.21Z"/><path class="b" d="M221.78,177.63c-.82,0-1.63-.31-2.26-.93l-19.88-19.88c-1.25-1.25-1.25-3.26,0-4.51s3.26-1.25,4.51,0l19.88,19.88c1.25,1.25,1.25,3.26,0,4.51-.62.62-1.44.93-2.26.93Z"/><path class="b" d="M167.02,232.3c-.82,0-1.64-.31-2.27-.94l-19.75-19.92c-1.24-1.25-1.23-3.27.02-4.51,1.26-1.24,3.27-1.23,4.51.02l19.75,19.92c1.24,1.25,1.23,3.27-.02,4.51-.62.62-1.43.93-2.25.93Z"/><path class="b" d="M62.8,193.33c-7.53,0-13.66-6.13-13.66-13.66s6.13-13.66,13.66-13.66,13.66,6.13,13.66,13.66-6.13,13.66-13.66,13.66ZM62.8,172.39c-4.02,0-7.28,3.26-7.28,7.28s3.27,7.28,7.28,7.28,7.28-3.27,7.28-7.28-3.27-7.28-7.28-7.28Z"/><path class="b" d="M164.52,57.58h-68.81c-1.76,0-3.19-1.43-3.19-3.19s1.43-3.19,3.19-3.19h68.81c1.76,0,3.19,1.43,3.19,3.19s-1.43,3.19-3.19,3.19Z"/><path class="b" d="M164.52,140.22h-68.81c-1.76,0-3.19-1.43-3.19-3.19s1.43-3.19,3.19-3.19h68.81c1.76,0,3.19,1.43,3.19,3.19s-1.43,3.19-3.19,3.19Z"/><path class="b" d="M62.8,111.43c-7.53,0-13.66-6.13-13.66-13.66s6.13-13.66,13.66-13.66,13.66,6.13,13.66,13.66-6.13,13.66-13.66,13.66ZM62.8,90.49c-4.02,0-7.28,3.27-7.28,7.28s3.27,7.28,7.28,7.28,7.28-3.26,7.28-7.28-3.27-7.28-7.28-7.28Z"/><path class="b" d="M164.52,98.71h-68.81c-1.76,0-3.19-1.43-3.19-3.19s1.43-3.19,3.19-3.19h68.81c1.76,0,3.19,1.43,3.19,3.19s-1.43,3.19-3.19,3.19Z"/><path class="b" d="M142.83,180.62h-47.12c-1.76,0-3.19-1.43-3.19-3.19s1.43-3.19,3.19-3.19h47.12c1.76,0,3.19,1.43,3.19,3.19s-1.43,3.19-3.19,3.19Z"/><path class="b" d="M59.61,62.81l-10.76-7.28c-1.46-.99-1.84-2.97-.85-4.43s2.97-1.84,4.43-.85l5.82,3.94,10.63-13.61c1.09-1.39,3.09-1.63,4.48-.55,1.39,1.08,1.63,3.09.55,4.48l-14.3,18.3Z"/><path class="b" d="M59.61,148.83l-10.76-7.28c-1.46-.99-1.84-2.97-.85-4.43.99-1.45,2.97-1.84,4.43-.85l5.82,3.94,10.63-13.61c1.09-1.39,3.09-1.63,4.48-.55,1.39,1.08,1.63,3.09.55,4.48l-14.3,18.31Z"/><path class="b" d="M157.42,221.62c-.82,0-1.63-.31-2.26-.93-1.25-1.25-1.25-3.26,0-4.51l53.91-53.91c1.25-1.25,3.26-1.25,4.51,0s1.25,3.26,0,4.51l-53.91,53.91c-.62.62-1.44.93-2.26.93Z"/></svg>