<?xml version="1.0" encoding="UTF-8"?><svg id="a" xmlns="http://www.w3.org/2000/svg" viewBox="0 0 250 250"><defs><style>.b{fill:#2ca5bc;}</style></defs><path class="b" d="M124.99,103.44L21.71,52.49,124.99,3.04l103.41,49.45-103.41,50.95ZM33.15,52.56l91.85,45.31,91.96-45.31L124.99,8.58,33.15,52.56Z"/><path class="b" d="M124.92,134.95c-22.09,0-43.18-9.86-62.71-29.32l-.74-.73v-34.35h5v32.27c18.35,18.01,38,27.13,58.45,27.13.32,0,.64,0,.96,0,30.91-.43,54.34-21.8,58.58-25.93v-33.89h5v35.92l-.68.72c-1.07,1.13-26.59,27.65-62.77,28.18-.36,0-.72,0-1.08,0Z"/><polygon class="b" points="39.44 77.8 34.44 77.8 34.44 55.16 36.57 54.84 36.97 57.31 39.44 57.31 39.44 77.8"/><path class="b" d="M37.03,96.4c-5.82,0-10.55-4.73-10.55-10.55s4.73-10.55,10.55-10.55,10.55,4.73,10.55,10.55-4.73,10.55-10.55,10.55ZM37.03,80.31c-3.06,0-5.55,2.49-5.55,5.55s2.49,5.55,5.55,5.55,5.55-2.49,5.55-5.55-2.49-5.55-5.55-5.55Z"/><polygon class="b" points="50.96 113.38 23.8 113.38 31.05 92.74 35.77 94.39 30.86 108.38 43.47 108.38 37.81 94.73 42.43 92.81 50.96 113.38"/><path class="b" d="M125.04,246.28c-.32,0-.64,0-.95-.01-22.57-.22-43.87-9.17-59.88-25.2-16.01-16.03-24.95-37.33-25.16-59.99-.01-.23-.01-.52-.01-.82s0-.6.01-.91c.19-21.46,8.39-42,23.1-57.75l3.66,3.41c-13.85,14.84-21.58,34.19-21.76,54.47-.01.32-.01.55-.01.78s0,.46,0,.69c.41,43.9,36.38,79.89,80.18,80.32.32.01.57.01.82.01.25,0,.5,0,.74,0,43.89-.43,79.85-36.42,80.26-80.23.01-.32.01-.55.01-.78s0-.46,0-.69c-.18-19.91-7.62-38.93-20.93-53.65l3.71-3.35c14.14,15.62,22.03,35.82,22.22,56.87.01.23.01.52.01.82s0,.6-.01.91c-.21,22.57-9.15,43.87-25.17,59.9-16.02,16.03-37.31,24.98-59.96,25.2-.23.01-.55.01-.87.01Z"/><path class="b" d="M125.04,246.28c-.32,0-.64,0-.95-.01-18.29-.56-34.98-17.99-43.53-45.49-3.85-12.38-5.88-26.39-5.88-40.52s2.03-28.16,5.88-40.52l.12-.37c.06-.21.13-.41.2-.62l4.74,1.59c-.06.17-.11.34-.16.51l-.12.4c-3.69,11.87-5.65,25.37-5.65,39.01s1.96,27.13,5.66,39.04c7.9,25.39,22.82,41.48,38.94,41.97.27.01.51,0,.77.01.25,0,.5,0,.74,0,16.16-.5,31.08-16.58,38.97-41.97,3.7-11.9,5.66-25.4,5.66-39.04s-1.96-27.13-5.65-39.02l-.11-.36v-.38h1.8s2.89-1.28,2.89-1.28c.09.2.17.43.23.65,3.82,12.34,5.84,26.3,5.84,40.39s-2.03,28.14-5.88,40.52c-8.55,27.49-25.24,44.92-43.56,45.49-.28.01-.6.01-.92.01ZM165.57,120.87l-.86.21s.03.1.05.15l.81-.36Z"/><path class="b" d="M125.04,208.82c-15.08,0-29.91-2.21-42.87-6.4-26.47-8.53-42.6-23.96-43.13-41.28-.01-.28-.01-.58-.01-.88s0-.6.01-.91c.53-17.29,16.66-32.72,43.13-41.25.41-.13.83-.27,1.25-.39l1.38,4.81c-.37.11-.73.22-1.09.34-24.01,7.74-39.21,21.79-39.67,36.68-.01.27-.01.49-.01.72s0,.46,0,.69c.46,14.92,15.66,28.97,39.67,36.71,12.47,4.03,26.76,6.16,41.33,6.16s28.87-2.13,41.33-6.16c24.01-7.74,39.21-21.79,39.67-36.68.01-.27.01-.49.01-.72s0-.46,0-.69c-.46-14.91-15.66-28.96-39.67-36.7l-1.73-.56v-1.82h2.11s.97-2.45.97-2.45l-.92,2.32.92-2.32,1.92.58v.07c25.44,8.64,40.88,23.77,41.4,40.7.01.28.01.58.01.88s0,.6-.01.91c-.53,17.29-16.66,32.72-43.13,41.25-12.95,4.19-27.77,6.4-42.86,6.4Z"/><rect class="b" x="122.54" y="132.45" width="5" height="111.74"/><rect class="b" x="41.53" y="157.76" width="167.03" height="5"/></svg>