<?xml version="1.0" encoding="UTF-8"?><svg id="a" xmlns="http://www.w3.org/2000/svg" viewBox="0 0 250 250"><defs><style>.b{fill:#fff;}</style></defs><path class="b" d="M125.19,242.58c-42.87,0-84.26-23.51-104.99-64.27-14.23-27.99-16.71-59.85-6.98-89.71,9.73-29.85,30.5-54.14,58.5-68.37,27.99-14.23,59.85-16.71,89.7-6.98,29.86,9.73,54.14,30.5,68.37,58.5,14.23,27.99,16.71,59.85,6.98,89.7-9.73,29.86-30.5,54.14-58.5,68.37-17.02,8.65-35.18,12.75-53.09,12.75ZM124.89,13.6c-17.31,0-34.49,4.08-50.36,12.15-26.52,13.48-46.2,36.49-55.42,64.77-9.22,28.28-6.87,58.47,6.61,84.99,27.83,54.74,95.01,76.64,149.76,48.8,26.52-13.48,46.2-36.49,55.42-64.77,9.22-28.29,6.87-58.47-6.61-84.99-13.48-26.52-36.49-46.2-64.77-55.42-11.35-3.7-23.02-5.54-34.63-5.54Z"/><path class="b" d="M158.67,234.37c-31.86,0-70.79-30.76-94.91-78.19h0c-14.1-27.73-21.16-57-19.88-82.42,1.31-26.04,11.2-45.05,27.85-53.51,33.77-17.16,85.14,15.87,114.52,73.66,14.1,27.73,21.16,57,19.88,82.42-1.31,26.04-11.2,45.05-27.85,53.51-6.05,3.07-12.66,4.54-19.61,4.54ZM69.27,153.37c27.83,54.75,75.48,86.57,106.21,70.94,14.59-7.42,23.28-24.57,24.48-48.31,1.22-24.36-5.61-52.52-19.22-79.3C152.9,41.96,105.25,10.13,74.52,25.76c-14.59,7.42-23.28,24.57-24.48,48.31-1.22,24.36,5.61,52.52,19.22,79.3h0Z"/><path class="b" d="M76.95,204.66c-1.34,0-2.66-.02-3.98-.07-25.85-.87-44.59-10.2-52.77-26.28-16.55-32.54,17-82.92,74.78-112.31,57.78-29.38,118.26-26.8,134.8,5.75,16.55,32.55-17,82.92-74.78,112.3-26.26,13.35-53.81,20.6-78.06,20.6ZM173.28,51.51c-22.39,0-49.17,6.63-75.49,20.01C43.05,99.36,10.72,146.01,25.72,175.51c7.11,13.98,23.96,22.12,47.46,22.9,24.18.82,52.23-6.24,79.03-19.87h0c54.74-27.83,87.07-74.48,72.07-103.99-7.79-15.32-26.83-23.05-51-23.05Z"/><rect class="b" x="121.82" y="11.14" width="6.18" height="227.34" transform="translate(-43.03 70.27) rotate(-26.99)"/><rect class="b" x="10.53" y="121.94" width="228.94" height="6.18" transform="translate(-43.08 70.2) rotate(-26.94)"/></svg>